<svg width="100" height="100" viewBox="0 0 100 100" fill="none" xmlns="http://www.w3.org/2000/svg">
<circle cx="50" cy="50" r="50" fill="#EEEEEE"/>
<path d="M74.8716 56.8431C75.1912 55.9323 74.9004 54.9191 74.1468 54.3161L51.419 36.1344C50.589 35.4705 49.4095 35.4705 48.5795 36.1346L25.853 54.3163C25.3033 54.756 25 55.414 25 56.0914C25 56.3426 25.0418 56.5969 25.1283 56.8432C25.4477 57.7541 26.3077 58.3637 27.2728 58.3637L72.7271 58.3637C73.6924 58.3635 74.5522 57.754 74.8716 56.8431ZM33.7517 53.8181L49.9993 40.8197L66.2479 53.8181L33.7517 53.8181Z" fill="#222831"/>
<path d="M33.7517 53.8181L49.9993 40.8197L66.2479 53.8181L33.7517 53.8181Z" fill="#FD7013"/>
</svg>
