<svg width="433" height="311" viewBox="0 0 433 311" fill="none" xmlns="http://www.w3.org/2000/svg">
<path d="M79.85 172.8C77.5833 172.8 75.6333 172.317 74 171.35C72.4 170.383 71.0667 168.867 70 166.8L74.7 163.6C75.1667 164.5 75.8 165.2 76.6 165.7C77.4 166.2 78.25 166.45 79.15 166.45C80.5833 166.45 81.65 166.017 82.35 165.15C83.0833 164.283 83.45 162.733 83.45 160.5V139.6H90.8V161.1C90.8 163.233 90.4167 165.2 89.65 167C88.8833 168.767 87.6833 170.183 86.05 171.25C84.45 172.283 82.3833 172.8 79.85 172.8Z" fill="#EEEEEE"/>
<path d="M121.589 172.8C118.656 172.8 116.073 172.117 113.839 170.75C111.639 169.383 109.906 167.433 108.639 164.9C107.406 162.367 106.789 159.317 106.789 155.75C106.789 152.217 107.406 149.2 108.639 146.7C109.906 144.2 111.639 142.3 113.839 141C116.073 139.667 118.656 139 121.589 139C124.523 139 127.106 139.667 129.339 141C131.573 142.3 133.306 144.2 134.539 146.7C135.773 149.2 136.389 152.217 136.389 155.75C136.389 159.317 135.773 162.367 134.539 164.9C133.306 167.433 131.573 169.383 129.339 170.75C127.106 172.117 124.523 172.8 121.589 172.8ZM121.589 166.45C123.089 166.45 124.373 166.017 125.439 165.15C126.539 164.25 127.373 163 127.939 161.4C128.539 159.8 128.839 157.917 128.839 155.75C128.839 153.583 128.539 151.733 127.939 150.2C127.373 148.633 126.539 147.45 125.439 146.65C124.373 145.817 123.089 145.4 121.589 145.4C120.123 145.4 118.839 145.817 117.739 146.65C116.639 147.45 115.789 148.633 115.189 150.2C114.623 151.733 114.339 153.583 114.339 155.75C114.339 157.917 114.623 159.8 115.189 161.4C115.789 163 116.639 164.25 117.739 165.15C118.839 166.017 120.123 166.45 121.589 166.45Z" fill="#EEEEEE"/>
<path d="M152.519 172.2V139.6H159.869V172.2H152.519Z" fill="#EEEEEE"/>
<path d="M177.558 172.2V139.6H185.258L193.608 155.65C194.208 156.75 194.758 157.933 195.258 159.2C195.792 160.433 196.308 161.7 196.808 163H197.008C196.842 161.233 196.642 159.3 196.408 157.2C196.175 155.1 196.058 153.083 196.058 151.15V139.6H203.108V172.2H195.408L187.058 156.15C186.492 155.05 185.925 153.867 185.358 152.6C184.825 151.333 184.308 150.067 183.808 148.8H183.608C183.808 150.6 184.025 152.55 184.258 154.65C184.492 156.717 184.608 158.717 184.608 160.65V172.2H177.558Z" fill="#EEEEEE"/>
<path d="M240.82 172.2V139.6H248.52L256.87 155.65C257.47 156.75 258.02 157.933 258.52 159.2C259.053 160.433 259.57 161.7 260.07 163H260.27C260.103 161.233 259.903 159.3 259.67 157.2C259.437 155.1 259.32 153.083 259.32 151.15V139.6H266.37V172.2H258.67L250.32 156.15C249.753 155.05 249.187 153.867 248.62 152.6C248.087 151.333 247.57 150.067 247.07 148.8H246.87C247.07 150.6 247.287 152.55 247.52 154.65C247.753 156.717 247.87 158.717 247.87 160.65V172.2H240.82Z" fill="#EEEEEE"/>
<path d="M297.322 172.8C294.389 172.8 291.805 172.117 289.572 170.75C287.372 169.383 285.639 167.433 284.372 164.9C283.139 162.367 282.522 159.317 282.522 155.75C282.522 152.217 283.139 149.2 284.372 146.7C285.639 144.2 287.372 142.3 289.572 141C291.805 139.667 294.389 139 297.322 139C300.255 139 302.839 139.667 305.072 141C307.305 142.3 309.039 144.2 310.272 146.7C311.505 149.2 312.122 152.217 312.122 155.75C312.122 159.317 311.505 162.367 310.272 164.9C309.039 167.433 307.305 169.383 305.072 170.75C302.839 172.117 300.255 172.8 297.322 172.8ZM297.322 166.45C298.822 166.45 300.105 166.017 301.172 165.15C302.272 164.25 303.105 163 303.672 161.4C304.272 159.8 304.572 157.917 304.572 155.75C304.572 153.583 304.272 151.733 303.672 150.2C303.105 148.633 302.272 147.45 301.172 146.65C300.105 145.817 298.822 145.4 297.322 145.4C295.855 145.4 294.572 145.817 293.472 146.65C292.372 147.45 291.522 148.633 290.922 150.2C290.355 151.733 290.072 153.583 290.072 155.75C290.072 157.917 290.355 159.8 290.922 161.4C291.522 163 292.372 164.25 293.472 165.15C294.572 166.017 295.855 166.45 297.322 166.45Z" fill="#EEEEEE"/>
<path d="M330.904 172.2L325.004 139.6H332.654L334.804 154.8C335.037 156.533 335.254 158.267 335.454 160C335.687 161.7 335.887 163.45 336.054 165.25H336.254C336.554 163.45 336.854 161.683 337.154 159.95C337.487 158.217 337.821 156.5 338.154 154.8L341.604 139.6H348.154L351.454 154.8C351.787 156.467 352.121 158.183 352.454 159.95C352.787 161.683 353.104 163.45 353.404 165.25H353.604C353.771 163.45 353.954 161.683 354.154 159.95C354.387 158.217 354.604 156.5 354.804 154.8L357.104 139.6H364.304L358.454 172.2H348.954L345.904 157.4C345.671 156.167 345.454 154.9 345.254 153.6C345.054 152.3 344.871 151 344.704 149.7H344.504C344.337 151 344.154 152.3 343.954 153.6C343.787 154.9 343.571 156.167 343.304 157.4L340.254 172.2H330.904Z" fill="#EEEEEE"/>
</svg>
