<svg width="900" height="900" viewBox="0 0 900 900" fill="none" xmlns="http://www.w3.org/2000/svg">
<g clip-path="url(#clip0_19_205)">
<path d="M450 900C698.528 900 900 698.528 900 450C900 201.472 698.528 0 450 0C201.472 0 0 201.472 0 450C0 698.528 201.472 900 450 900Z" fill="#FD7013"/>
<path d="M752 245H714C705.716 245 699 251.716 699 260V664C699 672.284 705.716 679 714 679H752C760.284 679 767 672.284 767 664V260C767 251.716 760.284 245 752 245Z" fill="#D76114"/>
<path d="M157 626V664C157 672.284 163.716 679 172 679H752C760.284 679 767 672.284 767 664V626C767 617.716 760.284 611 752 611H172C163.716 611 157 617.716 157 626Z" fill="#D76114"/>
<path d="M718 221H148C139.716 221 133 227.716 133 236V640C133 648.284 139.716 655 148 655H718C726.284 655 733 648.284 733 640V236C733 227.716 726.284 221 718 221Z" fill="#222831"/>
<path d="M713 291H153C147.477 291 143 295.477 143 301V635C143 640.523 147.477 645 153 645H713C718.523 645 723 640.523 723 635V301C723 295.477 718.523 291 713 291Z" fill="#EEEEEE"/>
<rect x="198" y="344" width="8" height="150" rx="4" transform="rotate(-90 198 344)" fill="#E647C3"/>
<rect x="198" y="367" width="8" height="120" rx="4" transform="rotate(-90 198 367)" fill="#E647C3"/>
<rect x="233" y="466" width="8" height="40" rx="4" transform="rotate(-90 233 466)" fill="#E647C3"/>
<rect x="198" y="405" width="8" height="60" rx="4" transform="rotate(-90 198 405)" fill="#59A9F2"/>
<rect x="288" y="466" width="8" height="60" rx="4" transform="rotate(-90 288 466)" fill="#59A9F2"/>
<rect x="492" y="466" width="8" height="60" rx="4" transform="rotate(-90 492 466)" fill="#87E4EA"/>
<rect x="567" y="466" width="8" height="30" rx="4" transform="rotate(-90 567 466)" fill="#87E4EA"/>
<rect x="273" y="504" width="8" height="40" rx="4" transform="rotate(-90 273 504)" fill="#87E4EA"/>
<rect x="233" y="542" width="8" height="50" rx="4" transform="rotate(-90 233 542)" fill="#87E4EA"/>
<rect x="328" y="504" width="8" height="40" rx="4" transform="rotate(-90 328 504)" fill="#87E4EA"/>
<rect x="273" y="405" width="8" height="80" rx="4" transform="rotate(-90 273 405)" fill="#F3EE75"/>
<rect x="298" y="542" width="8" height="50" rx="4" transform="rotate(-90 298 542)" fill="#F3EE75"/>
<rect x="333" y="367" width="8" height="150" rx="4" transform="rotate(-90 333 367)" fill="#59A9F2"/>
<rect x="498" y="367" width="8" height="60" rx="4" transform="rotate(-90 498 367)" fill="#12EBB7"/>
<rect x="233" y="443" width="8" height="70" rx="4" transform="rotate(-90 233 443)" fill="#12EBB7"/>
<rect x="318" y="443" width="8" height="70" rx="4" transform="rotate(-90 318 443)" fill="#12EBB7"/>
<rect x="363" y="344" width="8" height="110" rx="4" transform="rotate(-90 363 344)" fill="#FD7013"/>
<rect x="492" y="443" width="8" height="70" rx="4" transform="rotate(-90 492 443)" fill="#FD7013"/>
<rect x="577" y="443" width="8" height="40" rx="4" transform="rotate(-90 577 443)" fill="#FD7013"/>
<rect x="632" y="443" width="8" height="50" rx="4" transform="rotate(-90 632 443)" fill="#FD7013"/>
<path d="M543.737 416.542C543.735 412.349 542.839 408.644 541.025 405.464C539.244 402.338 536.576 399.717 532.998 397.645C503.463 380.615 473.898 363.636 444.372 346.589C436.412 341.993 428.694 342.161 420.793 346.822C409.037 353.755 350.179 387.477 332.64 397.635C325.417 401.817 321.902 408.216 321.9 416.534C321.889 450.783 321.9 485.031 321.889 519.281C321.891 523.382 322.749 527.015 324.483 530.147C326.265 533.368 328.97 536.061 332.63 538.18C350.17 548.339 409.036 582.057 420.79 588.992C428.694 593.656 436.412 593.823 444.375 589.226C473.902 572.177 503.468 555.2 533.008 538.169C536.668 536.051 539.373 533.357 541.155 530.138C542.886 527.006 543.747 523.373 543.748 519.272C543.748 519.272 543.748 450.792 543.737 416.542Z" fill="#5C8DBC"/>
<path d="M433.158 467.574L324.483 530.147C326.265 533.368 328.97 536.061 332.63 538.18C350.17 548.339 409.036 582.057 420.79 588.992C428.694 593.656 436.412 593.823 444.375 589.226C473.902 572.177 503.468 555.2 533.008 538.169C536.668 536.051 539.373 533.357 541.155 530.138L433.158 467.574Z" fill="#1A4674"/>
<path d="M400.97 486.109C407.293 497.148 419.181 504.595 432.819 504.595C446.54 504.595 458.496 497.054 464.787 485.896L433.158 467.574L400.97 486.109Z" fill="#1A4674"/>
<path d="M543.737 416.542C543.735 412.349 542.839 408.644 541.025 405.464L433.158 467.574L541.155 530.138C542.886 527.006 543.746 523.373 543.748 519.272C543.748 519.272 543.748 450.792 543.737 416.542Z" fill="#1B598E"/>
<path d="M537.799 472.046H529.359V480.487H520.918V472.046H512.48V463.608H520.918V455.168H529.359V463.608H537.799V472.046ZM507.004 472.046H498.566V480.487H490.127V472.046H481.688V463.608H490.127V455.168H498.566V463.608H507.004V472.046Z" fill="white"/>
<path d="M464.787 485.896C458.496 497.054 446.54 504.595 432.819 504.595C419.181 504.595 407.293 497.148 400.97 486.109C397.793 480.569 396.124 474.293 396.131 467.907C396.131 447.646 412.557 431.22 432.819 431.22C446.368 431.22 458.194 438.574 464.549 449.501L496.615 431.036C483.87 409.034 460.074 394.232 432.819 394.232C392.128 394.232 359.142 427.218 359.142 467.907C359.142 481.256 362.694 493.774 368.9 504.572C381.614 526.69 405.477 541.583 432.819 541.583C460.21 541.583 484.111 526.63 496.806 504.447L464.787 485.896Z" fill="white"/>
<path d="M693 291H713C718.523 291 723 295.477 723 301V635C723 640.523 718.523 645 713 645H693V291Z" fill="#DFDEDE"/>
<path d="M143 301C143 295.477 147.477 291 153 291H173V645H153C147.477 645 143 640.523 143 635V301Z" fill="white"/>
<path d="M190.5 274C200.165 274 208 266.165 208 256.5C208 246.835 200.165 239 190.5 239C180.835 239 173 246.835 173 256.5C173 266.165 180.835 274 190.5 274Z" fill="#FD7013"/>
<path d="M245.5 274C255.165 274 263 266.165 263 256.5C263 246.835 255.165 239 245.5 239C235.835 239 228 246.835 228 256.5C228 266.165 235.835 274 245.5 274Z" fill="#DFDEDE"/>
<path d="M300.5 274C310.165 274 318 266.165 318 256.5C318 246.835 310.165 239 300.5 239C290.835 239 283 246.835 283 256.5C283 266.165 290.835 274 300.5 274Z" fill="white"/>
</g>
<defs>
<clipPath id="clip0_19_205">
<rect width="900" height="900" fill="white"/>
</clipPath>
</defs>
</svg>
