<svg width="433" height="311" viewBox="0 0 433 311" fill="none" xmlns="http://www.w3.org/2000/svg">
<rect width="433" height="311" fill="#EEEEEE"/>
<rect x="124.438" y="90.4078" width="186.699" height="34.6958" rx="17.3479" fill="#D0CDCB"/>
<rect x="116.35" y="125.104" width="201.325" height="36.604" rx="18.302" fill="#D0CDCB"/>
<rect x="134.418" y="161.708" width="193.582" height="31.5731" rx="15.7866" fill="#D0CDCB"/>
<rect x="124.438" y="43.0482" width="190.313" height="24.634" rx="12.317" fill="#D0CDCB"/>
<rect x="142.161" y="67.6821" width="185.839" height="22.7257" rx="11.3629" fill="#D0CDCB"/>
<rect x="113.087" y="82.3597" width="186.699" height="34.6958" rx="17.3479" fill="#1F7FC5"/>
<rect x="105" y="117.055" width="201.325" height="36.604" rx="18.302" fill="#89B6D7"/>
<rect x="123.068" y="153.659" width="193.582" height="31.5731" rx="15.7866" fill="#B5D9F3"/>
<rect x="113.087" y="35" width="190.313" height="24.634" rx="12.317" fill="#81CAFF"/>
<rect x="130.811" y="59.6339" width="185.839" height="22.7257" rx="11.3629" fill="#4EB0F8"/>
<line y1="-5" x2="43.1356" y2="-5" transform="matrix(0.814483 -0.580187 0.573924 0.818909 176.41 95.0695)" stroke="#419ADA" stroke-width="10"/>
<line y1="-5" x2="21.9129" y2="-5" transform="matrix(0.814483 -0.580187 0.573924 0.818909 176.41 95.0695)" stroke="#1A6EAB" stroke-width="10"/>
<path d="M193.618 80.9719L194.306 82.3598H191.725L193.618 80.9719Z" fill="#419ADA"/>
<line y1="-5" x2="43.1356" y2="-5" transform="matrix(0.814483 -0.580187 0.573924 0.818909 175.378 94.0286)" stroke="#222831" stroke-width="10"/>
<path d="M250.267 63.2771C250.267 62.0514 250.15 60.8315 249.919 59.6341C249.678 58.3834 249.313 57.1573 248.827 55.9745C247.875 53.6593 246.481 51.5556 244.724 49.7836C242.966 48.0117 240.879 46.606 238.583 45.647C236.286 44.688 233.825 44.1945 231.339 44.1945C228.854 44.1945 226.392 44.688 224.096 45.647C221.8 46.606 219.713 48.0117 217.955 49.7836C216.198 51.5556 214.803 53.6593 213.852 55.9745C213.366 57.1573 213.001 58.3834 212.76 59.6341C212.529 60.8315 212.411 62.0514 212.411 63.2771L231.339 63.2771H250.267Z" fill="#70B1E0"/>
<path d="M250.267 63.2771C250.267 73.8162 241.793 82.3598 231.339 82.3598C220.886 82.3598 212.411 73.8162 212.411 63.2771C212.411 62.0312 212.53 60.8133 212.756 59.634C223.08 59.634 223.068 59.634 232.286 59.634C241.504 59.634 242.696 59.634 249.923 59.634C250.149 60.8133 250.267 62.0312 250.267 63.2771Z" fill="#419ADA"/>
<ellipse cx="225.997" cy="59.6215" rx="21.1041" ry="21.4558" fill="#222831"/>
<ellipse cx="225.967" cy="59.634" rx="17.6662" ry="17.8105" fill="url(#paint0_linear_221_151)"/>
<path d="M197.097 123.301C197.097 140.067 183.615 117.055 166.984 117.055C150.353 117.055 136.871 140.067 136.871 123.301C136.871 121.16 137.091 119.071 137.509 117.055C140.365 103.285 152.477 92.9419 166.984 92.9419C181.492 92.9419 193.603 103.285 196.459 117.055C196.877 119.071 197.097 121.16 197.097 123.301Z" fill="#1A6EAB"/>
<path d="M197.097 123.301C197.097 140.067 183.615 153.66 166.984 153.66C150.353 153.66 136.871 140.067 136.871 123.301C136.871 121.16 137.091 119.071 137.509 117.056C153.39 117.056 152.477 117.056 166.984 117.056C181.492 117.056 181.696 117.056 196.459 117.056C196.877 119.071 197.097 121.16 197.097 123.301Z" fill="#7DA4C0"/>
<line y1="-5" x2="43.0924" y2="-5" transform="matrix(0.887074 0.461628 -0.455734 0.890116 183.809 132.322)" stroke="#7DA4C0" stroke-width="10"/>
<line y1="-5" x2="43.0924" y2="-5" transform="matrix(0.887074 0.461628 -0.455734 0.890116 183.121 133.709)" stroke="#222831" stroke-width="10"/>
<ellipse cx="254.397" cy="159.211" rx="25.8109" ry="26.0218" fill="#7AA1BD"/>
<path d="M280.208 159.211C280.208 173.582 268.652 185.233 254.397 185.233C240.142 185.233 228.586 173.582 228.586 159.211C228.586 157.306 228.789 155.448 229.175 153.66C243.298 153.66 242.72 153.66 255.085 153.66C267.451 153.66 267.389 153.66 279.619 153.66C280.005 155.448 280.208 157.306 280.208 159.211Z" fill="#9ABCD5"/>
<ellipse cx="247.277" cy="153.535" rx="27.6112" ry="27.7871" fill="#222831"/>
<ellipse cx="247.132" cy="153.66" rx="24.0902" ry="24.287" fill="url(#paint1_linear_221_151)"/>
<ellipse cx="158.991" cy="116.954" rx="31.832" ry="32.0079" fill="#222831"/>
<ellipse cx="159.031" cy="117.056" rx="28.1052" ry="28.3349" fill="url(#paint2_linear_221_151)"/>
<g clip-path="url(#clip0_221_151)">
<path d="M171.442 119.723C172.584 120.846 173.789 121.904 174.813 123.14C175.265 123.69 175.693 124.257 176.021 124.895C176.485 125.802 176.065 126.8 175.258 126.854L170.244 126.852C168.951 126.96 167.92 126.435 167.052 125.544C166.358 124.831 165.715 124.072 165.048 123.336C164.774 123.034 164.488 122.751 164.146 122.527C163.461 122.079 162.867 122.216 162.476 122.936C162.078 123.668 161.987 124.478 161.948 125.294C161.895 126.484 161.538 126.797 160.352 126.852C157.817 126.972 155.412 126.586 153.178 125.297C151.208 124.16 149.68 122.556 148.351 120.74C145.762 117.204 143.779 113.318 141.998 109.324C141.596 108.424 141.89 107.941 142.875 107.923C144.51 107.891 146.146 107.894 147.783 107.921C148.448 107.931 148.888 108.315 149.145 108.948C150.03 111.142 151.112 113.229 152.472 115.164C152.833 115.679 153.203 116.194 153.728 116.556C154.309 116.958 154.752 116.825 155.026 116.172C155.199 115.757 155.275 115.312 155.314 114.868C155.444 113.343 155.461 111.82 155.234 110.299C155.094 109.35 154.564 108.736 153.625 108.557C153.146 108.465 153.217 108.285 153.449 108.01C153.852 107.534 154.231 107.238 154.987 107.238H160.653C161.545 107.416 161.743 107.82 161.865 108.724L161.87 115.07C161.86 115.42 162.044 116.46 162.669 116.691C163.17 116.856 163.501 116.452 163.801 116.132C165.158 114.681 166.126 112.965 166.991 111.189C167.375 110.408 167.705 109.596 168.025 108.786C168.262 108.185 168.634 107.889 169.306 107.902L174.759 107.907C174.921 107.907 175.084 107.909 175.241 107.936C176.16 108.094 176.412 108.492 176.128 109.397C175.681 110.816 174.811 111.999 173.96 113.187C173.05 114.456 172.078 115.681 171.176 116.958C170.347 118.123 170.413 118.71 171.442 119.723Z" fill="#222831"/>
</g>
<g clip-path="url(#clip1_221_151)">
<path d="M259.453 145.466C259.047 145.647 258.63 145.8 258.204 145.924C258.709 145.349 259.093 144.673 259.328 143.932C259.381 143.767 259.326 143.585 259.191 143.476C259.056 143.368 258.868 143.355 258.719 143.444C257.814 143.985 256.838 144.373 255.815 144.601C254.784 143.585 253.384 143.007 251.937 143.007C248.881 143.007 246.396 145.513 246.396 148.593C246.396 148.836 246.411 149.077 246.441 149.315C242.65 148.979 239.125 147.101 236.705 144.107C236.619 144.001 236.486 143.943 236.35 143.954C236.214 143.965 236.091 144.042 236.022 144.161C235.532 145.01 235.272 145.982 235.272 146.97C235.272 148.316 235.749 149.593 236.591 150.591C236.335 150.502 236.086 150.39 235.849 150.257C235.722 150.186 235.566 150.187 235.44 150.26C235.313 150.333 235.234 150.467 235.231 150.614C235.23 150.639 235.23 150.664 235.23 150.689C235.23 152.698 236.303 154.507 237.942 155.493C237.802 155.479 237.661 155.458 237.521 155.431C237.377 155.403 237.228 155.454 237.131 155.565C237.034 155.676 237.002 155.831 237.046 155.972C237.653 157.882 239.216 159.287 241.105 159.716C239.538 160.705 237.747 161.223 235.866 161.223C235.473 161.223 235.078 161.2 234.692 161.154C234.5 161.131 234.317 161.245 234.251 161.429C234.186 161.613 234.255 161.819 234.418 161.924C236.835 163.486 239.629 164.312 242.499 164.312C248.14 164.312 251.669 161.63 253.636 159.38C256.089 156.575 257.495 152.861 257.495 149.192C257.495 149.039 257.493 148.884 257.488 148.73C258.456 147.995 259.289 147.105 259.967 146.083C260.07 145.928 260.059 145.722 259.94 145.58C259.821 145.436 259.622 145.39 259.453 145.466Z" fill="#222831"/>
</g>
<g clip-path="url(#clip2_221_151)">
<path d="M222.305 60.1429H224.003V67.1887C224.003 67.3278 224.115 67.4405 224.253 67.4405H227.131C227.269 67.4405 227.381 67.3278 227.381 67.1887V60.1761H229.332C229.459 60.1761 229.566 60.0801 229.581 59.9531L229.877 57.3592C229.885 57.2878 229.863 57.2163 229.815 57.1628C229.768 57.1092 229.7 57.0785 229.629 57.0785H227.381V55.4526C227.381 54.9624 227.643 54.7139 228.159 54.7139C228.233 54.7139 229.629 54.7139 229.629 54.7139C229.767 54.7139 229.879 54.6011 229.879 54.462V52.0811C229.879 51.942 229.767 51.8293 229.629 51.8293H227.603C227.589 51.8286 227.557 51.8274 227.511 51.8274C227.159 51.8274 225.938 51.897 224.973 52.7919C223.903 53.7837 224.052 54.9712 224.088 55.1771V57.0785H222.305C222.167 57.0785 222.056 57.1912 222.056 57.3303V59.8911C222.056 60.0301 222.167 60.1429 222.305 60.1429Z" fill="#222831"/>
</g>
<defs>
<linearGradient id="paint0_linear_221_151" x1="219.945" y1="56.5114" x2="238.566" y2="71.8887" gradientUnits="userSpaceOnUse">
<stop stop-color="#FD7013"/>
<stop offset="1" stop-color="#EEF20F"/>
</linearGradient>
<linearGradient id="paint1_linear_221_151" x1="235.775" y1="158.951" x2="255.699" y2="129.523" gradientUnits="userSpaceOnUse">
<stop stop-color="#FD7013"/>
<stop offset="1" stop-color="#EEF20F"/>
</linearGradient>
<linearGradient id="paint2_linear_221_151" x1="145.523" y1="117.056" x2="187.101" y2="109.456" gradientUnits="userSpaceOnUse">
<stop stop-color="#FD7013"/>
<stop offset="1" stop-color="#EEF20F"/>
</linearGradient>
<clipPath id="clip0_221_151">
<rect width="34.4146" height="34.6958" fill="white" transform="translate(141.824 99.7075)"/>
</clipPath>
<clipPath id="clip1_221_151">
<rect width="25.8109" height="26.0218" fill="white" transform="translate(234.227 140.649)"/>
</clipPath>
<clipPath id="clip2_221_151">
<rect width="15.4866" height="15.6131" fill="white" transform="translate(218.224 51.8274)"/>
</clipPath>
</defs>
</svg>
