<svg width="433" height="311" viewBox="0 0 433 311" fill="none" xmlns="http://www.w3.org/2000/svg">
<path d="M203.823 68.6246C204.806 71.0266 206.071 74.6252 207.062 79.1685H213.667C214.855 79.1685 215.819 80.1798 215.819 81.4275H220.121C220.121 80.1801 221.084 79.1685 222.272 79.1685L237.483 79.1679C238.474 74.6249 239.738 71.0263 240.721 68.6246H203.823Z" fill="#D0CDCB"/>
<path d="M215.818 81.4278C215.818 82.6758 214.855 83.6871 213.667 83.6871H207.891C207.965 84.1811 208.036 84.68 208.101 85.1897C209.472 95.9189 208.916 112.25 198.772 129.827C209.726 141.929 216.232 157.683 217.138 174.388C217.164 174.858 217.049 175.324 216.81 175.723C216.161 176.803 215.818 178.051 215.818 179.331C215.818 182.276 217.617 184.787 220.121 185.72V136.526C217.617 135.594 215.818 133.082 215.818 130.137C215.818 126.4 218.713 123.359 222.272 123.359C225.831 123.359 228.726 126.4 228.726 130.137C228.726 133.082 226.927 135.594 224.423 136.526V185.72C226.927 184.787 228.726 182.276 228.726 179.331C228.726 178.05 228.383 176.803 227.734 175.722C227.495 175.324 227.38 174.858 227.405 174.388C228.312 157.683 234.818 141.929 245.772 129.827C235.628 112.249 235.072 95.9186 236.443 85.1893C236.508 84.6794 236.579 84.1802 236.653 83.6862L222.272 83.6871C221.084 83.6871 220.121 82.6758 220.121 81.4278H215.818ZM217.177 90.3604C217.79 104.061 214.891 117.398 208.564 130C208.009 131.103 206.707 131.526 205.657 130.944C204.606 130.362 204.204 128.995 204.758 127.892C210.723 116.013 213.456 103.457 212.88 90.5722C212.824 89.3257 213.741 88.268 214.928 88.2093C214.962 88.2078 214.996 88.2069 215.03 88.2069C216.172 88.2072 217.123 89.1503 217.177 90.3604Z" fill="#D0CDCB"/>
<path d="M244.141 64.106C244.15 64.106 246.683 64.106 246.683 64.106L248.69 53.5635L195.854 53.5635L197.862 64.106H244.141Z" fill="#D0CDCB"/>
<path d="M191.121 51.7474L193.989 66.8084C194.19 67.8645 195.073 68.6246 196.099 68.6246L199.09 68.6246C200.222 71.0788 202.787 77.3665 203.862 85.987C205.721 100.89 202.484 115.336 194.242 128.923C193.699 129.817 193.821 130.985 194.535 131.735C205.311 143.051 211.784 158.028 212.804 173.973C211.96 175.615 211.517 177.452 211.517 179.331C211.516 185.56 216.341 190.627 222.273 190.627C228.204 190.627 233.029 185.56 233.029 179.331C233.029 177.452 232.586 175.615 231.742 173.973C232.762 158.028 239.234 143.052 250.011 131.735C250.724 130.985 250.846 129.817 250.304 128.923C242.062 115.336 238.825 100.89 240.683 85.987C241.758 77.3647 244.324 71.0766 245.456 68.6246H248.446C249.472 68.6246 250.355 67.8645 250.556 66.8084L253.424 51.7474C253.55 51.0838 253.387 50.3954 252.978 49.8719C252.57 49.3486 251.959 49.045 251.315 49.045H193.23C192.586 49.045 191.976 49.3486 191.567 49.8719C191.158 50.3951 190.995 51.0838 191.121 51.7474ZM248.691 53.5636L246.683 64.106H244.15C244.142 64.106 197.863 64.106 197.863 64.106L195.855 53.5636H248.691ZM237.484 79.1679L222.273 79.1685C221.085 79.1685 220.122 80.1801 220.122 81.4275C220.122 82.6758 221.085 83.6871 222.273 83.6871L236.654 83.6865C236.58 84.1808 236.509 84.6797 236.444 85.1896C235.073 95.9189 235.629 112.25 245.773 129.827C234.819 141.929 228.313 157.683 227.406 174.388C227.381 174.858 227.496 175.324 227.735 175.723C228.384 176.803 228.727 178.051 228.727 179.331C228.727 182.276 226.928 184.787 224.424 185.72V136.526C226.928 135.594 228.727 133.082 228.727 130.137C228.727 126.4 225.832 123.359 222.273 123.359C218.714 123.359 215.819 126.4 215.819 130.137C215.819 133.082 217.618 135.594 220.122 136.526V185.72C217.618 184.787 215.819 182.276 215.819 179.331C215.819 178.05 216.162 176.803 216.811 175.722C217.05 175.324 217.165 174.858 217.139 174.388C216.233 157.683 209.727 141.929 198.772 129.827C208.917 112.249 209.473 95.9186 208.102 85.1893C208.037 84.6797 207.965 84.1805 207.891 83.6868H213.668C214.856 83.6868 215.819 82.6755 215.819 81.4275C215.819 80.1795 214.856 79.1682 213.668 79.1682H207.062C206.071 74.6249 204.807 71.0263 203.824 68.6243H240.722C239.739 71.0263 238.475 74.6249 237.484 79.1679ZM222.273 132.396C221.086 132.396 220.121 131.383 220.121 130.137C220.121 128.891 221.086 127.878 222.273 127.878C223.459 127.878 224.424 128.891 224.424 130.137C224.424 131.383 223.459 132.396 222.273 132.396Z" fill="#D0CDCB"/>
<path d="M222.273 132.396C221.086 132.396 220.121 131.383 220.121 130.137C220.121 128.891 221.086 127.878 222.273 127.878C223.459 127.878 224.424 128.891 224.424 130.137C224.424 131.383 223.459 132.396 222.273 132.396Z" fill="#D0CDCB"/>
<path d="M214.928 88.2096C213.741 88.268 212.824 89.3259 212.88 90.5725C213.456 103.457 210.723 116.013 204.758 127.892C204.204 128.996 204.607 130.362 205.658 130.944C206.708 131.526 208.01 131.103 208.564 130C214.892 117.398 217.79 104.062 217.178 90.3607C217.124 89.1503 216.172 88.2075 215.03 88.2075C214.997 88.2072 214.962 88.2081 214.928 88.2096Z" fill="#D0CDCB"/>
<path d="M303.457 97.8934C304.882 97.8934 306.042 99.0498 306.002 100.475C305.377 122.845 296.642 144.162 281.53 160.033C265.837 176.513 244.554 185.772 222.361 185.772C200.169 185.772 178.885 176.513 163.193 160.033C148.08 144.162 139.345 122.845 138.72 100.475C138.68 99.0498 139.84 97.8934 141.265 97.8934V97.8934C142.691 97.8934 143.843 99.0499 143.885 100.475C144.509 121.407 152.699 141.345 166.843 156.199C181.567 171.663 201.538 180.89 222.361 180.89C243.184 180.89 263.155 171.663 277.879 156.199C292.023 141.345 300.213 121.407 300.837 100.475C300.88 99.0499 302.031 97.8934 303.457 97.8934V97.8934Z" fill="#D0CDCB"/>
<rect x="129.581" y="185.767" width="185.949" height="4.88214" rx="2.44107" fill="#D0CDCB"/>
<ellipse cx="129.348" cy="187.964" rx="5.8109" ry="6.10267" fill="#D0CDCB"/>
<ellipse cx="315.297" cy="187.964" rx="5.8109" ry="6.10267" fill="#D0CDCB"/>
<path d="M293.114 93.5856C294.539 93.5856 295.699 94.7419 295.659 96.1669C295.033 118.537 286.299 139.854 271.186 155.725C255.494 172.205 234.21 181.464 212.018 181.464C189.825 181.464 168.542 172.205 152.849 155.725C137.737 139.854 129.002 118.537 128.377 96.1669C128.337 94.7419 129.496 93.5856 130.922 93.5856V93.5856C132.348 93.5856 133.499 94.742 133.542 96.167C134.165 117.099 142.356 137.037 156.5 151.891C171.224 167.355 191.194 176.582 212.018 176.582C232.841 176.582 252.812 167.355 267.536 151.891C281.68 137.037 289.87 117.099 290.494 96.167C290.536 94.742 291.688 93.5856 293.114 93.5856V93.5856Z" fill="#222831"/>
<rect x="119.043" y="181.464" width="185.949" height="4.88214" rx="2.44107" fill="#222831"/>
<ellipse cx="118.811" cy="183.661" rx="5.8109" ry="6.10267" fill="#2B83EA"/>
<ellipse cx="304.76" cy="183.661" rx="5.8109" ry="6.10267" fill="#2B83EA"/>
<path d="M193.616 54.5797C194.599 56.9817 195.863 60.5803 196.854 65.1236H203.46C204.648 65.1236 205.611 66.1348 205.611 67.3826H209.914C209.914 66.1351 210.877 65.1236 212.065 65.1236L227.276 65.123C228.267 60.58 229.531 56.9814 230.514 54.5797L193.616 54.5797Z" fill="#F2EBD9"/>
<path d="M205.611 67.3827C205.611 68.6308 204.647 69.642 203.459 69.642H197.683C197.757 70.1361 197.829 70.6349 197.894 71.1446C199.265 81.8738 198.709 98.2045 188.564 115.782C199.518 127.884 206.024 143.638 206.931 160.343C206.957 160.813 206.842 161.279 206.603 161.678C205.954 162.758 205.611 164.006 205.611 165.286C205.611 168.231 207.409 170.742 209.913 171.675V122.481C207.409 121.549 205.611 119.037 205.611 116.092C205.611 112.355 208.506 109.314 212.064 109.314C215.623 109.314 218.518 112.355 218.518 116.092C218.518 119.037 216.72 121.549 214.216 122.481V171.675C216.72 170.742 218.518 168.231 218.518 165.285C218.518 164.005 218.175 162.757 217.526 161.677C217.287 161.279 217.173 160.813 217.198 160.343C218.105 143.638 224.611 127.884 235.565 115.781C225.42 98.2042 224.864 81.8735 226.235 71.1443C226.3 70.6343 226.372 70.1352 226.446 69.6411L212.064 69.642C210.876 69.642 209.913 68.6308 209.913 67.3827H205.611ZM206.97 76.3154C207.582 90.0163 204.684 103.353 198.356 115.955C197.802 117.058 196.5 117.48 195.45 116.899C194.399 116.317 193.996 114.95 194.551 113.847C200.515 101.968 203.248 89.412 202.672 76.5271C202.616 75.2806 203.533 74.223 204.72 74.1642C204.754 74.1627 204.789 74.1618 204.822 74.1618C205.964 74.1621 206.916 75.1053 206.97 76.3154Z" fill="#9FD3DE"/>
<path d="M233.934 50.061C233.942 50.061 236.475 50.061 236.475 50.061L238.483 39.5186L185.647 39.5186L187.655 50.061L233.934 50.061Z" fill="#274B6D"/>
<path d="M180.913 37.7025L183.781 52.7635C183.982 53.8196 184.865 54.5796 185.891 54.5796L188.882 54.5796C190.014 57.0338 192.579 63.3216 193.654 71.9421C195.513 86.8453 192.276 101.291 184.034 114.878C183.491 115.772 183.613 116.94 184.327 117.69C195.103 129.007 201.576 143.984 202.596 159.928C201.752 161.57 201.309 163.407 201.309 165.286C201.308 171.515 206.133 176.582 212.065 176.582C217.996 176.582 222.821 171.515 222.821 165.286C222.821 163.407 222.378 161.57 221.534 159.928C222.554 143.984 229.026 129.007 239.803 117.69C240.516 116.94 240.638 115.772 240.096 114.878C231.854 101.291 228.617 86.845 230.475 71.9421C231.55 63.3198 234.116 57.0317 235.248 54.5796H238.238C239.264 54.5796 240.147 53.8196 240.348 52.7635L243.216 37.7025C243.342 37.0388 243.179 36.3505 242.77 35.8269C242.362 35.3037 241.751 35.0001 241.107 35.0001H183.022C182.378 35.0001 181.768 35.3037 181.359 35.8269C180.95 36.3502 180.787 37.0388 180.913 37.7025ZM238.483 39.5186L236.475 50.0611H233.942C233.934 50.0611 187.655 50.0611 187.655 50.0611L185.647 39.5186H238.483ZM227.276 65.123L212.065 65.1236C210.877 65.1236 209.914 66.1351 209.914 67.3826C209.914 68.6309 210.877 69.6422 212.065 69.6422L226.446 69.6416C226.372 70.1359 226.301 70.6347 226.236 71.1447C224.865 81.8739 225.421 98.2047 235.565 115.782C224.611 127.884 218.105 143.638 217.198 160.343C217.173 160.813 217.288 161.279 217.527 161.678C218.176 162.758 218.519 164.006 218.519 165.286C218.519 168.231 216.72 170.743 214.216 171.675V122.481C216.72 121.549 218.519 119.037 218.519 116.092C218.519 112.355 215.624 109.314 212.065 109.314C208.506 109.314 205.611 112.355 205.611 116.092C205.611 119.037 207.41 121.549 209.914 122.481V171.675C207.41 170.742 205.611 168.231 205.611 165.286C205.611 164.005 205.954 162.758 206.603 161.677C206.842 161.279 206.957 160.813 206.931 160.343C206.025 143.638 199.519 127.884 188.564 115.782C198.709 98.2044 199.265 81.8736 197.894 71.1444C197.829 70.6347 197.757 70.1356 197.683 69.6418H203.459C204.648 69.6418 205.611 68.6306 205.611 67.3826C205.611 66.1345 204.648 65.1233 203.459 65.1233H196.854C195.863 60.58 194.599 56.9814 193.616 54.5793H230.514C229.531 56.9814 228.267 60.58 227.276 65.123ZM212.065 118.351C210.878 118.351 209.913 117.338 209.913 116.092C209.913 114.846 210.878 113.833 212.065 113.833C213.251 113.833 214.216 114.846 214.216 116.092C214.216 117.338 213.251 118.351 212.065 118.351Z" fill="#222831"/>
<path d="M212.065 118.351C210.878 118.351 209.913 117.338 209.913 116.092C209.913 114.846 210.878 113.833 212.065 113.833C213.251 113.833 214.216 114.846 214.216 116.092C214.216 117.338 213.251 118.351 212.065 118.351Z" fill="white"/>
<path d="M204.72 74.1645C203.534 74.223 202.617 75.2809 202.672 76.5274C203.248 89.412 200.516 101.968 194.551 113.847C193.997 114.951 194.399 116.317 195.45 116.899C196.501 117.481 197.802 117.058 198.356 115.955C204.685 103.353 207.583 90.0169 206.97 76.3157C206.916 75.1053 205.965 74.1624 204.823 74.1624C204.789 74.1621 204.755 74.163 204.72 74.1645Z" fill="white"/>
</svg>
