<svg width="433" height="311" viewBox="0 0 433 311" fill="none" xmlns="http://www.w3.org/2000/svg">
<path d="M321.795 43.3281H308.609C305.734 43.3281 303.404 45.6585 303.404 48.5332V188.722C303.404 191.597 305.734 193.927 308.609 193.927H321.795C324.67 193.927 327 191.597 327 188.722V48.5332C327 45.6585 324.67 43.3281 321.795 43.3281Z" fill="#D0CDCB"/>
<path d="M115.328 175.536V188.722C115.328 191.597 117.659 193.927 120.533 193.927H321.795C324.67 193.927 327 191.597 327 188.722V175.536C327 172.662 324.67 170.331 321.795 170.331H120.533C117.659 170.331 115.328 172.662 115.328 175.536Z" fill="#D0CDCB"/>
<path d="M309.997 35H112.205C109.33 35 107 37.3304 107 40.205V180.394C107 183.269 109.33 185.599 112.205 185.599H309.997C312.872 185.599 315.202 183.269 315.202 180.394V40.205C315.202 37.3304 312.872 35 309.997 35Z" fill="#222831"/>
<path d="M308.262 59.2902H113.94C112.024 59.2902 110.47 60.8437 110.47 62.7602V178.659C110.47 180.576 112.024 182.129 113.94 182.129H308.262C310.178 182.129 311.732 180.576 311.732 178.659V62.7602C311.732 60.8437 310.178 59.2902 308.262 59.2902Z" fill="#EEEEEE"/>
<rect x="129.555" y="77.6814" width="2.77603" height="52.0505" rx="1.38801" transform="rotate(-90 129.555 77.6814)" fill="#E647C3"/>
<rect x="129.555" y="85.6625" width="2.77603" height="41.6404" rx="1.38801" transform="rotate(-90 129.555 85.6625)" fill="#E647C3"/>
<rect x="141.7" y="120.016" width="2.77603" height="13.8801" rx="1.38801" transform="rotate(-90 141.7 120.016)" fill="#E647C3"/>
<rect x="129.555" y="98.8485" width="2.77603" height="20.8202" rx="1.38801" transform="rotate(-90 129.555 98.8485)" fill="#59A9F2"/>
<rect x="160.785" y="120.016" width="2.77603" height="20.8202" rx="1.38801" transform="rotate(-90 160.785 120.016)" fill="#59A9F2"/>
<rect x="231.574" y="120.016" width="2.77603" height="20.8202" rx="1.38801" transform="rotate(-90 231.574 120.016)" fill="#87E4EA"/>
<rect x="257.599" y="120.016" width="2.77603" height="10.4101" rx="1.38801" transform="rotate(-90 257.599 120.016)" fill="#87E4EA"/>
<rect x="155.58" y="133.202" width="2.77603" height="13.8801" rx="1.38801" transform="rotate(-90 155.58 133.202)" fill="#87E4EA"/>
<rect x="141.7" y="146.388" width="2.77603" height="17.3502" rx="1.38801" transform="rotate(-90 141.7 146.388)" fill="#87E4EA"/>
<rect x="174.666" y="133.202" width="2.77603" height="13.8801" rx="1.38801" transform="rotate(-90 174.666 133.202)" fill="#87E4EA"/>
<rect x="155.58" y="98.8485" width="2.77603" height="27.7603" rx="1.38801" transform="rotate(-90 155.58 98.8485)" fill="#F3EE75"/>
<rect x="164.256" y="146.388" width="2.77603" height="17.3502" rx="1.38801" transform="rotate(-90 164.256 146.388)" fill="#F3EE75"/>
<rect x="176.401" y="85.6625" width="2.77603" height="52.0505" rx="1.38801" transform="rotate(-90 176.401 85.6625)" fill="#59A9F2"/>
<rect x="233.656" y="85.6625" width="2.77603" height="20.8202" rx="1.38801" transform="rotate(-90 233.656 85.6625)" fill="#12EBB7"/>
<rect x="141.7" y="112.035" width="2.77603" height="24.2902" rx="1.38801" transform="rotate(-90 141.7 112.035)" fill="#12EBB7"/>
<rect x="171.196" y="112.035" width="2.77603" height="24.2902" rx="1.38801" transform="rotate(-90 171.196 112.035)" fill="#12EBB7"/>
<rect x="186.811" y="77.6814" width="2.77603" height="38.1703" rx="1.38801" transform="rotate(-90 186.811 77.6814)" fill="#FD7013"/>
<rect x="231.574" y="112.035" width="2.77603" height="24.2902" rx="1.38801" transform="rotate(-90 231.574 112.035)" fill="#FD7013"/>
<rect x="261.069" y="112.035" width="2.77603" height="13.8801" rx="1.38801" transform="rotate(-90 261.069 112.035)" fill="#FD7013"/>
<rect x="280.155" y="112.035" width="2.77603" height="17.3502" rx="1.38801" transform="rotate(-90 280.155 112.035)" fill="#FD7013"/>
<path d="M249.527 102.854C249.526 101.399 249.216 100.113 248.586 99.0096C247.968 97.9248 247.042 97.0153 245.801 96.2963C235.552 90.3869 225.293 84.4951 215.047 78.5798C212.285 76.9849 209.607 77.0432 206.865 78.6606C202.786 81.0664 182.362 92.768 176.276 96.2929C173.769 97.7441 172.55 99.9645 172.549 102.851C172.545 114.735 172.549 126.62 172.545 138.504C172.546 139.927 172.844 141.188 173.445 142.275C174.064 143.393 175.002 144.327 176.272 145.062C182.359 148.588 202.785 160.288 206.864 162.694C209.607 164.313 212.285 164.371 215.048 162.776C225.294 156.86 235.554 150.968 245.804 145.059C247.074 144.324 248.013 143.389 248.631 142.272C249.232 141.185 249.531 139.924 249.531 138.501C249.531 138.501 249.531 114.739 249.527 102.854Z" fill="#5C8DBC"/>
<path d="M211.156 120.562L173.445 142.275C174.063 143.393 175.002 144.327 176.272 145.063C182.359 148.588 202.785 160.288 206.864 162.694C209.607 164.313 212.285 164.371 215.048 162.776C225.294 156.86 235.553 150.969 245.804 145.059C247.074 144.324 248.013 143.389 248.631 142.272L211.156 120.562Z" fill="#1A4674"/>
<path d="M199.987 126.994C202.181 130.824 206.306 133.408 211.038 133.408C215.8 133.408 219.948 130.792 222.131 126.92L211.156 120.562L199.987 126.994Z" fill="#1A4674"/>
<path d="M249.527 102.854C249.526 101.399 249.215 100.113 248.586 99.0096L211.156 120.562L248.631 142.272C249.232 141.185 249.53 139.924 249.531 138.501C249.531 138.501 249.531 114.739 249.527 102.854Z" fill="#1B598E"/>
<path d="M247.467 122.114H244.538V125.043H241.609V122.114H238.681V119.186H241.609V116.257H244.538V119.186H247.467V122.114ZM236.781 122.114H233.853V125.043H230.924V122.114H227.996V119.186H230.924V116.257H233.853V119.186H236.781V122.114Z" fill="white"/>
<path d="M222.131 126.92C219.948 130.792 215.799 133.408 211.038 133.408C206.306 133.408 202.18 130.824 199.986 126.994C198.884 125.071 198.305 122.893 198.307 120.678C198.307 113.647 204.007 107.947 211.038 107.947C215.74 107.947 219.843 110.499 222.048 114.291L233.175 107.883C228.753 100.248 220.496 95.1121 211.038 95.1121C196.918 95.1121 185.472 106.558 185.472 120.678C185.472 125.31 186.704 129.653 188.858 133.4C193.27 141.075 201.55 146.243 211.038 146.243C220.543 146.243 228.837 141.055 233.242 133.357L222.131 126.92Z" fill="white"/>
<path d="M301.322 59.2902H308.262C310.178 59.2902 311.732 60.8437 311.732 62.7602V178.659C311.732 180.576 310.178 182.129 308.262 182.129H301.322V59.2902Z" fill="#DFDEDE"/>
<path d="M110.47 62.7602C110.47 60.8437 112.024 59.2902 113.94 59.2902H120.88V182.129H113.94C112.024 182.129 110.47 180.576 110.47 178.659V62.7602Z" fill="white"/>
<path d="M126.953 53.3911C130.306 53.3911 133.025 50.6723 133.025 47.3185C133.025 43.9647 130.306 41.246 126.953 41.246C123.599 41.246 120.88 43.9647 120.88 47.3185C120.88 50.6723 123.599 53.3911 126.953 53.3911Z" fill="#FD7013"/>
<path d="M146.038 53.3911C149.392 53.3911 152.11 50.6723 152.11 47.3185C152.11 43.9647 149.392 41.246 146.038 41.246C142.684 41.246 139.965 43.9647 139.965 47.3185C139.965 50.6723 142.684 53.3911 146.038 53.3911Z" fill="#DFDEDE"/>
<path d="M165.123 53.3911C168.477 53.3911 171.196 50.6723 171.196 47.3185C171.196 43.9647 168.477 41.246 165.123 41.246C161.769 41.246 159.051 43.9647 159.051 47.3185C159.051 50.6723 161.769 53.3911 165.123 53.3911Z" fill="white"/>
</svg>
