<svg width="433" height="311" viewBox="0 0 433 311" fill="none" xmlns="http://www.w3.org/2000/svg">
<rect x="135.818" y="43.3866" width="175.182" height="116.016" rx="7" fill="#D0CDCB"/>
<rect x="139.293" y="46.8812" width="168.231" height="109.027" rx="7" fill="#D0CDCB"/>
<rect x="135.818" y="131.796" width="175.182" height="4.89224" rx="2.44612" fill="#D0CDCB"/>
<path d="M139.293 135.291H307.524V148.908C307.524 152.774 304.39 155.908 300.524 155.908H146.293C142.427 155.908 139.293 152.774 139.293 148.908V135.291Z" fill="#D0CDCB"/>
<path d="M302.658 135.291H307.524V151.042C307.524 153.73 305.346 155.908 302.658 155.908V155.908V135.291Z" fill="#D0CDCB"/>
<path d="M139.293 135.291H144.16V155.908V155.908C141.472 155.908 139.293 153.73 139.293 151.042V135.291Z" fill="#D0CDCB"/>
<path d="M302.658 46.8812V46.8812C305.346 46.8812 307.524 49.0599 307.524 51.7474V131.796H302.658V46.8812Z" fill="#D0CDCB"/>
<path d="M139.293 51.7474C139.293 49.0599 141.472 46.8812 144.16 46.8812V46.8812V131.796H139.293V51.7474Z" fill="#D0CDCB"/>
<path d="M147.636 70.2678C147.636 61.9836 154.351 55.2678 162.636 55.2678H284.182C292.467 55.2678 299.182 61.9836 299.182 70.2678V131.796H147.636V70.2678Z" fill="#D0CDCB"/>
<path d="M152.502 65.7622C152.502 61.8962 155.636 58.7622 159.502 58.7622H287.316C291.182 58.7622 294.316 61.8962 294.316 65.7622V131.796H152.502V65.7622Z" fill="#D0CDCB"/>
<path d="M290.84 58.7622V58.7622C293.528 58.7622 295.707 60.9409 295.707 63.6284V131.796H290.84V58.7622Z" fill="#D0CDCB"/>
<path d="M151.112 63.6284C151.112 60.9409 153.29 58.7622 155.978 58.7622V58.7622V131.796H151.112V63.6284Z" fill="#D0CDCB"/>
<path d="M214.719 145.774C214.719 146.739 215.501 147.521 216.466 147.521H230.351C231.316 147.521 232.098 146.739 232.098 145.774V145.774C232.098 144.809 231.316 144.027 230.351 144.027H216.466C215.501 144.027 214.719 144.809 214.719 145.774V145.774Z" fill="#D0CDCB"/>
<path d="M181.004 190.165C181.004 186.299 184.138 183.165 188.004 183.165H258.814C262.68 183.165 265.814 186.299 265.814 190.165V197.938C265.814 199.043 264.919 199.938 263.814 199.938H183.004C181.899 199.938 181.004 199.043 181.004 197.938V190.165Z" fill="#D0CDCB"/>
<path d="M185.87 193.659C185.87 189.793 189.004 186.659 192.87 186.659H253.948C257.814 186.659 260.948 189.793 260.948 193.659V196.444H185.87V193.659Z" fill="#D0CDCB"/>
<path d="M184.479 191.526C184.479 188.838 186.658 186.659 189.346 186.659V186.659V196.444H184.479V191.526Z" fill="#D0CDCB"/>
<path d="M257.472 186.659V186.659C260.16 186.659 262.338 188.838 262.338 191.526V196.444H257.472V186.659Z" fill="#D0CDCB"/>
<path d="M200.816 185.611C199.856 185.611 199.078 184.833 199.078 183.873V157.646C199.078 156.686 199.856 155.908 200.816 155.908V155.908C201.776 155.908 202.554 156.686 202.554 157.646V183.873C202.554 184.833 201.776 185.611 200.816 185.611V185.611Z" fill="#D0CDCB"/>
<path d="M246.002 185.611C245.042 185.611 244.264 184.833 244.264 183.873V157.646C244.264 156.686 245.042 155.908 246.002 155.908V155.908C246.962 155.908 247.74 156.686 247.74 157.646V183.873C247.74 184.833 246.962 185.611 246.002 185.611V185.611Z" fill="#D0CDCB"/>
<rect x="202.554" y="160.8" width="41.71" height="22.3645" fill="#D0CDCB"/>
<rect x="202.554" y="159.402" width="41.71" height="4.89224" fill="#D0CDCB"/>
<path d="M214.222 124.122L214.222 124.112C215.307 123.874 216.321 123.443 217.227 122.856L217.237 122.866C218.004 123.62 219.238 123.615 219.999 122.85C220.37 122.477 220.574 121.982 220.574 121.454C220.574 120.934 220.375 120.445 220.014 120.074L220.005 120.063C220.588 119.153 221.017 118.134 221.253 117.043L221.263 117.043C222.336 117.031 223.205 116.15 223.205 115.068C223.205 113.987 222.336 113.106 221.263 113.094L221.253 113.094C221.016 112.003 220.588 110.984 220.005 110.073L220.014 110.063C220.764 109.292 220.759 108.051 219.999 107.286C219.238 106.522 218.004 106.517 217.237 107.271L217.227 107.28C216.321 106.694 215.307 106.263 214.222 106.025L214.222 106.015C214.21 104.937 213.333 104.063 212.258 104.063C211.182 104.063 210.306 104.937 210.294 106.015L210.294 106.025C209.209 106.263 208.195 106.694 207.29 107.28L207.279 107.271C206.512 106.517 205.278 106.522 204.518 107.286C204.147 107.659 203.942 108.155 203.942 108.683C203.942 109.203 204.141 109.692 204.502 110.063L204.512 110.073C203.928 110.984 203.5 112.003 203.263 113.094L203.253 113.094C202.18 113.106 201.311 113.987 201.311 115.068V115.069C201.311 115.596 201.515 116.092 201.886 116.465C202.252 116.832 202.737 117.037 203.253 117.043L203.263 117.043C203.5 118.134 203.928 119.153 204.511 120.063L204.502 120.074C203.752 120.845 203.757 122.086 204.517 122.85C205.278 123.615 206.512 123.62 207.279 122.866L207.289 122.856C208.195 123.443 209.209 123.874 210.294 124.112L210.294 124.122C210.306 125.2 211.182 126.074 212.258 126.074C213.334 126.074 214.21 125.2 214.222 124.122ZM204.982 115.068C204.982 111.028 208.239 107.753 212.258 107.753C216.277 107.753 219.535 111.028 219.535 115.068C219.535 119.108 216.277 122.384 212.258 122.384C208.239 122.384 204.982 119.108 204.982 115.068Z" fill="#D0CDCB"/>
<path d="M204.982 115.068C204.982 111.028 208.239 107.753 212.258 107.753C216.277 107.753 219.535 111.028 219.535 115.068C219.535 119.108 216.277 122.384 212.258 122.384C208.239 122.384 204.982 119.108 204.982 115.068Z" fill="#D0CDCB"/>
<path d="M199.562 95.5783L200.664 94.4706C201.74 95.1027 202.885 95.5807 204.08 95.8981L204.08 97.4596C204.08 97.996 204.513 98.4306 205.046 98.4306L210.197 98.4306C210.731 98.4306 211.163 97.996 211.163 97.4596V95.8981C212.359 95.5807 213.503 95.1026 214.579 94.4706L215.681 95.5783C216.058 95.9575 216.67 95.9575 217.047 95.5783L220.69 91.9162C221.067 91.5368 221.067 90.9221 220.69 90.5428L219.588 89.4353C220.217 88.3534 220.692 87.2033 221.008 86.0011H222.561C223.094 86.0011 223.527 85.5664 223.527 85.03V79.851C223.527 79.3145 223.094 78.8799 222.561 78.8799H221.008C220.692 77.6777 220.217 76.5276 219.588 75.4455L220.69 74.338C220.871 74.1558 220.973 73.9089 220.973 73.6513C220.973 73.3936 220.871 73.1468 220.69 72.9645L217.047 69.3024C216.67 68.9232 216.058 68.9232 215.681 69.3024L214.579 70.4101C213.503 69.778 212.359 69.3 211.164 68.9826V67.4211C211.164 66.8847 210.731 66.4501 210.198 66.4501H205.046C204.513 66.4501 204.08 66.8847 204.08 67.4211V68.9826C202.885 69.3 201.74 69.7781 200.664 70.4101L199.563 69.3024C199.185 68.9232 198.574 68.9232 198.197 69.3024L194.554 72.9644C194.373 73.1466 194.271 73.3935 194.271 73.6511C194.271 73.9088 194.373 74.1556 194.554 74.3379L195.656 75.4454C195.027 76.5274 194.552 77.6776 194.236 78.8798H192.683C192.149 78.8798 191.717 79.3144 191.717 79.8508V85.0299C191.717 85.5663 192.149 86.0009 192.683 86.0009H194.236C194.552 87.2031 195.027 88.3533 195.656 89.4352L194.554 90.5427C194.177 90.9221 194.177 91.5368 194.554 91.916L198.197 95.5781C198.574 95.9574 199.185 95.9574 199.562 95.5783ZM205.238 94.1762C203.748 93.872 202.341 93.2843 201.057 92.4294C200.674 92.1743 200.165 92.2259 199.84 92.5523L198.88 93.5183L196.603 91.2294L197.564 90.2635C197.889 89.9367 197.94 89.4256 197.686 89.0408C196.836 87.7496 196.251 86.3352 195.948 84.8367C195.857 84.384 195.461 84.0588 195.002 84.0588H193.649V80.8219H195.002C195.461 80.8219 195.857 80.4965 195.948 80.044C196.251 78.5455 196.836 77.1309 197.686 75.8398C197.94 75.4549 197.889 74.9436 197.564 74.617L196.603 73.6511L198.88 71.3624L199.84 72.3284C200.165 72.6548 200.674 72.7063 201.057 72.4513C202.341 71.5964 203.748 71.0085 205.238 70.7043C205.688 70.6125 206.012 70.2145 206.012 69.7526V68.3922H209.231V69.7527C209.231 70.2145 209.555 70.6126 210.005 70.7044C211.496 71.0088 212.903 71.5966 214.187 72.4514C214.57 72.7065 215.078 72.6549 215.403 72.3285L216.364 71.3625L218.64 73.6513L217.68 74.6172C217.355 74.9437 217.304 75.4551 217.557 75.8399C218.408 77.1311 218.992 78.5455 219.295 80.0441C219.386 80.4967 219.782 80.822 220.241 80.822H221.595V84.0589H220.242C219.782 84.0589 219.387 84.3842 219.295 84.8368C218.993 86.3354 218.408 87.7498 217.558 89.0409C217.304 89.4258 217.355 89.9371 217.68 90.2637L218.641 91.2296L216.364 93.5184L215.403 92.5524C215.079 92.226 214.57 92.1745 214.187 92.4295C212.903 93.2846 211.496 93.8723 210.005 94.1763C209.555 94.2682 209.232 94.6661 209.232 95.1281V96.4885L206.012 96.4885L206.012 95.1278C206.012 94.666 205.688 94.2681 205.238 94.1762Z" fill="#D0CDCB"/>
<path d="M205.238 94.1762C203.748 93.872 202.341 93.2843 201.057 92.4294C200.674 92.1743 200.165 92.2259 199.84 92.5523L198.88 93.5183L196.603 91.2294L197.564 90.2635C197.889 89.9367 197.94 89.4256 197.686 89.0408C196.836 87.7496 196.251 86.3352 195.948 84.8367C195.857 84.384 195.461 84.0588 195.002 84.0588H193.649V80.8219H195.002C195.461 80.8219 195.857 80.4965 195.948 80.044C196.251 78.5455 196.836 77.1309 197.686 75.8398C197.94 75.4549 197.889 74.9436 197.564 74.617L196.603 73.6511L198.88 71.3624L199.84 72.3284C200.165 72.6548 200.674 72.7063 201.057 72.4513C202.341 71.5964 203.748 71.0085 205.238 70.7043C205.688 70.6125 206.012 70.2145 206.012 69.7526V68.3922H209.231V69.7527C209.231 70.2145 209.555 70.6126 210.005 70.7044C211.496 71.0088 212.903 71.5966 214.187 72.4514C214.57 72.7065 215.078 72.6549 215.403 72.3285L216.364 71.3625L218.64 73.6513L217.68 74.6172C217.355 74.9437 217.304 75.4551 217.557 75.8399C218.408 77.1311 218.992 78.5455 219.295 80.0441C219.386 80.4967 219.782 80.822 220.241 80.822H221.595V84.0589H220.242C219.782 84.0589 219.387 84.3842 219.295 84.8368C218.993 86.3354 218.408 87.7498 217.558 89.0409C217.304 89.4258 217.355 89.9371 217.68 90.2637L218.641 91.2296L216.364 93.5184L215.403 92.5524C215.079 92.226 214.57 92.1745 214.187 92.4295C212.903 93.2846 211.496 93.8723 210.005 94.1763C209.555 94.2682 209.232 94.6661 209.232 95.1281V96.4885L206.012 96.4885L206.012 95.1278C206.012 94.666 205.688 94.2681 205.238 94.1762Z" fill="#D0CDCB"/>
<path d="M216.314 82.4403C216.314 77.6212 212.415 73.7007 207.621 73.7007C202.828 73.7007 198.928 77.6212 198.928 82.4403C198.928 87.2594 202.828 91.1799 207.621 91.1799C212.415 91.1799 216.314 87.2594 216.314 82.4403ZM200.86 82.4403C200.86 78.6922 203.893 75.6428 207.621 75.6428C211.35 75.6428 214.383 78.6922 214.383 82.4403C214.383 86.1884 211.35 89.2378 207.621 89.2378C203.893 89.2378 200.86 86.1884 200.86 82.4403Z" fill="#D0CDCB"/>
<path d="M200.86 82.4403C200.86 78.6922 203.893 75.6428 207.621 75.6428C211.35 75.6428 214.383 78.6922 214.383 82.4403C214.383 86.1884 211.35 89.2378 207.621 89.2378C203.893 89.2378 200.86 86.1884 200.86 82.4403Z" fill="#D0CDCB"/>
<path d="M196.739 111.961V110.793C197.989 110.622 199.136 110.127 200.095 109.393L200.918 110.22C201.296 110.6 201.907 110.6 202.284 110.22C202.662 109.841 202.662 109.226 202.284 108.847L201.461 108.019C202.191 107.056 202.684 105.902 202.854 104.645H204.016C204.549 104.645 204.981 104.211 204.981 103.674C204.981 103.138 204.549 102.703 204.016 102.703H202.854C202.684 101.447 202.191 100.293 201.461 99.3293L202.284 98.5017C202.662 98.1225 202.662 97.5076 202.284 97.1285C201.907 96.7491 201.296 96.7491 200.918 97.1284L200.095 97.956C199.136 97.2218 197.989 96.7265 196.739 96.5559V95.3879C196.739 94.8515 196.307 94.4169 195.773 94.4169C195.24 94.4169 194.807 94.8515 194.807 95.3879V96.5559C193.558 96.7265 192.41 97.2218 191.451 97.956L190.628 97.1284C190.251 96.7491 189.639 96.7491 189.262 97.1285C189.073 97.318 188.979 97.5666 188.979 97.8151C188.979 98.0636 189.073 98.3122 189.262 98.5018L190.085 99.3294C189.355 100.293 188.862 101.447 188.693 102.703H187.531C186.997 102.703 186.565 103.138 186.565 103.675C186.565 104.211 186.997 104.646 187.531 104.646H188.693C188.862 105.902 189.355 107.056 190.085 108.02L189.262 108.847C189.073 109.037 188.979 109.285 188.979 109.534C188.979 109.782 189.073 110.031 189.262 110.221C189.639 110.6 190.251 110.6 190.628 110.221L191.451 109.393C192.41 110.127 193.558 110.623 194.807 110.793V111.961C194.807 112.498 195.24 112.932 195.773 112.932C196.307 112.932 196.739 112.497 196.739 111.961ZM190.557 103.674C190.557 100.783 192.897 98.4306 195.773 98.4306C198.649 98.4306 200.989 100.783 200.989 103.674C200.989 106.566 198.649 108.918 195.773 108.918C192.897 108.918 190.557 106.566 190.557 103.674Z" fill="#D0CDCB"/>
<path d="M190.557 103.674C190.557 100.783 192.897 98.4306 195.773 98.4306C198.649 98.4306 200.989 100.783 200.989 103.674C200.989 106.566 198.649 108.918 195.773 108.918C192.897 108.918 190.557 106.566 190.557 103.674Z" fill="#D0CDCB"/>
<path d="M212.194 82.4404C212.194 79.9059 210.143 77.844 207.622 77.844C205.101 77.844 203.05 79.9059 203.05 82.4404C203.05 84.9749 205.101 87.0368 207.622 87.0368C210.143 87.0368 212.194 84.9749 212.194 82.4404ZM204.982 82.4404C204.982 80.9768 206.166 79.7861 207.622 79.7861C209.078 79.7861 210.262 80.9768 210.262 82.4404C210.262 83.904 209.078 85.0946 207.622 85.0946C206.166 85.0946 204.982 83.904 204.982 82.4404Z" fill="#D0CDCB"/>
<path d="M204.982 82.4404C204.982 80.9768 206.166 79.7861 207.622 79.7861C209.078 79.7861 210.262 80.9768 210.262 82.4404C210.262 83.904 209.078 85.0946 207.622 85.0946C206.166 85.0946 204.982 83.904 204.982 82.4404Z" fill="#D0CDCB"/>
<path d="M198.8 103.674C198.8 101.997 197.442 100.632 195.773 100.632C194.105 100.632 192.747 101.997 192.747 103.674C192.747 105.352 194.105 106.717 195.773 106.717C197.442 106.717 198.8 105.352 198.8 103.674ZM194.679 103.674C194.679 103.068 195.17 102.574 195.773 102.574C196.377 102.574 196.868 103.068 196.868 103.674C196.868 104.281 196.377 104.775 195.773 104.775C195.17 104.775 194.679 104.281 194.679 103.674Z" fill="#D0CDCB"/>
<path d="M194.679 103.674C194.679 103.068 195.17 102.574 195.773 102.574C196.377 102.574 196.868 103.068 196.868 103.674C196.868 104.281 196.377 104.775 195.773 104.775C195.17 104.775 194.679 104.281 194.679 103.674Z" fill="#D0CDCB"/>
<path d="M217.345 115.068C217.345 112.248 215.063 109.954 212.258 109.954C209.453 109.954 207.171 112.248 207.171 115.068C207.171 117.888 209.453 120.183 212.258 120.183C215.063 120.183 217.345 117.888 217.345 115.068ZM209.103 115.068C209.103 113.319 210.518 111.896 212.258 111.896C213.998 111.896 215.413 113.319 215.413 115.068C215.413 116.817 213.998 118.24 212.258 118.24C210.518 118.24 209.103 116.817 209.103 115.068Z" fill="#D0CDCB"/>
<path d="M209.103 115.068C209.103 113.319 210.518 111.896 212.258 111.896C213.998 111.896 215.413 113.319 215.413 115.068C215.413 116.817 213.998 118.24 212.258 118.24C210.518 118.24 209.103 116.817 209.103 115.068Z" fill="#D0CDCB"/>
<path d="M259.365 117.139L250.515 108.241C250.23 107.954 249.767 107.954 249.481 108.241L249.127 108.597L248.259 107.724C252.486 102.212 252.089 94.2461 247.065 89.1959C241.61 83.7114 232.734 83.7114 227.279 89.1959C221.823 94.6804 221.823 103.604 227.279 109.089C230.006 111.831 233.589 113.202 237.172 113.202C240.187 113.202 243.203 112.231 245.708 110.289L246.576 111.162L246.222 111.518C246.085 111.656 246.008 111.843 246.008 112.038C246.008 112.233 246.085 112.42 246.222 112.557L255.072 121.455C255.664 122.05 256.442 122.347 257.219 122.347C257.996 122.347 258.774 122.05 259.366 121.455C260.549 120.265 260.549 118.329 259.365 117.139ZM228.313 108.049C225.946 105.67 224.643 102.507 224.643 99.1425C224.643 95.778 225.946 92.6147 228.313 90.2357C230.679 87.8566 233.825 86.5463 237.172 86.5463C240.518 86.5463 243.665 87.8566 246.031 90.2357C248.398 92.6148 249.701 95.778 249.701 99.1425C249.701 102.507 248.398 105.67 246.031 108.049C243.665 110.428 240.518 111.739 237.172 111.739C233.825 111.739 230.679 110.428 228.313 108.049ZM246.821 109.328C246.903 109.25 246.985 109.17 247.065 109.089C247.146 109.008 247.225 108.926 247.304 108.843L248.093 109.637L247.61 110.122L246.821 109.328ZM258.331 120.415C257.718 121.032 256.72 121.032 256.107 120.415L254.322 118.621L247.774 112.038L249.998 109.801L253.782 113.605L258.331 118.179C258.945 118.795 258.945 119.799 258.331 120.415Z" fill="#D0CDCB"/>
<path d="M246.821 109.328C246.903 109.25 246.985 109.17 247.065 109.089C247.146 109.008 247.225 108.926 247.304 108.843L248.093 109.637L247.61 110.122L246.821 109.328Z" fill="#D0CDCB"/>
<path d="M228.313 108.049C225.946 105.67 224.643 102.507 224.643 99.1425C224.643 95.778 225.946 92.6147 228.313 90.2357C230.679 87.8566 233.825 86.5463 237.172 86.5463C240.518 86.5463 243.665 87.8566 246.031 90.2357C248.398 92.6148 249.701 95.778 249.701 99.1425C249.701 102.507 248.398 105.67 246.031 108.049C243.665 110.428 240.518 111.739 237.172 111.739C233.825 111.739 230.679 110.428 228.313 108.049Z" fill="#D0CDCB"/>
<path d="M249.998 109.801L247.774 112.038L254.322 118.621L253.782 113.605L249.998 109.801Z" fill="#D0CDCB"/>
<path d="M256.107 120.415C256.72 121.032 257.718 121.032 258.331 120.415C258.945 119.799 258.945 118.795 258.331 118.179L253.782 113.605L254.322 118.621L256.107 120.415Z" fill="#D0CDCB"/>
<path d="M244.94 91.3323C242.865 89.2461 240.106 88.0972 237.171 88.0972C234.237 88.0972 231.478 89.2461 229.403 91.3323C227.328 93.4184 226.185 96.1922 226.185 99.1426C226.185 102.093 227.328 104.867 229.403 106.953C231.478 109.039 234.237 110.188 237.171 110.188C240.106 110.188 242.865 109.039 244.94 106.953C247.015 104.867 248.158 102.093 248.158 99.1426C248.158 96.1921 247.015 93.4184 244.94 91.3323ZM243.906 105.913C242.107 107.721 239.715 108.717 237.171 108.717C234.628 108.717 232.236 107.722 230.437 105.913C226.724 102.18 226.724 96.1052 230.437 92.3719C232.236 90.5635 234.628 89.5675 237.171 89.5675C239.715 89.5675 242.107 90.5635 243.906 92.3719C247.619 96.1052 247.619 102.18 243.906 105.913Z" fill="#D0CDCB"/>
<path d="M243.906 105.913C242.107 107.721 239.715 108.717 237.171 108.717C234.628 108.717 232.236 107.722 230.437 105.913C226.724 102.18 226.724 96.1052 230.437 92.3719C232.236 90.5635 234.628 89.5675 237.171 89.5675C239.715 89.5675 242.107 90.5635 243.906 92.3719C247.619 96.1052 247.619 102.18 243.906 105.913Z" fill="#D0CDCB"/>
<path d="M241.619 91.7783C241.274 91.5673 240.824 91.6775 240.614 92.0244C240.404 92.3713 240.514 92.8236 240.859 93.0346C241.342 93.3299 241.792 93.6855 242.195 94.0917C242.338 94.2353 242.525 94.307 242.713 94.307C242.9 94.307 243.087 94.2353 243.23 94.0917C243.515 93.8045 243.515 93.3391 243.23 93.052C242.743 92.5631 242.201 92.1345 241.619 91.7783Z" fill="#D0CDCB"/>
<path d="M231.631 94.3069C231.818 94.3069 232.005 94.2351 232.148 94.0915C233.746 92.4849 236.035 91.7348 238.271 92.085C238.67 92.1475 239.044 91.8728 239.106 91.4716C239.168 91.0704 238.895 90.6946 238.496 90.632C235.8 90.2101 233.041 91.1146 231.114 93.0519C230.828 93.339 230.828 93.8044 231.114 94.0915C231.256 94.2351 231.444 94.3069 231.631 94.3069V94.3069Z" fill="#D0CDCB"/>
<path d="M233.418 105.209C232.96 104.922 232.533 104.581 232.148 104.193C231.862 103.906 231.399 103.906 231.114 104.193C230.828 104.48 230.828 104.946 231.114 105.233C231.577 105.699 232.092 106.111 232.644 106.457C232.764 106.532 232.898 106.568 233.03 106.568C233.274 106.568 233.513 106.445 233.651 106.222C233.865 105.878 233.76 105.424 233.418 105.209V105.209Z" fill="#D0CDCB"/>
<path d="M242.195 104.193C240.646 105.751 238.508 106.495 236.329 106.235C235.928 106.187 235.564 106.476 235.517 106.879C235.469 107.282 235.756 107.648 236.157 107.696C236.501 107.737 236.844 107.757 237.185 107.757C239.446 107.757 241.606 106.865 243.229 105.233C243.515 104.946 243.515 104.48 243.229 104.193C242.944 103.906 242.481 103.906 242.195 104.193V104.193Z" fill="#D0CDCB"/>
<path d="M232.983 97.6149C233.015 97.5541 233.07 97.5087 233.136 97.4887C233.202 97.4687 233.272 97.4757 233.333 97.5081L233.79 97.753C233.893 97.2586 234.137 96.8053 234.493 96.4487C234.862 96.0779 235.315 95.8419 235.79 95.7417L235.546 95.2829C235.53 95.2527 235.52 95.2196 235.516 95.1854C235.513 95.1513 235.516 95.1167 235.526 95.0838C235.535 95.0509 235.552 95.0203 235.573 94.9937C235.595 94.9671 235.621 94.9451 235.652 94.9289C235.682 94.9127 235.715 94.9026 235.749 94.8993C235.783 94.896 235.817 94.8995 235.85 94.9095C235.882 94.9196 235.913 94.9361 235.939 94.958C235.965 94.9799 235.987 95.0069 236.003 95.0373L236.348 95.6861C237.027 95.6916 237.676 95.9655 238.156 96.4487L238.339 96.2646C238.387 96.2158 238.415 96.1495 238.415 96.0805C238.415 96.0114 238.387 95.9452 238.339 95.8964L238.156 95.7123C238.107 95.6634 238.08 95.5972 238.08 95.5281C238.08 95.4591 238.107 95.3929 238.156 95.344C238.204 95.2952 238.27 95.2678 238.339 95.2678C238.407 95.2678 238.473 95.2952 238.522 95.344L238.705 95.5281C238.851 95.6746 238.933 95.8733 238.933 96.0805C238.933 96.2877 238.851 96.4863 238.705 96.6328L238.522 96.8169L238.888 97.1852L239.437 96.6328C239.486 96.584 239.552 96.5566 239.621 96.5566C239.689 96.5566 239.755 96.584 239.804 96.6328C239.852 96.6817 239.88 96.7479 239.88 96.8169C239.88 96.886 239.852 96.9522 239.804 97.0011L239.254 97.5534L239.621 97.9216L239.804 97.7375C239.949 97.591 240.147 97.5087 240.353 97.5087C240.559 97.5087 240.757 97.591 240.903 97.7375L241.086 97.9216C241.134 97.9705 241.162 98.0367 241.162 98.1057C241.162 98.1748 241.134 98.241 241.086 98.2899C241.037 98.3387 240.971 98.3661 240.903 98.3661C240.834 98.3661 240.768 98.3387 240.719 98.2899L240.536 98.1057C240.488 98.0569 240.422 98.0295 240.353 98.0295C240.284 98.0295 240.219 98.0569 240.17 98.1057L239.987 98.2899C240.473 98.7782 240.745 99.4404 240.745 100.131C240.745 100.822 240.473 101.484 239.987 101.972C239.501 102.46 238.842 102.735 238.156 102.735C237.469 102.735 236.81 102.46 236.324 101.972L236.141 102.156C236.093 102.205 236.065 102.271 236.065 102.34C236.065 102.409 236.093 102.476 236.141 102.524L236.324 102.709C236.373 102.757 236.4 102.824 236.4 102.893C236.4 102.962 236.373 103.028 236.324 103.077C236.276 103.126 236.21 103.153 236.141 103.153C236.072 103.153 236.007 103.126 235.958 103.077L235.775 102.893C235.629 102.746 235.547 102.548 235.547 102.34C235.547 102.133 235.629 101.935 235.775 101.788L235.958 101.604L235.592 101.236L235.042 101.788C234.994 101.837 234.928 101.864 234.859 101.864C234.79 101.864 234.725 101.837 234.676 101.788C234.627 101.739 234.6 101.673 234.6 101.604C234.6 101.535 234.627 101.469 234.676 101.42L235.225 100.867L234.859 100.499L234.676 100.683C234.53 100.83 234.333 100.912 234.127 100.912C233.921 100.912 233.723 100.83 233.577 100.683L233.394 100.499C233.346 100.45 233.318 100.384 233.318 100.315C233.318 100.246 233.346 100.18 233.394 100.131C233.443 100.082 233.509 100.055 233.577 100.055C233.646 100.055 233.712 100.082 233.76 100.131L233.943 100.315C233.992 100.364 234.058 100.391 234.127 100.391C234.195 100.391 234.261 100.364 234.31 100.315L234.493 100.131C233.993 99.6287 233.741 98.9718 233.734 98.3138L233.089 97.9669C233.029 97.9343 232.983 97.879 232.963 97.813C232.944 97.747 232.95 97.6757 232.983 97.6149ZM235.225 100.131L236.69 101.604C237.047 101.963 237.522 102.179 238.026 102.21C238.53 102.242 239.028 102.088 239.426 101.777L236.507 98.8422L235.225 100.131ZM236.874 98.474L239.793 101.409C240.102 101.008 240.256 100.507 240.224 100.001C240.192 99.4942 239.978 99.0168 239.621 98.6581L238.156 97.1852L236.874 98.474ZM237.789 96.8169C237.583 96.6094 237.336 96.448 237.063 96.3434C236.791 96.2388 236.5 96.1934 236.208 96.2101C235.7 96.2379 235.219 96.4541 234.859 96.8169C234.498 97.1787 234.283 97.6621 234.255 98.1739C234.239 98.4666 234.284 98.7595 234.388 99.0333C234.492 99.3072 234.653 99.5558 234.859 99.7628L237.789 96.8169Z" fill="#D0CDCB"/>
<path d="M236.874 98.474L239.793 101.409C240.102 101.008 240.256 100.507 240.224 100.001C240.192 99.4942 239.978 99.0168 239.621 98.6581L238.156 97.1852L236.874 98.474Z" fill="#D0CDCB"/>
<path d="M235.225 100.131L236.69 101.604C237.047 101.963 237.522 102.179 238.026 102.21C238.53 102.242 239.028 102.088 239.426 101.777L236.507 98.8422L235.225 100.131Z" fill="#D0CDCB"/>
<path d="M237.789 96.8169C237.583 96.6094 237.336 96.448 237.063 96.3434C236.791 96.2388 236.5 96.1934 236.208 96.2101C235.7 96.2379 235.219 96.4541 234.859 96.8169C234.498 97.1787 234.283 97.6621 234.255 98.1739C234.239 98.4666 234.284 98.7595 234.388 99.0333C234.492 99.3072 234.653 99.5558 234.859 99.7628L237.789 96.8169Z" fill="#D0CDCB"/>
<rect x="124" y="35" width="175.182" height="116.016" rx="7" fill="#222831"/>
<rect x="127.476" y="38.4945" width="168.231" height="109.027" rx="3" fill="#C6BAF9"/>
<rect x="124" y="123.41" width="175.182" height="4.89224" rx="2.44612" fill="#222831"/>
<path d="M127.476 126.904H295.707V144.521C295.707 146.178 294.363 147.521 292.707 147.521H130.476C128.819 147.521 127.476 146.178 127.476 144.521V126.904Z" fill="#96DCEC"/>
<path d="M290.84 126.904H295.707V144.521C295.707 146.178 294.363 147.521 292.707 147.521H290.84V126.904Z" fill="#82C9D9"/>
<path d="M127.476 126.904H132.342V147.521H130.476C128.819 147.521 127.476 146.178 127.476 144.521V126.904Z" fill="#C3E5EC"/>
<path d="M290.84 38.4945H292.707C294.363 38.4945 295.707 39.8377 295.707 41.4945V123.41H290.84V38.4945Z" fill="#ACA0E2"/>
<path d="M127.476 41.4945C127.476 39.8377 128.819 38.4945 130.476 38.4945H132.342V123.41H127.476V41.4945Z" fill="#D6CEF9"/>
<path d="M135.818 53.8812C135.818 50.0152 138.952 46.8812 142.818 46.8812H280.364C284.23 46.8812 287.364 50.0152 287.364 53.8812V123.41H135.818V53.8812Z" fill="#222831"/>
<path d="M140.684 53.3756C140.684 51.7188 142.027 50.3756 143.684 50.3756H279.498C281.155 50.3756 282.498 51.7188 282.498 53.3756V123.41H140.684V53.3756Z" fill="#D2ECFF"/>
<path d="M279.022 50.3756H280.888C282.545 50.3756 283.888 51.7188 283.888 53.3756V123.41H279.022V50.3756Z" fill="#A5D9FF"/>
<path d="M139.293 53.3756C139.293 51.7188 140.637 50.3756 142.293 50.3756H144.16V123.41H139.293V53.3756Z" fill="#E9F6FF"/>
<path d="M202.901 137.388C202.901 138.353 203.684 139.135 204.649 139.135H218.533C219.498 139.135 220.281 138.353 220.281 137.388V137.388C220.281 136.423 219.498 135.64 218.533 135.64H204.649C203.684 135.64 202.901 136.423 202.901 137.388V137.388Z" fill="#222831"/>
<path d="M169.186 181.778C169.186 177.912 172.32 174.778 176.186 174.778H246.996C250.862 174.778 253.996 177.912 253.996 181.778V189.552C253.996 190.656 253.101 191.552 251.996 191.552H171.186C170.081 191.552 169.186 190.656 169.186 189.552V181.778Z" fill="#222831"/>
<path d="M174.052 182.273C174.052 180.063 175.843 178.273 178.052 178.273H245.13C247.339 178.273 249.13 180.063 249.13 182.273V188.057H174.052V182.273Z" fill="#96DCEC"/>
<path d="M172.662 183.139C172.662 180.451 174.84 178.273 177.528 178.273V178.273V188.057H172.662V183.139Z" fill="#C3E4EC"/>
<path d="M245.654 178.273V178.273C248.342 178.273 250.52 180.451 250.52 183.139V188.057H245.654V178.273Z" fill="#82C9D9"/>
<path d="M188.998 177.224C188.038 177.224 187.26 176.446 187.26 175.486V149.259C187.26 148.3 188.038 147.522 188.998 147.522V147.522C189.958 147.522 190.736 148.3 190.736 149.259V175.486C190.736 176.446 189.958 177.224 188.998 177.224V177.224Z" fill="#222831"/>
<path d="M234.184 177.224C233.224 177.224 232.446 176.446 232.446 175.486V149.259C232.446 148.3 233.224 147.522 234.184 147.522V147.522C235.144 147.522 235.922 148.3 235.922 149.259V175.486C235.922 176.446 235.144 177.224 234.184 177.224V177.224Z" fill="#222831"/>
<rect x="190.736" y="152.414" width="41.71" height="22.3645" fill="#C6BAF9"/>
<rect x="190.736" y="151.016" width="41.71" height="4.89224" fill="#ACA0E2"/>
<path d="M201.113 119.11L201.113 119.098C202.366 118.823 203.536 118.325 204.582 117.648L204.594 117.66C205.48 118.53 206.905 118.524 207.784 117.641C208.212 117.211 208.448 116.638 208.448 116.029C208.448 115.429 208.219 114.864 207.802 114.435L207.791 114.423C208.464 113.371 208.959 112.195 209.232 110.935L209.244 110.935C210.483 110.921 211.486 109.903 211.486 108.655C211.486 107.406 210.483 106.389 209.244 106.375L209.232 106.374C208.959 105.114 208.464 103.938 207.791 102.886L207.802 102.874C208.668 101.984 208.662 100.551 207.784 99.6679C206.905 98.7851 205.48 98.7791 204.594 99.6496L204.582 99.661C203.536 98.9841 202.366 98.4864 201.113 98.2114L201.112 98.1997C201.099 96.9544 200.086 95.9456 198.844 95.9456C197.602 95.9456 196.59 96.9545 196.577 98.2L196.576 98.2114C195.323 98.4862 194.153 98.9841 193.107 99.661L193.095 99.6496C192.209 98.779 190.784 98.7851 189.906 99.6679C189.477 100.098 189.241 100.671 189.241 101.28C189.241 101.881 189.471 102.446 189.888 102.874L189.899 102.886C189.225 103.938 188.73 105.114 188.457 106.374L188.445 106.375C187.206 106.389 186.203 107.406 186.203 108.655V108.655C186.203 109.264 186.439 109.836 186.867 110.267C187.289 110.692 187.849 110.928 188.445 110.935L188.457 110.935C188.73 112.195 189.225 113.371 189.899 114.423L189.887 114.435C189.021 115.326 189.027 116.759 189.906 117.641C190.784 118.524 192.209 118.53 193.095 117.66L193.107 117.648C194.153 118.325 195.323 118.823 196.576 119.098L196.576 119.109C196.59 120.355 197.602 121.364 198.844 121.364C200.087 121.364 201.099 120.355 201.113 119.11ZM190.442 108.655C190.442 103.989 194.204 100.207 198.845 100.207C203.485 100.207 207.248 103.989 207.248 108.655C207.248 113.32 203.485 117.102 198.845 117.102C194.204 117.102 190.442 113.32 190.442 108.655Z" fill="#859EBC"/>
<path d="M190.442 108.655C190.442 103.989 194.204 100.207 198.845 100.207C203.485 100.207 207.248 103.989 207.248 108.655C207.248 113.32 203.485 117.102 198.845 117.102C194.204 117.102 190.442 113.32 190.442 108.655Z" fill="#A7BFDA"/>
<path d="M184.183 86.1471L185.456 84.868C186.699 85.5979 188.02 86.15 189.401 86.5164V88.3197C189.401 88.9391 189.9 89.4411 190.516 89.4411L196.465 89.4411C197.081 89.4411 197.58 88.9391 197.58 88.3197V86.5164C198.961 86.15 200.282 85.5978 201.525 84.868L202.797 86.1471C203.233 86.5851 203.939 86.5851 204.375 86.1471L208.581 81.9181C209.017 81.48 209.017 80.7701 208.581 80.3321L207.309 79.0531C208.035 77.8037 208.584 76.4755 208.949 75.0872H210.742C211.358 75.0872 211.858 74.5853 211.858 73.9658V67.985C211.858 67.3655 211.358 66.8636 210.742 66.8636H208.949C208.584 65.4753 208.035 64.1471 207.309 62.8975L208.581 61.6185C208.791 61.4081 208.908 61.123 208.908 60.8255C208.908 60.5279 208.791 60.2429 208.581 60.0324L204.375 55.8033C203.939 55.3654 203.233 55.3654 202.798 55.8033L201.525 57.0825C200.283 56.3525 198.961 55.8005 197.581 55.434V53.6308C197.581 53.0113 197.081 52.5094 196.465 52.5094L190.516 52.5094C189.9 52.5094 189.401 53.0113 189.401 53.6308V55.434C188.02 55.8005 186.699 56.3527 185.456 57.0825L184.184 55.8033C183.748 55.3654 183.042 55.3654 182.606 55.8033L178.4 60.0322C178.19 60.2426 178.073 60.5278 178.073 60.8253C178.073 61.1229 178.19 61.4078 178.4 61.6184L179.672 62.8974C178.946 64.1469 178.397 65.4751 178.032 66.8634H176.239C175.623 66.8634 175.123 67.3654 175.123 67.9848V73.9657C175.123 74.5851 175.623 75.0871 176.239 75.0871L178.032 75.0871C178.397 76.4754 178.946 77.8036 179.672 79.053L178.4 80.332C177.964 80.7701 177.964 81.48 178.4 81.9179L182.606 86.147C183.042 86.5849 183.748 86.5849 184.183 86.1471ZM190.738 84.528C189.017 84.1767 187.392 83.4981 185.909 82.5108C185.467 82.2162 184.879 82.2757 184.504 82.6527L183.395 83.7682L180.766 81.125L181.875 80.0096C182.25 79.6322 182.309 79.0419 182.017 78.5975C181.034 77.1065 180.359 75.4731 180.01 73.7426C179.904 73.2198 179.447 72.8442 178.917 72.8442H177.354V69.1062H178.917C179.447 69.1062 179.904 68.7305 180.01 68.2079C180.359 66.4773 181.034 64.8438 182.017 63.3528C182.309 62.9083 182.25 62.3178 181.875 61.9407L180.766 60.8253L183.395 58.1822L184.504 59.2978C184.879 59.6747 185.467 59.7343 185.909 59.4397C187.392 58.4524 189.017 57.7736 190.738 57.4222C191.258 57.3162 191.631 56.8566 191.631 56.3232V54.7522L195.349 54.7522V56.3234C195.349 56.8566 195.723 57.3163 196.243 57.4224C197.964 57.7739 199.589 58.4527 201.072 59.4398C201.514 59.7344 202.101 59.6749 202.476 59.2979L203.586 58.1824L206.215 60.8255L205.105 61.9409C204.73 62.318 204.671 62.9086 204.964 63.353C205.946 64.844 206.621 66.4773 206.971 68.2081C207.076 68.7306 207.533 69.1064 208.064 69.1064H209.627V72.8444H208.064C207.534 72.8444 207.077 73.22 206.971 73.7427C206.622 75.4733 205.947 77.1066 204.965 78.5977C204.672 79.0422 204.731 79.6326 205.106 80.0097L206.215 81.1252L203.586 83.7684L202.477 82.6528C202.102 82.2759 201.514 82.2164 201.072 82.5109C199.589 83.4984 197.964 84.177 196.243 84.5281C195.723 84.6343 195.35 85.0937 195.35 85.6272V87.1983L191.632 87.1983V85.6269C191.631 85.0936 191.258 84.6341 190.738 84.528Z" fill="#124077"/>
<path d="M190.738 84.528C189.017 84.1767 187.392 83.4981 185.909 82.5108C185.467 82.2162 184.879 82.2757 184.504 82.6527L183.395 83.7682L180.766 81.125L181.875 80.0096C182.25 79.6322 182.309 79.0419 182.017 78.5975C181.034 77.1065 180.359 75.4731 180.01 73.7426C179.904 73.2198 179.447 72.8442 178.917 72.8442H177.354V69.1062H178.917C179.447 69.1062 179.904 68.7305 180.01 68.2079C180.359 66.4773 181.034 64.8438 182.017 63.3528C182.309 62.9083 182.25 62.3178 181.875 61.9407L180.766 60.8253L183.395 58.1822L184.504 59.2978C184.879 59.6747 185.467 59.7343 185.909 59.4397C187.392 58.4524 189.017 57.7736 190.738 57.4222C191.258 57.3162 191.631 56.8566 191.631 56.3232V54.7522L195.349 54.7522V56.3234C195.349 56.8566 195.723 57.3163 196.243 57.4224C197.964 57.7739 199.589 58.4527 201.072 59.4398C201.514 59.7344 202.101 59.6749 202.476 59.2979L203.586 58.1824L206.215 60.8255L205.105 61.9409C204.73 62.318 204.671 62.9086 204.964 63.353C205.946 64.844 206.621 66.4773 206.971 68.2081C207.076 68.7306 207.533 69.1064 208.064 69.1064H209.627V72.8444H208.064C207.534 72.8444 207.077 73.22 206.971 73.7427C206.622 75.4733 205.947 77.1066 204.965 78.5977C204.672 79.0422 204.731 79.6326 205.106 80.0097L206.215 81.1252L203.586 83.7684L202.477 82.6528C202.102 82.2759 201.514 82.2164 201.072 82.5109C199.589 83.4984 197.964 84.177 196.243 84.5281C195.723 84.6343 195.35 85.0937 195.35 85.6272V87.1983L191.632 87.1983V85.6269C191.631 85.0936 191.258 84.6341 190.738 84.528Z" fill="#3A6292"/>
<path d="M203.529 70.9752C203.529 65.4101 199.026 60.8826 193.49 60.8826C187.955 60.8826 183.452 65.4101 183.452 70.9752C183.452 76.5404 187.955 81.0679 193.49 81.0679C199.026 81.0679 203.529 76.5404 203.529 70.9752ZM185.682 70.9752C185.682 66.6469 189.185 63.1254 193.49 63.1254C197.796 63.1254 201.298 66.6469 201.298 70.9752C201.298 75.3036 197.796 78.8251 193.49 78.8251C189.185 78.8251 185.682 75.3036 185.682 70.9752Z" fill="#124077"/>
<path d="M185.682 70.9752C185.682 66.6469 189.185 63.1254 193.49 63.1254C197.796 63.1254 201.298 66.6469 201.298 70.9752C201.298 75.3036 197.796 78.8251 193.49 78.8251C189.185 78.8251 185.682 75.3036 185.682 70.9752Z" fill="#7694B7"/>
<path d="M180.924 105.066V103.717C182.367 103.52 183.692 102.948 184.799 102.1L185.75 103.056C186.186 103.494 186.892 103.494 187.327 103.056C187.763 102.618 187.763 101.908 187.327 101.47L186.377 100.514C187.22 99.4014 187.789 98.0687 187.985 96.6181H189.326C189.942 96.6181 190.442 96.1161 190.442 95.4967C190.442 94.8772 189.942 94.3752 189.326 94.3752H187.985C187.789 92.9244 187.22 91.5919 186.377 90.4789L187.327 89.5231C187.763 89.0852 187.763 88.3751 187.327 87.9373C186.892 87.4992 186.186 87.4992 185.75 87.9372L184.799 88.8929C183.692 88.0451 182.367 87.4731 180.924 87.2761V85.9273C180.924 85.3078 180.424 84.8059 179.808 84.8059C179.192 84.8059 178.693 85.3078 178.693 85.9273V87.2761C177.25 87.4731 175.924 88.0451 174.817 88.8929L173.866 87.9372C173.431 87.4992 172.724 87.4992 172.289 87.9373C172.071 88.1562 171.962 88.4433 171.962 88.7302C171.962 89.0172 172.071 89.3042 172.289 89.5233L173.24 90.479C172.396 91.5921 171.827 92.9247 171.631 94.3754H170.29C169.674 94.3754 169.174 94.8773 169.174 95.4968C169.174 96.1163 169.674 96.6182 170.29 96.6182H171.631C171.827 98.069 172.396 99.4015 173.24 100.515L172.289 101.47C172.071 101.689 171.962 101.976 171.962 102.263C171.962 102.55 172.071 102.837 172.289 103.056C172.725 103.494 173.431 103.494 173.866 103.056L174.817 102.101C175.924 102.948 177.25 103.521 178.693 103.717V105.066C178.693 105.686 179.192 106.188 179.808 106.188C180.424 106.188 180.924 105.685 180.924 105.066ZM173.785 95.4967C173.785 92.1576 176.487 89.4411 179.808 89.4411C183.129 89.4411 185.831 92.1576 185.831 95.4967C185.831 98.8358 183.129 101.552 179.808 101.552C176.487 101.552 173.785 98.8358 173.785 95.4967Z" fill="#4685D1"/>
<path d="M173.785 95.4967C173.785 92.1576 176.487 89.4411 179.808 89.4411C183.129 89.4411 185.831 92.1576 185.831 95.4967C185.831 98.8358 183.129 101.552 179.808 101.552C176.487 101.552 173.785 98.8358 173.785 95.4967Z" fill="#94C0F5"/>
<path d="M198.77 70.9752C198.77 68.0484 196.402 65.6672 193.49 65.6672C190.579 65.6672 188.211 68.0484 188.211 70.9752C188.211 73.9021 190.579 76.2832 193.49 76.2832C196.402 76.2832 198.77 73.9021 198.77 70.9752ZM190.441 70.9752C190.441 69.285 191.809 67.9101 193.49 67.9101C195.171 67.9101 196.539 69.285 196.539 70.9752C196.539 72.6654 195.171 74.0404 193.49 74.0404C191.809 74.0404 190.441 72.6654 190.441 70.9752Z" fill="#124077"/>
<path d="M190.441 70.9752C190.441 69.285 191.809 67.9101 193.49 67.9101C195.171 67.9101 196.539 69.285 196.539 70.9752C196.539 72.6654 195.171 74.0404 193.49 74.0404C191.809 74.0404 190.441 72.6654 190.441 70.9752Z" fill="#D2ECFF"/>
<path d="M183.303 95.4968C183.303 93.5593 181.735 91.983 179.808 91.983C177.881 91.983 176.313 93.5593 176.313 95.4968C176.313 97.4343 177.881 99.0105 179.808 99.0105C181.735 99.0105 183.303 97.4343 183.303 95.4968ZM178.544 95.4968C178.544 94.796 179.111 94.2258 179.808 94.2258C180.505 94.2258 181.072 94.796 181.072 95.4968C181.072 96.1976 180.505 96.7677 179.808 96.7677C179.111 96.7677 178.544 96.1976 178.544 95.4968Z" fill="#4685D1"/>
<path d="M178.544 95.4968C178.544 94.796 179.111 94.2258 179.808 94.2258C180.505 94.2258 181.072 94.796 181.072 95.4968C181.072 96.1976 180.505 96.7677 179.808 96.7677C179.111 96.7677 178.544 96.1976 178.544 95.4968Z" fill="#D2ECFF"/>
<path d="M204.719 108.654C204.719 105.398 202.084 102.748 198.845 102.748C195.605 102.748 192.97 105.398 192.97 108.654C192.97 111.911 195.605 114.561 198.845 114.561C202.084 114.561 204.719 111.911 204.719 108.654ZM195.201 108.654C195.201 106.634 196.836 104.991 198.845 104.991C200.854 104.991 202.488 106.634 202.488 108.654C202.488 110.675 200.854 112.318 198.845 112.318C196.836 112.318 195.201 110.675 195.201 108.654Z" fill="#859EBC"/>
<path d="M195.201 108.654C195.201 106.634 196.836 104.991 198.845 104.991C200.854 104.991 202.488 106.634 202.488 108.654C202.488 110.675 200.854 112.318 198.845 112.318C196.836 112.318 195.201 110.675 195.201 108.654Z" fill="#D2ECFF"/>
<path d="M253.244 111.046L243.024 100.771C242.694 100.439 242.159 100.439 241.829 100.771L241.421 101.182L240.418 100.174C245.3 93.808 244.84 84.6087 239.04 78.7767C232.74 72.4431 222.489 72.4431 216.189 78.7767C209.889 85.1103 209.889 95.4159 216.189 101.749C219.339 104.916 223.477 106.5 227.614 106.5C231.097 106.5 234.579 105.378 237.472 103.135L238.475 104.143L238.066 104.554C237.908 104.714 237.819 104.929 237.819 105.155C237.819 105.38 237.908 105.596 238.066 105.755L248.286 116.03C248.97 116.717 249.867 117.06 250.765 117.06C251.663 117.06 252.561 116.717 253.244 116.03C254.611 114.656 254.611 112.42 253.244 111.046ZM217.383 100.549C214.651 97.8014 213.146 94.1485 213.146 90.2632C213.146 86.3778 214.651 82.7248 217.383 79.9775C220.116 77.2301 223.75 75.7169 227.614 75.7169C231.479 75.7169 235.113 77.2301 237.845 79.9775C240.578 82.7249 242.083 86.3778 242.083 90.2632C242.083 94.1485 240.578 97.8015 237.845 100.549C235.112 103.296 231.479 104.809 227.614 104.809C223.75 104.809 220.116 103.296 217.383 100.549ZM238.757 102.026C238.852 101.935 238.946 101.843 239.039 101.749C239.133 101.656 239.224 101.561 239.315 101.466L240.226 102.382L239.669 102.943L238.757 102.026ZM252.05 114.829C251.341 115.542 250.189 115.541 249.48 114.829L247.419 112.757L239.857 105.155L242.427 102.572L246.796 106.964L252.05 112.246C252.758 112.959 252.758 114.117 252.05 114.829Z" fill="#222831"/>
<path d="M238.757 102.026C238.852 101.935 238.946 101.843 239.039 101.749C239.133 101.656 239.224 101.561 239.315 101.466L240.226 102.382L239.669 102.943L238.757 102.026Z" fill="#859EBC"/>
<path d="M217.383 100.549C214.651 97.8014 213.146 94.1485 213.146 90.2632C213.146 86.3778 214.651 82.7248 217.383 79.9775C220.116 77.2301 223.75 75.7169 227.614 75.7169C231.479 75.7169 235.113 77.2301 237.845 79.9775C240.578 82.7249 242.083 86.3778 242.083 90.2632C242.083 94.1485 240.578 97.8015 237.845 100.549C235.112 103.296 231.479 104.809 227.614 104.809C223.75 104.809 220.116 103.296 217.383 100.549Z" fill="#2E5F9B"/>
<path d="M242.427 102.572L239.857 105.155L247.419 112.757L246.796 106.964L242.427 102.572Z" fill="#9B5121"/>
<path d="M249.48 114.829C250.189 115.541 251.341 115.542 252.05 114.829C252.758 114.117 252.758 112.959 252.05 112.246L246.796 106.964L247.419 112.757L249.48 114.829Z" fill="#BA6228"/>
<path d="M236.586 81.2438C234.19 78.8346 231.004 77.5078 227.615 77.5078C224.226 77.5078 221.04 78.8346 218.644 81.2438C216.247 83.6529 214.928 86.8561 214.928 90.2632C214.928 93.6703 216.247 96.8734 218.644 99.2826C221.04 101.692 224.226 103.019 227.615 103.019C231.004 103.019 234.19 101.692 236.586 99.2826C238.983 96.8734 240.302 93.6702 240.302 90.2632C240.302 86.856 238.983 83.6529 236.586 81.2438ZM235.392 98.0818C233.315 100.17 230.553 101.321 227.615 101.321C224.677 101.321 221.915 100.17 219.838 98.0818C215.55 93.7706 215.55 86.7556 219.838 82.4444C221.915 80.3559 224.677 79.2058 227.615 79.2058C230.553 79.2058 233.315 80.3559 235.392 82.4444C239.68 86.7556 239.68 93.7706 235.392 98.0818Z" fill="#222831"/>
<path d="M235.392 98.0818C233.315 100.17 230.553 101.321 227.615 101.321C224.677 101.321 221.915 100.17 219.838 98.0818C215.55 93.7706 215.55 86.7556 219.838 82.4444C221.915 80.3559 224.677 79.2058 227.615 79.2058C230.553 79.2058 233.315 80.3559 235.392 82.4444C239.68 86.7556 239.68 93.7706 235.392 98.0818Z" fill="#D2ECFF"/>
<path d="M232.75 81.7586C232.352 81.515 231.832 81.6422 231.59 82.0429C231.348 82.4435 231.474 82.9658 231.873 83.2094C232.431 83.5505 232.95 83.9611 233.416 84.4301C233.581 84.596 233.797 84.6788 234.013 84.6788C234.229 84.6788 234.446 84.596 234.61 84.4301C234.94 84.0986 234.94 83.5611 234.61 83.2295C234.049 82.6649 233.423 82.17 232.75 81.7586Z" fill="#222831"/>
<path d="M221.216 84.6789C221.432 84.6789 221.648 84.5961 221.813 84.4302C223.659 82.5749 226.302 81.7087 228.885 82.113C229.346 82.1853 229.777 81.8681 229.849 81.4047C229.921 80.9414 229.605 80.5074 229.145 80.4352C226.031 79.9478 222.844 80.9925 220.619 83.2296C220.289 83.5612 220.289 84.0987 220.619 84.4302C220.784 84.5961 221 84.6789 221.216 84.6789V84.6789Z" fill="#222831"/>
<path d="M223.28 97.2689C222.751 96.9377 222.258 96.5431 221.813 96.0958C221.483 95.7643 220.949 95.7643 220.619 96.0958C220.289 96.4274 220.289 96.9649 220.619 97.2964C221.154 97.8348 221.749 98.3104 222.386 98.7097C222.525 98.7969 222.68 98.8383 222.832 98.8383C223.114 98.8383 223.39 98.6965 223.55 98.4384C223.796 98.0407 223.676 97.5171 223.28 97.2689V97.2689Z" fill="#222831"/>
<path d="M233.416 96.0958C231.627 97.8945 229.158 98.7542 226.642 98.4541C226.179 98.3986 225.759 98.7315 225.704 99.1971C225.649 99.6627 225.98 100.085 226.443 100.14C226.84 100.188 227.236 100.211 227.63 100.211C230.241 100.211 232.735 99.1812 234.61 97.2964C234.94 96.9648 234.94 96.4272 234.61 96.0957C234.281 95.7643 233.746 95.7643 233.416 96.0958V96.0958Z" fill="#222831"/>
<path d="M222.777 88.4992C222.815 88.429 222.878 88.3766 222.954 88.3534C223.03 88.3303 223.112 88.3384 223.182 88.3759L223.709 88.6586C223.828 88.0878 224.111 87.5643 224.521 87.1525C224.947 86.7242 225.471 86.4517 226.02 86.336L225.738 85.8061C225.719 85.7713 225.707 85.7331 225.703 85.6936C225.699 85.6541 225.703 85.6143 225.714 85.5763C225.725 85.5383 225.744 85.5029 225.769 85.4722C225.794 85.4415 225.825 85.416 225.859 85.3973C225.894 85.3786 225.932 85.367 225.972 85.3632C226.011 85.3593 226.051 85.3633 226.088 85.375C226.126 85.3866 226.161 85.4057 226.191 85.431C226.222 85.4563 226.247 85.4874 226.265 85.5225L226.664 86.2718C227.448 86.2781 228.197 86.5945 228.751 87.1525L228.963 86.9398C229.019 86.8834 229.05 86.807 229.05 86.7272C229.05 86.6475 229.019 86.571 228.963 86.5146L228.751 86.302C228.695 86.2456 228.663 86.1691 228.663 86.0894C228.663 86.0096 228.695 85.9331 228.751 85.8767C228.807 85.8203 228.883 85.7887 228.963 85.7887C229.042 85.7887 229.118 85.8203 229.174 85.8767L229.386 86.0894C229.554 86.2585 229.648 86.488 229.648 86.7272C229.648 86.9665 229.554 87.1959 229.386 87.3651L229.174 87.5777L229.597 88.0029L230.231 87.3651C230.288 87.3087 230.364 87.277 230.443 87.277C230.522 87.277 230.598 87.3087 230.654 87.3651C230.711 87.4215 230.742 87.4979 230.742 87.5777C230.742 87.6574 230.711 87.7339 230.654 87.7903L230.02 88.4282L230.443 88.8534L230.654 88.6408C230.823 88.4716 231.051 88.3766 231.289 88.3766C231.527 88.3766 231.755 88.4716 231.923 88.6408L232.135 88.8534C232.191 88.9098 232.222 88.9863 232.222 89.066C232.222 89.1458 232.191 89.2222 232.135 89.2786C232.079 89.335 232.003 89.3667 231.923 89.3667C231.844 89.3667 231.768 89.335 231.712 89.2786L231.5 89.066C231.444 89.0096 231.368 88.9779 231.289 88.9779C231.21 88.9779 231.134 89.0096 231.077 89.066L230.866 89.2786C231.427 89.8425 231.742 90.6073 231.742 91.4048C231.742 92.2023 231.427 92.9671 230.866 93.531C230.305 94.0949 229.544 94.4117 228.751 94.4117C227.958 94.4117 227.197 94.0949 226.636 93.531L226.425 93.7436C226.369 93.8 226.337 93.8765 226.337 93.9562C226.337 94.036 226.369 94.1125 226.425 94.1689L226.636 94.3815C226.692 94.4379 226.724 94.5144 226.724 94.5941C226.724 94.6738 226.692 94.7503 226.636 94.8067C226.58 94.8631 226.504 94.8948 226.425 94.8948C226.345 94.8948 226.269 94.8631 226.213 94.8067L226.002 94.5941C225.834 94.4249 225.739 94.1955 225.739 93.9562C225.739 93.717 225.834 93.4876 226.002 93.3184L226.213 93.1058L225.79 92.6805L225.156 93.3184C225.1 93.3748 225.024 93.4065 224.944 93.4065C224.865 93.4065 224.789 93.3748 224.733 93.3184C224.677 93.262 224.645 93.1855 224.645 93.1058C224.645 93.026 224.677 92.9495 224.733 92.8932L225.367 92.2553L224.944 91.8301L224.733 92.0427C224.565 92.2118 224.336 92.3069 224.098 92.3069C223.86 92.3069 223.632 92.2118 223.464 92.0427L223.252 91.8301C223.196 91.7737 223.165 91.6972 223.165 91.6174C223.165 91.5377 223.196 91.4612 223.252 91.4048C223.309 91.3484 223.385 91.3168 223.464 91.3168C223.543 91.3168 223.619 91.3484 223.675 91.4048L223.887 91.6174C223.943 91.6738 224.019 91.7055 224.098 91.7055C224.178 91.7055 224.254 91.6738 224.31 91.6174L224.521 91.4048C223.944 90.8248 223.653 90.0662 223.645 89.3063L222.9 88.9057C222.83 88.8681 222.778 88.8042 222.755 88.7279C222.732 88.6517 222.74 88.5695 222.777 88.4992ZM225.367 91.4048L227.059 93.1058C227.471 93.5203 228.02 93.7694 228.601 93.8062C229.183 93.843 229.758 93.665 230.219 93.3056L226.848 89.9165L225.367 91.4048ZM227.271 89.4913L230.642 92.8804C230.999 92.4174 231.176 91.8392 231.14 91.2544C231.103 90.6695 230.855 90.1181 230.443 89.7039L228.751 88.0029L227.271 89.4913ZM228.328 87.5777C228.09 87.338 227.805 87.1516 227.49 87.0308C227.175 86.91 226.839 86.8576 226.503 86.8769C225.915 86.909 225.36 87.1586 224.944 87.5777C224.527 87.9954 224.279 88.5537 224.247 89.1447C224.228 89.4827 224.28 89.8209 224.4 90.1372C224.52 90.4534 224.706 90.7405 224.944 90.9796L228.328 87.5777Z" fill="#222831"/>
<path d="M227.271 89.4913L230.642 92.8804C230.999 92.4174 231.176 91.8392 231.14 91.2544C231.103 90.6695 230.855 90.1181 230.443 89.7039L228.751 88.0029L227.271 89.4913Z" fill="#DA2525"/>
<path d="M225.367 91.4048L227.059 93.1058C227.471 93.5203 228.02 93.7694 228.601 93.8062C229.183 93.843 229.758 93.665 230.219 93.3056L226.848 89.9165L225.367 91.4048Z" fill="#DA2525"/>
<path d="M228.328 87.5777C228.09 87.338 227.805 87.1516 227.49 87.0308C227.175 86.91 226.839 86.8576 226.503 86.8769C225.915 86.909 225.36 87.1586 224.944 87.5777C224.527 87.9954 224.279 88.5537 224.247 89.1447C224.228 89.4827 224.28 89.8209 224.4 90.1372C224.52 90.4534 224.706 90.7405 224.944 90.9796L228.328 87.5777Z" fill="#818181"/>
</svg>
