<svg width="433" height="311" viewBox="0 0 433 311" fill="none" xmlns="http://www.w3.org/2000/svg">
<path d="M321.795 43.3282H308.609C305.734 43.3282 303.404 45.6587 303.404 48.5334V188.725C303.404 191.6 305.734 193.93 308.609 193.93H321.795C324.67 193.93 327 191.6 327 188.725V48.5334C327 45.6587 324.67 43.3282 321.795 43.3282Z" fill="#D0CDCB"/>
<path d="M115.328 175.539V188.725C115.328 191.6 117.659 193.93 120.533 193.93H321.795C324.67 193.93 327 191.6 327 188.725V175.539C327 172.664 324.67 170.333 321.795 170.333H120.533C117.659 170.333 115.328 172.664 115.328 175.539Z" fill="#D0CDCB"/>
<path d="M309.997 35H112.205C109.33 35 107 37.3304 107 40.2051V180.397C107 183.271 109.33 185.602 112.205 185.602H309.997C312.872 185.602 315.202 183.271 315.202 180.397V40.2051C315.202 37.3304 312.872 35 309.997 35Z" fill="#222831"/>
<path d="M308.262 59.2906H113.94C112.024 59.2906 110.47 60.8443 110.47 62.7607V178.662C110.47 180.578 112.024 182.132 113.94 182.132H308.262C310.178 182.132 311.732 180.578 311.732 178.662V62.7607C311.732 60.8443 310.178 59.2906 308.262 59.2906Z" fill="#EEEEEE"/>
<rect x="129.555" y="77.6821" width="2.77607" height="24.2902" rx="1.38803" transform="rotate(-90 129.555 77.6821)" fill="#E647C3"/>
<rect x="129.555" y="90.8685" width="2.77607" height="24.2902" rx="1.38803" transform="rotate(-90 129.555 90.8685)" fill="#E647C3"/>
<rect x="159.051" y="90.8685" width="2.77607" height="24.2902" rx="1.38803" transform="rotate(-90 159.051 90.8685)" fill="#59A9F2"/>
<rect x="152.11" y="104.055" width="2.77607" height="24.2902" rx="1.38803" transform="rotate(-90 152.11 104.055)" fill="#59A9F2"/>
<rect x="152.11" y="112.036" width="2.77607" height="24.2902" rx="1.38803" transform="rotate(-90 152.11 112.036)" fill="#59A9F2"/>
<rect x="141.7" y="125.222" width="2.77607" height="38.1703" rx="1.38803" transform="rotate(-90 141.7 125.222)" fill="#59A9F2"/>
<rect x="141.7" y="138.409" width="2.77607" height="24.2902" rx="1.38803" transform="rotate(-90 141.7 138.409)" fill="#F3EE75"/>
<rect x="129.555" y="159.576" width="2.77607" height="13.8801" rx="1.38803" transform="rotate(-90 129.555 159.576)" fill="#59A9F2"/>
<rect x="148.64" y="159.576" width="2.77607" height="13.8801" rx="1.38803" transform="rotate(-90 148.64 159.576)" fill="#12EBB7"/>
<rect x="152.11" y="146.39" width="2.77607" height="24.2902" rx="1.38803" transform="rotate(-90 152.11 146.39)" fill="#12EBB7"/>
<rect x="231.921" y="125.222" width="2.77607" height="27.7603" rx="1.38803" transform="rotate(-90 231.921 125.222)" fill="#87E4EA"/>
<rect x="235.391" y="146.39" width="2.77607" height="27.7603" rx="1.38803" transform="rotate(-90 235.391 146.39)" fill="#FD7013"/>
<rect x="268.356" y="146.39" width="2.77607" height="13.8801" rx="1.38803" transform="rotate(-90 268.356 146.39)" fill="#FD7013"/>
<rect x="287.441" y="146.39" width="2.77607" height="6.94006" rx="1.38803" transform="rotate(-90 287.441 146.39)" fill="#59A9F2"/>
<rect x="159.051" y="77.6821" width="2.77607" height="20.8202" rx="1.38803" transform="rotate(-90 159.051 77.6821)" fill="#87E4EA"/>
<rect x="207.631" y="77.6821" width="2.77607" height="24.2902" rx="1.38803" transform="rotate(-90 207.631 77.6821)" fill="#FD7013"/>
<rect x="185.076" y="77.6821" width="2.77607" height="17.3502" rx="1.38803" transform="rotate(-90 185.076 77.6821)" fill="#E547C3"/>
<rect x="231.921" y="90.8685" width="2.77607" height="24.2902" rx="1.38803" transform="rotate(-90 231.921 90.8685)" fill="#12EBB7"/>
<rect x="167.726" y="159.576" width="2.77607" height="13.8801" rx="1.38803" transform="rotate(-90 167.726 159.576)" fill="#FD7013"/>
<rect x="186.811" y="159.576" width="2.77607" height="24.2902" rx="1.38803" transform="rotate(-90 186.811 159.576)" fill="#F3EE75"/>
<path d="M301.322 59.2906H308.262C310.178 59.2906 311.732 60.8442 311.732 62.7607V178.662C311.732 180.578 310.178 182.132 308.262 182.132H301.322V59.2906Z" fill="#DFDEDE"/>
<path d="M110.47 62.7607C110.47 60.8442 112.024 59.2906 113.94 59.2906H120.88V182.132H113.94C112.024 182.132 110.47 180.578 110.47 178.662V62.7607Z" fill="white"/>
<path d="M126.953 53.3914C130.306 53.3914 133.025 50.6726 133.025 47.3187C133.025 43.9649 130.306 41.2461 126.953 41.2461C123.599 41.2461 120.88 43.9649 120.88 47.3187C120.88 50.6726 123.599 53.3914 126.953 53.3914Z" fill="#FD7013"/>
<path d="M146.038 53.3914C149.392 53.3914 152.11 50.6726 152.11 47.3187C152.11 43.9649 149.392 41.2461 146.038 41.2461C142.684 41.2461 139.965 43.9649 139.965 47.3187C139.965 50.6726 142.684 53.3914 146.038 53.3914Z" fill="#DFDEDE"/>
<path d="M165.123 53.3914C168.477 53.3914 171.196 50.6726 171.196 47.3187C171.196 43.9649 168.477 41.2461 165.123 41.2461C161.769 41.2461 159.051 43.9649 159.051 47.3187C159.051 50.6726 161.769 53.3914 165.123 53.3914Z" fill="white"/>
<g clip-path="url(#clip0_221_105)">
<path d="M249.271 82.1931H172.583V158.882H249.271V82.1931Z" fill="#F7DF1E"/>
<path d="M224.098 142.107C225.643 144.629 227.652 146.483 231.207 146.483C234.193 146.483 236.1 144.99 236.1 142.928C236.1 140.457 234.14 139.582 230.854 138.144L229.052 137.371C223.852 135.156 220.398 132.38 220.398 126.513C220.398 121.108 224.516 116.994 230.951 116.994C235.533 116.994 238.827 118.589 241.201 122.764L235.589 126.367C234.354 124.152 233.021 123.279 230.951 123.279C228.841 123.279 227.503 124.618 227.503 126.367C227.503 128.529 228.842 129.404 231.934 130.743L233.735 131.515C239.858 134.141 243.315 136.817 243.315 142.836C243.315 149.324 238.218 152.878 231.374 152.878C224.681 152.878 220.357 149.689 218.242 145.509L224.098 142.107ZM198.641 142.731C199.773 144.74 200.803 146.438 203.279 146.438C205.647 146.438 207.14 145.511 207.14 141.909V117.405H214.347V142.007C214.347 149.469 209.972 152.865 203.586 152.865C197.816 152.865 194.475 149.879 192.775 146.282L198.641 142.731Z" fill="black"/>
<rect x="245.801" y="82.1931" width="3.47003" height="76.6889" fill="#DAC520"/>
<rect x="172.583" y="82.1931" width="3.47003" height="76.6889" fill="#F4E677"/>
</g>
<defs>
<clipPath id="clip0_221_105">
<rect x="172.583" y="82.1931" width="76.6877" height="76.6889" rx="10" fill="white"/>
</clipPath>
</defs>
</svg>
