<svg width="433" height="311" viewBox="0 0 433 311" fill="none" xmlns="http://www.w3.org/2000/svg">
<path d="M269.891 54.4808H297.954C301.82 54.4808 304.954 57.6148 304.954 61.4808V193.252C304.954 197.118 301.82 200.252 297.954 200.252H269.891V54.4808Z" fill="#D0CDCB"/>
<path d="M305 190.703V193.3C305 197.166 301.866 200.3 298 200.3L148.067 200.3C144.201 200.3 141.067 197.166 141.067 193.3V190.703L305 190.703Z" fill="#D0CDCB"/>
<rect x="221.44" y="197.565" width="3.18758" height="13.4351" rx="1.59379" fill="#D0CDCB"/>
<rect x="221.576" y="44.4525" width="2.55007" height="6.52563" rx="1.27503" fill="#D0CDCB"/>
<rect x="129" y="45.0763" width="165.117" height="147.115" rx="7" fill="#222831"/>
<rect x="132.097" y="48.3871" width="158.833" height="140.493" rx="3" fill="white"/>
<path d="M212.606 77.1768H290.929V185.88C290.929 187.537 289.586 188.88 287.929 188.88H212.606V77.1768Z" fill="#F8C2C2"/>
<path d="M286.148 77.3207H290.929V185.832C290.929 187.489 289.586 188.832 287.929 188.832H286.148V77.3207Z" fill="#E7B2B2"/>
<rect x="290.929" y="87.5411" width="2.55007" height="29.1734" rx="1.27503" fill="#E6B2B2"/>
<rect x="292.523" y="87.0612" width="2.55007" height="29.1734" rx="1.27503" fill="#D0CDCB"/>
<rect x="290.929" y="67.2443" width="3.18758" height="22.8397" rx="1.59379" fill="#222831"/>
<rect x="290.929" y="93.4429" width="3.18758" height="17.4657" rx="1.59379" fill="#222831"/>
<rect x="290.929" y="113.931" width="3.18758" height="23.1756" rx="1.59379" fill="#222831"/>
<rect x="222.806" y="115.563" width="58.2873" height="42.2247" rx="5" fill="#222831"/>
<rect x="225.265" y="117.962" width="53.2327" height="37.2825" rx="3" fill="#CAF5F8"/>
<path d="M275.948 117.962V117.962C277.356 117.962 278.498 119.103 278.498 120.512V152.694C278.498 154.103 277.356 155.244 275.948 155.244V155.244V117.962Z" fill="#B0DDE0"/>
<path d="M225.265 120.512C225.265 119.103 226.407 117.962 227.815 117.962V117.962V155.244V155.244C226.407 155.244 225.265 154.103 225.265 152.694V120.512Z" fill="#E3F9FB"/>
<path d="M225.265 145.504H278.498V152.58C278.498 154.237 277.155 155.58 275.498 155.58H228.265C226.608 155.58 225.265 154.237 225.265 152.58V145.504Z" fill="#6AE777"/>
<path d="M225.265 145.504H227.815V155.58V155.58C226.407 155.58 225.265 154.438 225.265 153.03V145.504Z" fill="#93EB9C"/>
<path d="M275.948 145.504H278.817V152.711C278.817 154.296 277.532 155.58 275.948 155.58V155.58V145.504Z" fill="#5FD16B"/>
<path fill-rule="evenodd" clip-rule="evenodd" d="M257.823 145.504L241.628 133.412L227.815 143.725V145.504H257.823Z" fill="#6AE777"/>
<path d="M225.433 145.504H227.815V143.725L225.433 145.504Z" fill="#93EB9C"/>
<path fill-rule="evenodd" clip-rule="evenodd" d="M275.948 146.475L267.554 139.682L257.8 147.575H275.948V146.475Z" fill="#6AE777"/>
<path d="M223.173 145.56C222.769 144.952 222.917 144.109 223.503 143.675L240.695 130.931C241.282 130.496 242.085 130.625 242.505 131.221V131.221C242.942 131.84 242.798 132.722 242.188 133.172L224.97 145.876C224.382 146.31 223.577 146.168 223.173 145.56V145.56Z" fill="#222831"/>
<path d="M257.99 145.537C257.664 144.927 257.838 144.148 258.392 143.739L266.794 137.54C267.382 137.106 268.187 137.248 268.592 137.857V137.857C268.995 138.464 268.848 139.307 268.262 139.742L259.877 145.966C259.241 146.438 258.365 146.239 257.99 145.537V145.537Z" fill="#222831"/>
<path d="M280.319 148.065C279.915 148.674 279.109 148.816 278.521 148.382L266.87 139.786C266.437 139.466 266.222 138.912 266.321 138.374V138.374C266.501 137.394 267.588 136.949 268.374 137.534L279.991 146.179C280.576 146.615 280.723 147.458 280.319 148.065V148.065Z" fill="#222831"/>
<path d="M260.057 145.56C259.652 146.169 258.848 146.31 258.26 145.877L240.907 133.073C240.351 132.663 240.177 131.884 240.503 131.272V131.272C240.878 130.568 241.756 130.367 242.394 130.839L259.726 143.675C260.313 144.109 260.46 144.953 260.057 145.56V145.56Z" fill="#222831"/>
<ellipse cx="259.236" cy="130.454" rx="5.46443" ry="5.45359" fill="#222831"/>
<ellipse cx="259.235" cy="130.454" rx="2.91436" ry="2.90858" fill="#ECD353"/>
<rect x="222.806" y="84.8539" width="58.2873" height="26.8702" rx="5" fill="#222831"/>
<path d="M227.815 87.0612C226.407 87.0612 225.265 88.2029 225.265 89.6112V107.015C225.265 108.423 226.407 109.565 227.815 109.565V109.565V87.0612V87.0612Z" fill="#A9D6EF"/>
<path fill-rule="evenodd" clip-rule="evenodd" d="M227.815 87.0612H275.948V109.565H227.815V87.0612Z" fill="#81C5EC"/>
<path d="M275.948 109.565C277.356 109.565 278.498 108.423 278.498 107.015V89.6112C278.498 88.2029 277.356 87.0612 275.948 87.0612V87.0612V109.565V109.565Z" fill="#72AED0"/>
<rect x="225.356" y="168.151" width="2.68702" height="52.8228" rx="1.34351" transform="rotate(-90 225.356 168.151)" fill="#222831"/>
<rect x="225.356" y="178.516" width="2.68702" height="52.8228" rx="1.34351" transform="rotate(-90 225.356 178.516)" fill="#222831"/>
<path d="M132.097 54.074C132.097 52.4171 133.44 51.074 135.097 51.074H210.056V77.1765H132.097V54.074Z" fill="#2A90EE"/>
<path d="M132.188 54.1221C132.188 52.4652 133.531 51.1221 135.187 51.1221H136.969V77.3206H132.188V54.1221Z" fill="#2888E0"/>
<ellipse cx="146.669" cy="60.6705" rx="5.46443" ry="5.75791" fill="#E94949"/>
<ellipse cx="183.098" cy="60.6705" rx="5.46443" ry="5.75791" fill="white"/>
<ellipse cx="164.883" cy="60.6705" rx="5.46443" ry="5.75791" fill="#CAF5F8"/>
<path d="M212.606 51.074H287.929C289.586 51.074 290.929 52.4171 290.929 54.074V76.9366H212.606V51.074Z" fill="#E94949"/>
<path d="M286.148 51.1221H287.929C289.586 51.1221 290.929 52.4652 290.929 54.1221V76.9847H286.148V51.1221Z" fill="#C83C3C"/>
<rect x="209.965" y="35" width="3.18758" height="167.267" rx="1.59379" fill="#222831"/>
<rect x="129.637" y="77.3206" width="3.35878" height="163.842" rx="1.67939" transform="rotate(-90 129.637 77.3206)" fill="#222831"/>
<path d="M132.097 77.1766H210.056V188.88H135.097C133.44 188.88 132.097 187.537 132.097 185.88V77.1766Z" fill="#CAF5F8"/>
<path d="M132.188 77.3207H136.969V188.832H135.187C133.531 188.832 132.188 187.489 132.188 185.832V77.3207Z" fill="#B4DEE1"/>
<rect x="151.769" y="127.846" width="36.4295" height="2.68702" rx="1.34351" fill="#222831"/>
<rect x="152.133" y="161.626" width="40.0725" height="2.68702" rx="1.34351" fill="#222831"/>
<rect x="198.034" y="161.626" width="14.5718" height="2.68702" rx="1.34351" fill="#222831"/>
<rect x="151.769" y="153.181" width="23.6792" height="2.68702" rx="1.34351" fill="#222831"/>
<rect x="181.276" y="153.181" width="31.3294" height="2.68702" rx="1.34351" fill="#222831"/>
<rect x="151.769" y="136.291" width="60.8373" height="2.68702" rx="1.34351" fill="#222831"/>
<rect x="194.027" y="127.846" width="18.5791" height="2.68702" rx="1.34351" fill="#222831"/>
<rect x="141.933" y="119.401" width="27.3222" height="2.68702" rx="1.34351" fill="#E94949"/>
<rect x="141.933" y="144.736" width="27.3222" height="2.68702" rx="1.34351" fill="#E94949"/>
<rect x="141.933" y="170.071" width="16.3933" height="2.68702" rx="1.34351" fill="#E94949"/>
<rect x="164.154" y="170.071" width="30.9651" height="2.68702" rx="1.34351" fill="#E94949"/>
<rect x="175.083" y="119.401" width="12.7503" height="2.68702" rx="1.34351" fill="#E94949"/>
<rect x="175.083" y="144.736" width="18.2148" height="2.68702" rx="1.34351" fill="#E94949"/>
<rect width="26.7807" height="3.65639" rx="1.82819" transform="matrix(0.246448 -0.969156 0.962377 0.271718 162.698 110.809)" fill="#222831"/>
<rect width="18.3933" height="3.8044" rx="1.9022" transform="matrix(-0.89751 0.440993 -0.404684 -0.914457 193.929 99.4414)" fill="#222831"/>
<path d="M176.648 91.2692C177.075 90.3043 178.188 89.8976 179.136 90.3598L191.769 96.5156C193.425 97.3224 193.295 99.7849 191.569 100.313V100.313C191.095 100.458 190.582 100.412 190.13 100.184L177.575 93.8562C176.637 93.3834 176.223 92.2294 176.648 91.2692V91.2692Z" fill="#222831"/>
<rect width="18.3933" height="3.8044" rx="1.9022" transform="matrix(0.89751 -0.440993 0.404684 0.914457 141.204 97.5715)" fill="#222831"/>
<path d="M158.485 105.744C158.058 106.709 156.945 107.115 155.997 106.653L143.364 100.497C141.708 99.6906 141.838 97.2281 143.564 96.7001V96.7001C144.038 96.5553 144.551 96.6012 145.003 96.8287L157.558 103.157C158.496 103.63 158.91 104.784 158.485 105.744V105.744Z" fill="#222831"/>
</svg>
