<svg width="345" height="390" viewBox="0 0 345 390" fill="none" xmlns="http://www.w3.org/2000/svg">
<rect width="345" height="390" fill="url(#paint0_linear_190_86)"/>
<rect x="33" y="70" width="279.167" height="184.881" rx="15" fill="#222831"/>
<rect x="38.5392" y="75.5687" width="268.089" height="173.744" rx="7" fill="#C6BAF9"/>
<rect x="33" y="210.888" width="279.167" height="7.79618" rx="3.89809" fill="#222831"/>
<path d="M38.5392 216.457H306.628V242.312C306.628 246.178 303.494 249.312 299.628 249.312H45.5392C41.6732 249.312 38.5392 246.178 38.5392 242.312V216.457Z" fill="#96DCEC"/>
<path d="M298.874 216.457H306.628V242.312C306.628 246.178 303.494 249.312 299.628 249.312H298.874V216.457Z" fill="#82C9D9"/>
<path d="M38.5392 216.457H46.2938V249.312H45.5392C41.6732 249.312 38.5392 246.178 38.5392 242.312V216.457Z" fill="#C3E5EC"/>
<path d="M298.874 75.5687H299.628C303.494 75.5687 306.628 78.7027 306.628 82.5687V210.888H298.874V75.5687Z" fill="#ACA0E2"/>
<path d="M38.5392 82.5687C38.5392 78.7027 41.6732 75.5687 45.5392 75.5687H46.2938V210.888H38.5392V82.5687Z" fill="#D6CEF9"/>
<path d="M51.8326 103.934C51.8326 95.6493 58.5484 88.9336 66.8326 88.9336H278.335C286.619 88.9336 293.335 95.6493 293.335 103.934V210.888H51.8326V103.934Z" fill="#222831"/>
<path d="M59.5874 101.502C59.5874 97.6363 62.7214 94.5023 66.5874 94.5023H278.58C282.446 94.5023 285.58 97.6363 285.58 101.502V210.888H59.5874V101.502Z" fill="#D2ECFF"/>
<path d="M280.041 94.5023H280.795C284.661 94.5023 287.795 97.6363 287.795 101.502V210.888H280.041V94.5023Z" fill="#A5D9FF"/>
<path d="M57.3718 101.502C57.3718 97.6363 60.5058 94.5023 64.3718 94.5023H65.1265V210.888H57.3718V101.502Z" fill="#E9F6FF"/>
<path d="M158.736 233.163C158.736 234.701 159.983 235.947 161.52 235.947H183.647C185.185 235.947 186.431 234.701 186.431 233.163C186.431 231.625 185.185 230.379 183.647 230.379H161.52C159.983 230.379 158.736 231.625 158.736 233.163Z" fill="#222831"/>
<path d="M105.007 307.748C105.007 299.464 111.723 292.748 120.007 292.748H225.16C233.444 292.748 240.16 299.464 240.16 307.748V317.478C240.16 318.582 239.264 319.478 238.16 319.478H107.007C105.903 319.478 105.007 318.582 105.007 317.478V307.748Z" fill="#222831"/>
<path d="M112.762 305.317C112.762 301.451 115.896 298.317 119.762 298.317H225.405C229.271 298.317 232.405 301.451 232.405 305.317V313.909H112.762V305.317Z" fill="#96DCEC"/>
<path d="M110.546 305.317C110.546 301.451 113.68 298.317 117.546 298.317H118.301V313.909H110.546V305.317Z" fill="#C3E4EC"/>
<path d="M226.866 298.317H227.621C231.487 298.317 234.621 301.451 234.621 305.317V313.909H226.866V298.317Z" fill="#82C9D9"/>
<path d="M136.58 296.646C135.051 296.646 133.811 295.406 133.811 293.877V252.082C133.811 250.552 135.051 249.312 136.58 249.312C138.11 249.312 139.35 250.552 139.35 252.082V293.877C139.35 295.406 138.11 296.646 136.58 296.646Z" fill="#222831"/>
<path d="M208.587 296.646C207.058 296.646 205.818 295.406 205.818 293.877V252.082C205.818 250.552 207.058 249.312 208.587 249.312C210.117 249.312 211.357 250.552 211.357 252.082V293.877C211.357 295.406 210.117 296.646 208.587 296.646Z" fill="#222831"/>
<rect x="139.35" y="257.108" width="66.4684" height="35.6397" fill="#C6BAF9"/>
<rect x="139.35" y="254.881" width="66.4684" height="7.79618" fill="#ACA0E2"/>
<path d="M155.885 204.036L155.886 204.017C157.883 203.579 159.748 202.786 161.415 201.707L161.434 201.725C162.846 203.113 165.117 203.103 166.516 201.696C167.199 201.01 167.575 200.097 167.575 199.127C167.575 198.17 167.21 197.269 166.545 196.586L166.527 196.567C167.6 194.891 168.39 193.016 168.825 191.009L168.844 191.008C170.817 190.986 172.417 189.365 172.417 187.375C172.417 185.385 170.818 183.764 168.844 183.741L168.825 183.741C168.389 181.733 167.6 179.858 166.527 178.182L166.545 178.163C167.926 176.744 167.916 174.461 166.516 173.054C165.117 171.647 162.846 171.637 161.434 173.025L161.415 173.043C159.748 171.964 157.883 171.171 155.886 170.733L155.885 170.714C155.863 168.729 154.25 167.122 152.271 167.122C150.292 167.122 148.679 168.73 148.657 170.714L148.656 170.733C146.66 171.171 144.795 171.964 143.128 173.043L143.108 173.025C141.697 171.637 139.426 171.647 138.026 173.054C137.344 173.74 136.968 174.652 136.968 175.623C136.968 176.58 137.333 177.48 137.998 178.163L138.015 178.182C136.942 179.858 136.153 181.733 135.718 183.741L135.699 183.741C133.725 183.764 132.126 185.385 132.126 187.375V187.375C132.126 188.346 132.502 189.258 133.184 189.944C133.857 190.621 134.749 190.998 135.699 191.008L135.717 191.009C136.153 193.016 136.942 194.891 138.015 196.567L137.997 196.587C136.617 198.006 136.627 200.289 138.026 201.696C139.426 203.103 141.697 203.113 143.108 201.725L143.127 201.707C144.795 202.786 146.659 203.579 148.656 204.017L148.657 204.035C148.679 206.02 150.291 207.628 152.271 207.628C154.251 207.628 155.863 206.02 155.885 204.036ZM138.881 187.375C138.881 179.939 144.876 173.912 152.271 173.912C159.667 173.912 165.662 179.939 165.662 187.375C165.662 194.81 159.667 200.837 152.271 200.837C144.876 200.837 138.881 194.81 138.881 187.375Z" fill="#859EBC"/>
<path d="M138.881 187.375C138.881 179.939 144.876 173.912 152.271 173.912C159.667 173.912 165.662 179.939 165.662 187.375C165.662 194.81 159.667 200.837 152.271 200.837C144.876 200.837 138.881 194.81 138.881 187.375Z" fill="#A7BFDA"/>
<path d="M128.907 151.507L130.935 149.469C132.915 150.632 135.021 151.512 137.221 152.096V154.969C137.221 155.956 138.017 156.756 138.999 156.756L148.479 156.756C149.46 156.756 150.256 155.956 150.256 154.969V152.096C152.457 151.512 154.562 150.632 156.543 149.469L158.57 151.507C159.264 152.205 160.39 152.205 161.084 151.507L167.787 144.768C168.482 144.07 168.482 142.938 167.787 142.24L165.76 140.202C166.917 138.211 167.792 136.095 168.373 133.882H171.231C172.213 133.882 173.009 133.082 173.009 132.095L173.009 122.564C173.009 121.577 172.213 120.777 171.231 120.777H168.373C167.792 118.565 166.917 116.448 165.76 114.457L167.787 112.419C168.121 112.084 168.308 111.629 168.308 111.155C168.308 110.681 168.121 110.227 167.787 109.891L161.084 103.152C160.39 102.454 159.264 102.454 158.57 103.152L156.543 105.19C154.562 104.027 152.457 103.147 150.257 102.563V99.6897C150.257 98.7025 149.461 97.9026 148.479 97.9026H138.999C138.017 97.9026 137.221 98.7025 137.221 99.6897V102.563C135.021 103.147 132.915 104.027 130.935 105.19L128.907 103.152C128.213 102.454 127.088 102.454 126.394 103.152L119.69 109.891C119.357 110.226 119.17 110.681 119.17 111.155C119.17 111.629 119.357 112.083 119.69 112.419L121.718 114.457C120.561 116.448 119.686 118.565 119.105 120.777H116.246C115.265 120.777 114.469 121.577 114.469 122.564L114.469 132.095C114.469 133.082 115.265 133.882 116.246 133.882H119.105C119.686 136.094 120.561 138.211 121.718 140.202L119.69 142.24C118.996 142.938 118.996 144.07 119.69 144.768L126.394 151.507C127.087 152.205 128.213 152.205 128.907 151.507ZM139.352 148.927C136.609 148.367 134.02 147.286 131.657 145.712C130.952 145.243 130.016 145.338 129.419 145.938L127.651 147.716L123.461 143.504L125.229 141.726C125.827 141.125 125.92 140.184 125.454 139.476C123.889 137.1 122.813 134.497 122.256 131.739C122.088 130.906 121.36 130.308 120.514 130.308H118.024V124.351H120.514C121.36 124.351 122.088 123.752 122.256 122.92C122.813 120.162 123.889 117.559 125.454 115.183C125.92 114.474 125.827 113.533 125.229 112.932L123.461 111.155L127.65 106.943L129.418 108.721C130.016 109.321 130.952 109.416 131.657 108.947C134.02 107.373 136.609 106.292 139.352 105.732C140.181 105.563 140.776 104.83 140.776 103.98V101.477H146.701V103.981C146.701 104.83 147.296 105.563 148.125 105.732C150.868 106.292 153.457 107.374 155.82 108.947C156.525 109.416 157.461 109.321 158.059 108.721L159.827 106.943L164.016 111.155L162.248 112.932C161.65 113.533 161.556 114.475 162.023 115.183C163.588 117.559 164.664 120.162 165.221 122.92C165.389 123.753 166.117 124.351 166.963 124.351H169.454L169.454 130.308H166.963C166.118 130.308 165.39 130.907 165.221 131.74C164.664 134.497 163.589 137.1 162.024 139.476C161.557 140.185 161.651 141.126 162.249 141.727L164.017 143.504L159.827 147.716L158.059 145.939C157.462 145.338 156.525 145.243 155.821 145.713C153.457 147.286 150.868 148.368 148.125 148.927C147.297 149.096 146.702 149.829 146.702 150.679V153.182H140.776V150.678C140.776 149.828 140.181 149.096 139.352 148.927Z" fill="#124077"/>
<path d="M139.352 148.927C136.609 148.367 134.02 147.286 131.657 145.712C130.952 145.243 130.016 145.338 129.419 145.938L127.651 147.716L123.461 143.504L125.229 141.726C125.827 141.125 125.92 140.184 125.454 139.476C123.889 137.1 122.813 134.497 122.256 131.739C122.088 130.906 121.36 130.308 120.514 130.308H118.024V124.351H120.514C121.36 124.351 122.088 123.752 122.256 122.92C122.813 120.162 123.889 117.559 125.454 115.183C125.92 114.474 125.827 113.533 125.229 112.932L123.461 111.155L127.65 106.943L129.418 108.721C130.016 109.321 130.952 109.416 131.657 108.947C134.02 107.373 136.609 106.292 139.352 105.732C140.181 105.563 140.776 104.83 140.776 103.98V101.477H146.701V103.981C146.701 104.83 147.296 105.563 148.125 105.732C150.868 106.292 153.457 107.374 155.82 108.947C156.525 109.416 157.461 109.321 158.059 108.721L159.827 106.943L164.016 111.155L162.248 112.932C161.65 113.533 161.556 114.475 162.023 115.183C163.588 117.559 164.664 120.162 165.221 122.92C165.389 123.753 166.117 124.351 166.963 124.351H169.454L169.454 130.308H166.963C166.118 130.308 165.39 130.907 165.221 131.74C164.664 134.497 163.589 137.1 162.024 139.476C161.557 140.185 161.651 141.126 162.249 141.727L164.017 143.504L159.827 147.716L158.059 145.939C157.462 145.338 156.525 145.243 155.821 145.713C153.457 147.286 150.868 148.368 148.125 148.927C147.297 149.096 146.702 149.829 146.702 150.679V153.182H140.776V150.678C140.776 149.828 140.181 149.096 139.352 148.927Z" fill="#3A6292"/>
<path d="M159.737 127.329C159.737 118.461 152.56 111.246 143.739 111.246C134.918 111.246 127.741 118.461 127.741 127.329C127.741 136.198 134.918 143.413 143.739 143.413C152.56 143.413 159.737 136.198 159.737 127.329ZM131.296 127.329C131.296 120.432 136.878 114.82 143.739 114.82C150.6 114.82 156.182 120.432 156.182 127.329C156.182 134.227 150.6 139.839 143.739 139.839C136.878 139.839 131.296 134.227 131.296 127.329Z" fill="#124077"/>
<path d="M131.296 127.329C131.296 120.432 136.878 114.82 143.739 114.82C150.6 114.82 156.182 120.432 156.182 127.329C156.182 134.227 150.6 139.839 143.739 139.839C136.878 139.839 131.296 134.227 131.296 127.329Z" fill="#7694B7"/>
<path d="M123.712 181.656V179.507C126.012 179.193 128.124 178.281 129.888 176.93L131.403 178.453C132.098 179.151 133.223 179.151 133.917 178.453C134.611 177.755 134.611 176.624 133.917 175.926L132.402 174.403C133.746 172.629 134.653 170.505 134.965 168.194H137.103C138.085 168.194 138.88 167.394 138.88 166.406C138.88 165.419 138.085 164.619 137.103 164.619H134.965C134.653 162.307 133.746 160.184 132.402 158.41L133.917 156.887C134.611 156.189 134.611 155.058 133.917 154.36C133.223 153.662 132.098 153.662 131.403 154.36L129.888 155.883C128.124 154.532 126.012 153.62 123.712 153.306V151.157C123.712 150.17 122.916 149.37 121.935 149.37C120.953 149.37 120.157 150.17 120.157 151.157V153.306C117.857 153.62 115.745 154.532 113.981 155.883L112.466 154.36C111.772 153.662 110.646 153.662 109.952 154.36C109.605 154.709 109.431 155.166 109.431 155.624C109.431 156.081 109.605 156.538 109.952 156.887L111.467 158.41C110.123 160.184 109.216 162.308 108.904 164.62H106.766C105.785 164.62 104.989 165.42 104.989 166.407C104.989 167.394 105.785 168.194 106.766 168.194H108.904C109.216 170.506 110.123 172.629 111.467 174.403L109.952 175.926C109.605 176.275 109.431 176.732 109.431 177.19C109.431 177.647 109.605 178.105 109.952 178.453C110.646 179.151 111.772 179.151 112.466 178.454L113.981 176.931C115.745 178.282 117.857 179.193 120.157 179.507V181.656C120.157 182.644 120.953 183.444 121.935 183.444C122.916 183.444 123.712 182.643 123.712 181.656ZM112.336 166.406C112.336 161.085 116.642 156.756 121.935 156.756C127.227 156.756 131.533 161.085 131.533 166.406C131.533 171.728 127.227 176.057 121.935 176.057C116.642 176.057 112.336 171.728 112.336 166.406Z" fill="#4685D1"/>
<path d="M112.336 166.406C112.336 161.085 116.642 156.756 121.935 156.756C127.227 156.756 131.533 161.085 131.533 166.406C131.533 171.728 127.227 176.057 121.935 176.057C116.642 176.057 112.336 171.728 112.336 166.406Z" fill="#94C0F5"/>
<path d="M152.152 127.33C152.152 122.665 148.378 118.871 143.739 118.871C139.099 118.871 135.325 122.665 135.325 127.33C135.325 131.994 139.099 135.788 143.739 135.788C148.378 135.788 152.152 131.994 152.152 127.33ZM138.88 127.33C138.88 124.636 141.06 122.445 143.739 122.445C146.418 122.445 148.597 124.636 148.597 127.33C148.597 130.023 146.418 132.214 143.739 132.214C141.06 132.214 138.88 130.023 138.88 127.33Z" fill="#124077"/>
<path d="M138.88 127.33C138.88 124.636 141.06 122.445 143.739 122.445C146.418 122.445 148.597 124.636 148.597 127.33C148.597 130.023 146.418 132.214 143.739 132.214C141.06 132.214 138.88 130.023 138.88 127.33Z" fill="#D2ECFF"/>
<path d="M127.504 166.406C127.504 163.319 125.006 160.807 121.935 160.807C118.864 160.807 116.365 163.319 116.365 166.406C116.365 169.494 118.864 172.006 121.935 172.006C125.006 172.006 127.504 169.494 127.504 166.406ZM119.92 166.406C119.92 165.29 120.824 164.381 121.935 164.381C123.046 164.381 123.949 165.29 123.949 166.406C123.949 167.523 123.046 168.432 121.935 168.432C120.824 168.432 119.92 167.523 119.92 166.406Z" fill="#4685D1"/>
<path d="M119.92 166.406C119.92 165.29 120.824 164.381 121.935 164.381C123.046 164.381 123.949 165.29 123.949 166.406C123.949 167.523 123.046 168.432 121.935 168.432C120.824 168.432 119.92 167.523 119.92 166.406Z" fill="#D2ECFF"/>
<path d="M161.633 187.375C161.633 182.185 157.433 177.963 152.271 177.963C147.109 177.963 142.91 182.185 142.91 187.375C142.91 192.564 147.109 196.786 152.271 196.786C157.433 196.786 161.633 192.564 161.633 187.375ZM146.465 187.375C146.465 184.155 149.07 181.537 152.271 181.537C155.473 181.537 158.078 184.155 158.078 187.375C158.078 190.594 155.473 193.212 152.271 193.212C149.07 193.212 146.465 190.594 146.465 187.375Z" fill="#859EBC"/>
<path d="M146.465 187.375C146.465 184.155 149.07 181.537 152.271 181.537C155.473 181.537 158.078 184.155 158.078 187.375C158.078 190.594 155.473 193.212 152.271 193.212C149.07 193.212 146.465 190.594 146.465 187.375Z" fill="#D2ECFF"/>
<path d="M238.961 191.185L222.675 174.811C222.149 174.283 221.297 174.283 220.772 174.811L220.12 175.466L218.522 173.859C226.302 163.715 225.57 149.055 216.326 139.762C206.286 129.668 189.951 129.668 179.912 139.762C169.872 149.855 169.872 166.278 179.912 176.371C184.932 181.417 191.525 183.941 198.119 183.941C203.668 183.941 209.217 182.153 213.828 178.579L215.426 180.185L214.774 180.84C214.522 181.094 214.38 181.438 214.38 181.797C214.38 182.156 214.522 182.5 214.774 182.754L231.061 199.128C232.15 200.223 233.581 200.77 235.011 200.77C236.442 200.77 237.873 200.223 238.962 199.128C241.14 196.938 241.14 193.375 238.961 191.185ZM181.815 174.457C177.46 170.079 175.061 164.258 175.061 158.066C175.061 151.875 177.46 146.053 181.815 141.675C186.17 137.297 191.96 134.886 198.119 134.886C204.277 134.886 210.068 137.297 214.422 141.675C218.777 146.053 221.176 151.875 221.176 158.066C221.176 164.258 218.777 170.079 214.422 174.457C210.067 178.836 204.277 181.247 198.119 181.247C191.96 181.247 186.17 178.836 181.815 174.457ZM215.876 176.812C216.027 176.667 216.177 176.52 216.326 176.371C216.474 176.221 216.62 176.07 216.764 175.919L218.217 177.379L217.329 178.272L215.876 176.812ZM237.058 197.215C235.929 198.349 234.093 198.349 232.964 197.215L229.679 193.912L217.629 181.797L221.723 177.681L228.686 184.681L237.058 193.098C238.187 194.233 238.187 196.08 237.058 197.215Z" fill="#222831"/>
<path d="M215.876 176.812C216.027 176.667 216.177 176.52 216.326 176.371C216.474 176.221 216.62 176.07 216.764 175.919L218.217 177.379L217.329 178.272L215.876 176.812Z" fill="#859EBC"/>
<path d="M181.815 174.457C177.46 170.079 175.061 164.258 175.061 158.066C175.061 151.875 177.46 146.053 181.815 141.675C186.17 137.297 191.96 134.886 198.119 134.886C204.277 134.886 210.068 137.297 214.422 141.675C218.777 146.053 221.176 151.875 221.176 158.066C221.176 164.258 218.777 170.079 214.422 174.457C210.067 178.836 204.277 181.247 198.119 181.247C191.96 181.247 186.17 178.836 181.815 174.457Z" fill="#2E5F9B"/>
<path d="M221.723 177.681L217.629 181.797L229.679 193.912L228.686 184.681L221.723 177.681Z" fill="#9B5121"/>
<path d="M232.964 197.215C234.093 198.349 235.929 198.349 237.058 197.215C238.187 196.08 238.187 194.233 237.058 193.098L228.686 184.681L229.679 193.912L232.964 197.215Z" fill="#BA6228"/>
<path d="M212.415 143.693C208.596 139.854 203.519 137.74 198.119 137.74C192.718 137.74 187.641 139.854 183.822 143.693C180.004 147.532 177.9 152.637 177.9 158.066C177.9 163.496 180.004 168.6 183.822 172.439C187.641 176.279 192.718 178.393 198.119 178.393C203.519 178.393 208.596 176.279 212.415 172.439C216.234 168.6 218.337 163.496 218.337 158.066C218.337 152.637 216.234 147.532 212.415 143.693ZM210.512 170.526C207.202 173.854 202.8 175.687 198.119 175.687C193.437 175.687 189.036 173.854 185.725 170.526C178.892 163.656 178.892 152.477 185.725 145.606C189.036 142.278 193.437 140.446 198.119 140.446C202.8 140.446 207.202 142.278 210.512 145.606C217.346 152.477 217.346 163.656 210.512 170.526Z" fill="#222831"/>
<path d="M210.512 170.526C207.202 173.854 202.8 175.687 198.119 175.687C193.437 175.687 189.036 173.854 185.725 170.526C178.892 163.656 178.892 152.477 185.725 145.606C189.036 142.278 193.437 140.446 198.119 140.446C202.8 140.446 207.202 142.278 210.512 145.606C217.346 152.477 217.346 163.656 210.512 170.526Z" fill="#D2ECFF"/>
<path d="M206.302 144.514C205.667 144.126 204.84 144.328 204.453 144.967C204.067 145.605 204.269 146.438 204.904 146.826C205.793 147.369 206.621 148.024 207.364 148.771C207.627 149.035 207.971 149.167 208.316 149.167C208.66 149.167 209.004 149.035 209.267 148.771C209.793 148.243 209.793 147.386 209.267 146.858C208.372 145.958 207.375 145.169 206.302 144.514Z" fill="#222831"/>
<path d="M187.922 149.167C188.266 149.167 188.61 149.035 188.873 148.771C191.814 145.814 196.027 144.434 200.142 145.078C200.877 145.194 201.565 144.688 201.679 143.95C201.793 143.211 201.291 142.52 200.557 142.405C195.595 141.628 190.516 143.293 186.97 146.858C186.445 147.386 186.445 148.243 186.97 148.771C187.233 149.035 187.577 149.167 187.922 149.167Z" fill="#222831"/>
<path d="M191.21 169.231C190.368 168.703 189.582 168.074 188.873 167.361C188.348 166.833 187.495 166.833 186.97 167.361C186.445 167.89 186.445 168.746 186.97 169.275C187.823 170.132 188.771 170.89 189.787 171.527C190.008 171.666 190.254 171.732 190.497 171.732C190.946 171.732 191.385 171.506 191.641 171.094C192.034 170.461 191.841 169.626 191.21 169.231Z" fill="#222831"/>
<path d="M207.364 167.361C204.513 170.228 200.578 171.598 196.569 171.119C195.831 171.031 195.161 171.561 195.074 172.303C194.986 173.045 195.514 173.718 196.252 173.806C196.885 173.882 197.516 173.919 198.143 173.919C202.305 173.919 206.279 172.278 209.267 169.274C209.793 168.746 209.793 167.889 209.267 167.361C208.742 166.833 207.89 166.833 207.364 167.361Z" fill="#222831"/>
<path d="M190.41 155.255C190.47 155.143 190.571 155.06 190.692 155.023C190.813 154.986 190.943 154.999 191.055 155.059L191.895 155.509C192.085 154.599 192.535 153.765 193.189 153.109C193.868 152.427 194.702 151.992 195.577 151.808L195.128 150.963C195.098 150.908 195.079 150.847 195.073 150.784C195.066 150.721 195.072 150.658 195.09 150.597C195.108 150.537 195.138 150.48 195.178 150.431C195.217 150.382 195.266 150.342 195.322 150.312C195.377 150.282 195.438 150.264 195.501 150.258C195.563 150.251 195.626 150.258 195.686 150.276C195.747 150.295 195.802 150.325 195.851 150.366C195.899 150.406 195.939 150.456 195.968 150.512L196.603 151.706C197.853 151.716 199.048 152.22 199.93 153.109L200.267 152.77C200.356 152.68 200.406 152.558 200.406 152.431C200.406 152.304 200.356 152.182 200.267 152.092L199.93 151.754C199.84 151.664 199.79 151.542 199.79 151.415C199.79 151.288 199.84 151.166 199.93 151.076C200.019 150.986 200.14 150.936 200.267 150.936C200.393 150.936 200.514 150.986 200.604 151.076L200.941 151.415C201.209 151.684 201.36 152.05 201.36 152.431C201.36 152.813 201.209 153.178 200.941 153.448L200.604 153.787L201.278 154.464L202.289 153.448C202.378 153.358 202.5 153.307 202.626 153.307C202.752 153.307 202.874 153.358 202.963 153.448C203.052 153.538 203.103 153.66 203.103 153.787C203.103 153.914 203.052 154.036 202.963 154.125L201.952 155.142L202.626 155.82L202.963 155.481C203.231 155.211 203.595 155.06 203.974 155.06C204.353 155.06 204.717 155.211 204.985 155.481L205.322 155.82C205.411 155.909 205.462 156.031 205.462 156.158C205.462 156.285 205.411 156.407 205.322 156.497C205.233 156.587 205.112 156.638 204.985 156.638C204.859 156.638 204.737 156.587 204.648 156.497L204.311 156.158C204.222 156.069 204.1 156.018 203.974 156.018C203.848 156.018 203.726 156.069 203.637 156.158L203.3 156.497C204.194 157.396 204.696 158.615 204.696 159.885C204.696 161.156 204.194 162.375 203.3 163.274C202.406 164.172 201.194 164.677 199.93 164.677C198.666 164.677 197.453 164.172 196.56 163.274L196.223 163.613C196.133 163.702 196.083 163.824 196.083 163.951C196.083 164.078 196.133 164.2 196.223 164.29L196.56 164.629C196.649 164.719 196.699 164.841 196.699 164.968C196.699 165.095 196.649 165.217 196.56 165.307C196.47 165.397 196.349 165.447 196.223 165.447C196.096 165.447 195.975 165.397 195.886 165.307L195.549 164.968C195.28 164.698 195.13 164.333 195.13 163.951C195.13 163.57 195.28 163.204 195.549 162.935L195.886 162.596L195.212 161.918L194.2 162.935C194.111 163.025 193.99 163.075 193.863 163.075C193.737 163.075 193.616 163.025 193.526 162.935C193.437 162.845 193.387 162.723 193.387 162.596C193.387 162.469 193.437 162.347 193.526 162.257L194.538 161.241L193.863 160.563L193.526 160.902C193.258 161.172 192.895 161.323 192.515 161.323C192.136 161.323 191.772 161.172 191.504 160.902L191.167 160.563C191.078 160.473 191.028 160.351 191.028 160.224C191.028 160.097 191.078 159.975 191.167 159.885C191.257 159.796 191.378 159.745 191.504 159.745C191.631 159.745 191.752 159.796 191.841 159.885L192.178 160.224C192.268 160.314 192.389 160.365 192.515 160.365C192.642 160.365 192.763 160.314 192.852 160.224L193.189 159.885C192.27 158.961 191.805 157.752 191.793 156.541L190.606 155.903C190.495 155.843 190.411 155.741 190.375 155.62C190.338 155.498 190.351 155.367 190.41 155.255ZM194.538 159.885L197.234 162.596C197.89 163.257 198.764 163.654 199.691 163.712C200.618 163.771 201.535 163.487 202.269 162.915L196.897 157.514L194.538 159.885ZM197.571 156.836L202.943 162.237C203.512 161.499 203.794 160.578 203.736 159.646C203.678 158.714 203.283 157.835 202.626 157.175L199.93 154.464L197.571 156.836ZM199.256 153.787C198.877 153.405 198.422 153.108 197.92 152.915C197.419 152.723 196.882 152.639 196.347 152.67C195.41 152.721 194.526 153.119 193.863 153.787C193.199 154.452 192.803 155.342 192.752 156.284C192.722 156.822 192.805 157.361 192.996 157.865C193.188 158.369 193.483 158.827 193.863 159.208L199.256 153.787Z" fill="#222831"/>
<path d="M197.571 156.836L202.943 162.237C203.512 161.499 203.794 160.578 203.736 159.646C203.678 158.714 203.283 157.835 202.626 157.175L199.93 154.464L197.571 156.836Z" fill="#DA2525"/>
<path d="M194.538 159.885L197.234 162.596C197.89 163.257 198.764 163.654 199.691 163.712C200.618 163.771 201.535 163.487 202.269 162.915L196.897 157.514L194.538 159.885Z" fill="#DA2525"/>
<path d="M199.256 153.787C198.877 153.405 198.422 153.108 197.92 152.915C197.419 152.723 196.882 152.639 196.347 152.67C195.41 152.721 194.526 153.119 193.863 153.787C193.199 154.452 192.803 155.342 192.752 156.284C192.722 156.822 192.805 157.361 192.996 157.865C193.188 158.369 193.483 158.827 193.863 159.208L199.256 153.787Z" fill="#818181"/>
<defs>
<linearGradient id="paint0_linear_190_86" x1="89" y1="195" x2="345" y2="195" gradientUnits="userSpaceOnUse">
<stop stop-color="#FD7013"/>
<stop offset="1" stop-color="#EEF20F"/>
</linearGradient>
</defs>
</svg>
