<svg width="345" height="390" viewBox="0 0 345 390" fill="none" xmlns="http://www.w3.org/2000/svg">
<rect width="345" height="390" rx="15" fill="url(#paint0_linear_155_44)"/>
<path d="M296.746 100H49.5063C45.913 100 43 102.933 43 106.55V282.969C43 286.587 45.913 289.52 49.5063 289.52H296.746C300.339 289.52 303.252 286.587 303.252 282.969V106.55C303.252 102.933 300.339 100 296.746 100Z" fill="#222831"/>
<path d="M294.577 130.568H51.6751C49.2796 130.568 47.3376 132.523 47.3376 134.934V280.786C47.3376 283.198 49.2796 285.153 51.6751 285.153H294.577C296.973 285.153 298.915 283.198 298.915 280.786V134.934C298.915 132.523 296.973 130.568 294.577 130.568Z" fill="#EEEEEE"/>
<rect x="71.194" y="153.712" width="3.49345" height="65.0631" rx="1.74672" transform="rotate(-90 71.194 153.712)" fill="#E647C3"/>
<rect x="71.194" y="163.756" width="3.49345" height="52.0505" rx="1.74672" transform="rotate(-90 71.194 163.756)" fill="#E647C3"/>
<rect x="86.3755" y="206.987" width="3.49345" height="17.3502" rx="1.74672" transform="rotate(-90 86.3755 206.987)" fill="#E647C3"/>
<rect x="71.194" y="180.349" width="3.49345" height="26.0252" rx="1.74672" transform="rotate(-90 71.194 180.349)" fill="#59A9F2"/>
<rect x="110.232" y="206.987" width="3.49345" height="26.0252" rx="1.74672" transform="rotate(-90 110.232 206.987)" fill="#59A9F2"/>
<rect x="198.718" y="206.987" width="3.49345" height="26.0252" rx="1.74672" transform="rotate(-90 198.718 206.987)" fill="#87E4EA"/>
<rect x="231.249" y="206.987" width="3.49345" height="13.0126" rx="1.74672" transform="rotate(-90 231.249 206.987)" fill="#87E4EA"/>
<rect x="103.726" y="223.581" width="3.49345" height="17.3502" rx="1.74672" transform="rotate(-90 103.726 223.581)" fill="#87E4EA"/>
<rect x="86.3755" y="240.175" width="3.49345" height="21.6877" rx="1.74672" transform="rotate(-90 86.3755 240.175)" fill="#87E4EA"/>
<rect x="127.582" y="223.581" width="3.49345" height="17.3502" rx="1.74672" transform="rotate(-90 127.582 223.581)" fill="#87E4EA"/>
<rect x="103.726" y="180.349" width="3.49345" height="34.7003" rx="1.74672" transform="rotate(-90 103.726 180.349)" fill="#F3EE75"/>
<rect x="114.57" y="240.175" width="3.49345" height="21.6877" rx="1.74672" transform="rotate(-90 114.57 240.175)" fill="#F3EE75"/>
<rect x="129.751" y="163.756" width="3.49345" height="65.0631" rx="1.74672" transform="rotate(-90 129.751 163.756)" fill="#59A9F2"/>
<rect x="201.32" y="163.756" width="3.49345" height="26.0252" rx="1.74672" transform="rotate(-90 201.32 163.756)" fill="#12EBB7"/>
<rect x="86.3755" y="196.943" width="3.49345" height="30.3628" rx="1.74672" transform="rotate(-90 86.3755 196.943)" fill="#12EBB7"/>
<rect x="123.244" y="196.943" width="3.49345" height="30.3628" rx="1.74672" transform="rotate(-90 123.244 196.943)" fill="#12EBB7"/>
<rect x="142.763" y="153.712" width="3.49345" height="47.7129" rx="1.74672" transform="rotate(-90 142.763 153.712)" fill="#FD7013"/>
<rect x="198.718" y="196.943" width="3.49345" height="30.3628" rx="1.74672" transform="rotate(-90 198.718 196.943)" fill="#FD7013"/>
<rect x="235.587" y="196.943" width="3.49345" height="17.3502" rx="1.74672" transform="rotate(-90 235.587 196.943)" fill="#FD7013"/>
<rect x="259.443" y="196.943" width="3.49345" height="21.6877" rx="1.74672" transform="rotate(-90 259.443 196.943)" fill="#FD7013"/>
<path d="M221.159 185.389C221.158 183.558 220.769 181.94 219.982 180.552C219.21 179.187 218.053 178.042 216.501 177.137C203.69 169.701 190.866 162.286 178.059 154.842C174.606 152.835 171.258 152.909 167.831 154.944C162.732 157.972 137.202 172.697 129.595 177.133C126.462 178.959 124.937 181.754 124.936 185.386C124.931 200.342 124.936 215.297 124.931 230.254C124.932 232.044 125.304 233.631 126.057 234.999C126.83 236.405 128.003 237.581 129.59 238.506C137.198 242.943 162.732 257.667 167.83 260.695C171.258 262.732 174.606 262.805 178.06 260.797C190.868 253.352 203.692 245.939 216.505 238.502C218.093 237.577 219.266 236.4 220.039 234.995C220.79 233.627 221.163 232.04 221.164 230.25C221.164 230.25 221.164 200.346 221.159 185.389Z" fill="#5C8DBC"/>
<path d="M173.195 207.674L126.057 234.999C126.829 236.405 128.003 237.581 129.59 238.507C137.198 242.943 162.732 257.667 167.83 260.695C171.258 262.732 174.606 262.805 178.06 260.797C190.868 253.352 203.692 245.939 216.505 238.502C218.093 237.577 219.266 236.4 220.039 234.995L173.195 207.674Z" fill="#1A4674"/>
<path d="M159.233 215.768C161.976 220.589 167.132 223.841 173.048 223.841C178.999 223.841 184.185 220.548 186.914 215.675L173.195 207.674L159.233 215.768Z" fill="#1A4674"/>
<path d="M221.159 185.39C221.158 183.559 220.769 181.941 219.983 180.552L173.195 207.674L220.039 234.995C220.79 233.627 221.163 232.041 221.164 230.25C221.164 230.25 221.164 200.346 221.159 185.39Z" fill="#1B598E"/>
<path d="M218.583 209.627H214.922V213.313H211.261V209.627H207.601V205.942H211.261V202.257H214.922V205.942H218.583V209.627ZM205.226 209.627H201.566V213.313H197.905V209.627H194.245V205.942H197.905V202.257H201.566V205.942H205.226V209.627Z" fill="white"/>
<path d="M186.914 215.675C184.185 220.547 178.999 223.84 173.048 223.84C167.132 223.84 161.976 220.589 159.233 215.768C157.855 213.349 157.131 210.608 157.134 207.82C157.134 198.972 164.259 191.799 173.048 191.799C178.925 191.799 184.054 195.01 186.811 199.782L200.719 191.719C195.191 182.111 184.87 175.647 173.048 175.647C155.398 175.647 141.09 190.051 141.09 207.82C141.09 213.649 142.631 219.115 145.323 223.83C150.837 233.489 161.188 239.992 173.048 239.992C184.929 239.992 195.296 233.463 200.802 223.776L186.914 215.675Z" fill="white"/>
<path d="M285.902 130.568H294.577C296.973 130.568 298.915 132.523 298.915 134.934V280.786C298.915 283.198 296.973 285.153 294.577 285.153H285.902V130.568Z" fill="#DFDEDE"/>
<path d="M47.3376 134.934C47.3376 132.523 49.2795 130.568 51.6751 130.568H60.3502V285.153H51.6751C49.2795 285.153 47.3376 283.198 47.3376 280.786V134.934Z" fill="white"/>
<path d="M67.9408 123.144C72.133 123.144 75.5315 119.723 75.5315 115.502C75.5315 111.282 72.133 107.86 67.9408 107.86C63.7486 107.86 60.3501 111.282 60.3501 115.502C60.3501 119.723 63.7486 123.144 67.9408 123.144Z" fill="#FD7013"/>
<path d="M91.7973 123.144C95.9895 123.144 99.388 119.723 99.388 115.502C99.388 111.282 95.9895 107.86 91.7973 107.86C87.6051 107.86 84.2066 111.282 84.2066 115.502C84.2066 119.723 87.6051 123.144 91.7973 123.144Z" fill="#DFDEDE"/>
<path d="M115.654 123.144C119.846 123.144 123.244 119.723 123.244 115.502C123.244 111.282 119.846 107.86 115.654 107.86C111.461 107.86 108.063 111.282 108.063 115.502C108.063 119.723 111.461 123.144 115.654 123.144Z" fill="white"/>
<defs>
<linearGradient id="paint0_linear_155_44" x1="116" y1="195" x2="345" y2="195" gradientUnits="userSpaceOnUse">
<stop stop-color="#FD7013"/>
<stop offset="1" stop-color="#EEF20F"/>
</linearGradient>
</defs>
</svg>
