<svg width="345" height="390" viewBox="0 0 345 390" fill="none" xmlns="http://www.w3.org/2000/svg">
<rect width="345" height="390" fill="url(#paint0_linear_181_5)"/>
<path d="M296.746 100H49.5063C45.913 100 43 102.933 43 106.55V282.969C43 286.587 45.913 289.52 49.5063 289.52H296.746C300.339 289.52 303.252 286.587 303.252 282.969V106.55C303.252 102.933 300.339 100 296.746 100Z" fill="#222831"/>
<path d="M294.577 130.568H51.6751C49.2795 130.568 47.3375 132.523 47.3375 134.935V280.786C47.3375 283.198 49.2795 285.153 51.6751 285.153H294.577C296.973 285.153 298.915 283.198 298.915 280.786V134.935C298.915 132.523 296.973 130.568 294.577 130.568Z" fill="#EEEEEE"/>
<rect x="71.1941" y="153.712" width="3.49345" height="30.3628" rx="1.74672" transform="rotate(-90 71.1941 153.712)" fill="#E647C3"/>
<rect x="71.1941" y="170.306" width="3.49345" height="30.3628" rx="1.74672" transform="rotate(-90 71.1941 170.306)" fill="#E647C3"/>
<rect x="108.063" y="170.306" width="3.49345" height="30.3628" rx="1.74672" transform="rotate(-90 108.063 170.306)" fill="#59A9F2"/>
<rect x="99.3881" y="186.9" width="3.49345" height="30.3628" rx="1.74672" transform="rotate(-90 99.3881 186.9)" fill="#59A9F2"/>
<rect x="99.3881" y="196.943" width="3.49345" height="30.3628" rx="1.74672" transform="rotate(-90 99.3881 196.943)" fill="#59A9F2"/>
<rect x="86.3754" y="213.537" width="3.49345" height="47.7129" rx="1.74672" transform="rotate(-90 86.3754 213.537)" fill="#59A9F2"/>
<rect x="86.3754" y="230.131" width="3.49345" height="30.3628" rx="1.74672" transform="rotate(-90 86.3754 230.131)" fill="#F3EE75"/>
<rect x="71.1941" y="256.769" width="3.49345" height="17.3502" rx="1.74672" transform="rotate(-90 71.1941 256.769)" fill="#59A9F2"/>
<rect x="95.0504" y="256.769" width="3.49345" height="17.3502" rx="1.74672" transform="rotate(-90 95.0504 256.769)" fill="#12EBB7"/>
<rect x="99.3881" y="240.175" width="3.49345" height="30.3628" rx="1.74672" transform="rotate(-90 99.3881 240.175)" fill="#12EBB7"/>
<rect x="199.151" y="213.537" width="3.49345" height="34.7003" rx="1.74672" transform="rotate(-90 199.151 213.537)" fill="#87E4EA"/>
<rect x="203.489" y="240.175" width="3.49345" height="34.7003" rx="1.74672" transform="rotate(-90 203.489 240.175)" fill="#FD7013"/>
<rect x="244.696" y="240.175" width="3.49345" height="17.3502" rx="1.74672" transform="rotate(-90 244.696 240.175)" fill="#FD7013"/>
<rect x="268.552" y="240.175" width="3.49345" height="8.67508" rx="1.74672" transform="rotate(-90 268.552 240.175)" fill="#59A9F2"/>
<rect x="108.063" y="153.712" width="3.49345" height="26.0252" rx="1.74672" transform="rotate(-90 108.063 153.712)" fill="#87E4EA"/>
<rect x="168.789" y="153.712" width="3.49345" height="30.3628" rx="1.74672" transform="rotate(-90 168.789 153.712)" fill="#FD7013"/>
<rect x="140.595" y="153.712" width="3.49345" height="21.6877" rx="1.74672" transform="rotate(-90 140.595 153.712)" fill="#E547C3"/>
<rect x="199.151" y="170.306" width="3.49345" height="30.3628" rx="1.74672" transform="rotate(-90 199.151 170.306)" fill="#12EBB7"/>
<rect x="118.907" y="256.769" width="3.49345" height="17.3502" rx="1.74672" transform="rotate(-90 118.907 256.769)" fill="#FD7013"/>
<rect x="142.763" y="256.769" width="3.49345" height="30.3628" rx="1.74672" transform="rotate(-90 142.763 256.769)" fill="#F3EE75"/>
<path d="M285.902 130.568H294.577C296.973 130.568 298.915 132.523 298.915 134.935V280.786C298.915 283.198 296.973 285.153 294.577 285.153H285.902V130.568Z" fill="#DFDEDE"/>
<path d="M47.3375 134.935C47.3375 132.523 49.2794 130.568 51.6751 130.568H60.3501V285.153H51.6751C49.2794 285.153 47.3375 283.198 47.3375 280.786V134.935Z" fill="white"/>
<path d="M67.9408 123.144C72.133 123.144 75.5315 119.723 75.5315 115.502C75.5315 111.282 72.133 107.86 67.9408 107.86C63.7486 107.86 60.3501 111.282 60.3501 115.502C60.3501 119.723 63.7486 123.144 67.9408 123.144Z" fill="#FD7013"/>
<path d="M91.7972 123.144C95.9895 123.144 99.3879 119.723 99.3879 115.502C99.3879 111.282 95.9895 107.86 91.7972 107.86C87.605 107.86 84.2065 111.282 84.2065 115.502C84.2065 119.723 87.605 123.144 91.7972 123.144Z" fill="#DFDEDE"/>
<path d="M115.654 123.144C119.846 123.144 123.244 119.723 123.244 115.502C123.244 111.282 119.846 107.86 115.654 107.86C111.462 107.86 108.063 111.282 108.063 115.502C108.063 119.723 111.462 123.144 115.654 123.144Z" fill="white"/>
<g clip-path="url(#clip0_181_5)">
<path d="M220.839 159.389H124.979V255.895H220.839V159.389Z" fill="#F7DF1E"/>
<path d="M189.373 234.785C191.304 237.959 193.816 240.292 198.259 240.292C201.991 240.292 204.376 238.414 204.376 235.819C204.376 232.709 201.926 231.608 197.818 229.799L195.566 228.826C189.065 226.038 184.747 222.545 184.747 215.162C184.747 208.36 189.895 203.183 197.939 203.183C203.667 203.183 207.784 205.189 210.751 210.444L203.737 214.978C202.192 212.19 200.526 211.092 197.939 211.092C195.301 211.092 193.629 212.777 193.629 214.978C193.629 217.699 195.302 218.8 199.167 220.485L201.419 221.456C209.073 224.76 213.394 228.129 213.394 235.702C213.394 243.867 207.023 248.34 198.467 248.34C190.102 248.34 184.697 244.327 182.052 239.066L189.373 234.785ZM157.552 235.571C158.967 238.098 160.254 240.235 163.349 240.235C166.309 240.235 168.176 239.069 168.176 234.537V203.701H177.183V234.659C177.183 244.049 171.715 248.323 163.733 248.323C156.52 248.323 152.344 244.566 150.219 240.04L157.552 235.571Z" fill="black"/>
<rect x="216.502" y="159.389" width="4.33754" height="96.5065" fill="#DAC520"/>
<rect x="124.979" y="159.389" width="4.33754" height="96.5065" fill="#F4E677"/>
</g>
<defs>
<linearGradient id="paint0_linear_181_5" x1="89" y1="195" x2="345" y2="195" gradientUnits="userSpaceOnUse">
<stop stop-color="#FD7013"/>
<stop offset="1" stop-color="#EEF20F"/>
</linearGradient>
<clipPath id="clip0_181_5">
<rect x="124.979" y="159.389" width="95.8596" height="96.5065" rx="10" fill="white"/>
</clipPath>
</defs>
</svg>
