<svg width="345" height="390" viewBox="0 0 345 390" fill="none" xmlns="http://www.w3.org/2000/svg">
<rect width="345" height="390" rx="15" fill="url(#paint0_linear_155_44)"/>
<rect x="43" y="104" width="275" height="200" rx="10" fill="url(#paint1_linear_155_44)"/>
<path d="M288.746 95H41.5063C37.913 95 35 97.9326 35 101.55V277.969C35 281.587 37.913 284.52 41.5063 284.52H288.746C292.339 284.52 295.252 281.587 295.252 277.969V101.55C295.252 97.9326 292.339 95 288.746 95Z" fill="#222831"/>
<path d="M286.577 125.568H43.6751C41.2796 125.568 39.3376 127.523 39.3376 129.934V275.786C39.3376 278.198 41.2796 280.153 43.6751 280.153H286.577C288.973 280.153 290.915 278.198 290.915 275.786V129.934C290.915 127.523 288.973 125.568 286.577 125.568Z" fill="#EEEEEE"/>
<rect x="63.194" y="148.712" width="3.49345" height="65.0631" rx="1.74672" transform="rotate(-90 63.194 148.712)" fill="#E647C3"/>
<rect x="63.194" y="158.756" width="3.49345" height="52.0505" rx="1.74672" transform="rotate(-90 63.194 158.756)" fill="#E647C3"/>
<rect x="78.3755" y="201.987" width="3.49345" height="17.3502" rx="1.74672" transform="rotate(-90 78.3755 201.987)" fill="#E647C3"/>
<rect x="63.194" y="175.349" width="3.49345" height="26.0252" rx="1.74672" transform="rotate(-90 63.194 175.349)" fill="#59A9F2"/>
<rect x="102.232" y="201.987" width="3.49345" height="26.0252" rx="1.74672" transform="rotate(-90 102.232 201.987)" fill="#59A9F2"/>
<rect x="190.718" y="201.987" width="3.49345" height="26.0252" rx="1.74672" transform="rotate(-90 190.718 201.987)" fill="#87E4EA"/>
<rect x="223.249" y="201.987" width="3.49345" height="13.0126" rx="1.74672" transform="rotate(-90 223.249 201.987)" fill="#87E4EA"/>
<rect x="95.7256" y="218.581" width="3.49345" height="17.3502" rx="1.74672" transform="rotate(-90 95.7256 218.581)" fill="#87E4EA"/>
<rect x="78.3755" y="235.175" width="3.49345" height="21.6877" rx="1.74672" transform="rotate(-90 78.3755 235.175)" fill="#87E4EA"/>
<rect x="119.582" y="218.581" width="3.49345" height="17.3502" rx="1.74672" transform="rotate(-90 119.582 218.581)" fill="#87E4EA"/>
<rect x="95.7256" y="175.349" width="3.49345" height="34.7003" rx="1.74672" transform="rotate(-90 95.7256 175.349)" fill="#F3EE75"/>
<rect x="106.57" y="235.175" width="3.49345" height="21.6877" rx="1.74672" transform="rotate(-90 106.57 235.175)" fill="#F3EE75"/>
<rect x="121.751" y="158.756" width="3.49345" height="65.0631" rx="1.74672" transform="rotate(-90 121.751 158.756)" fill="#59A9F2"/>
<rect x="193.32" y="158.756" width="3.49345" height="26.0252" rx="1.74672" transform="rotate(-90 193.32 158.756)" fill="#12EBB7"/>
<rect x="78.3755" y="191.943" width="3.49345" height="30.3628" rx="1.74672" transform="rotate(-90 78.3755 191.943)" fill="#12EBB7"/>
<rect x="115.244" y="191.943" width="3.49345" height="30.3628" rx="1.74672" transform="rotate(-90 115.244 191.943)" fill="#12EBB7"/>
<rect x="134.763" y="148.712" width="3.49345" height="47.7129" rx="1.74672" transform="rotate(-90 134.763 148.712)" fill="#FD7013"/>
<rect x="190.718" y="191.943" width="3.49345" height="30.3628" rx="1.74672" transform="rotate(-90 190.718 191.943)" fill="#FD7013"/>
<rect x="227.587" y="191.943" width="3.49345" height="17.3502" rx="1.74672" transform="rotate(-90 227.587 191.943)" fill="#FD7013"/>
<rect x="251.443" y="191.943" width="3.49345" height="21.6877" rx="1.74672" transform="rotate(-90 251.443 191.943)" fill="#FD7013"/>
<path d="M213.159 180.389C213.158 178.558 212.769 176.94 211.982 175.552C211.21 174.187 210.053 173.042 208.501 172.137C195.69 164.701 182.866 157.286 170.059 149.842C166.606 147.835 163.258 147.909 159.831 149.944C154.732 152.972 129.202 167.697 121.595 172.133C118.462 173.959 116.937 176.754 116.936 180.386C116.931 195.342 116.936 210.297 116.931 225.254C116.932 227.044 117.304 228.631 118.057 229.999C118.83 231.405 120.003 232.581 121.59 233.506C129.198 237.943 154.732 252.667 159.83 255.695C163.258 257.732 166.606 257.805 170.06 255.797C182.868 248.352 195.692 240.939 208.505 233.502C210.093 232.577 211.266 231.4 212.039 229.995C212.79 228.627 213.163 227.04 213.164 225.25C213.164 225.25 213.164 195.346 213.159 180.389Z" fill="#5C8DBC"/>
<path d="M165.195 202.674L118.057 229.999C118.829 231.405 120.003 232.581 121.59 233.507C129.198 237.943 154.732 252.667 159.83 255.695C163.258 257.732 166.606 257.805 170.06 255.797C182.868 248.352 195.692 240.939 208.505 233.502C210.093 232.577 211.266 231.4 212.039 229.995L165.195 202.674Z" fill="#1A4674"/>
<path d="M151.233 210.768C153.976 215.589 159.132 218.841 165.048 218.841C170.999 218.841 176.185 215.548 178.914 210.675L165.195 202.674L151.233 210.768Z" fill="#1A4674"/>
<path d="M213.159 180.39C213.158 178.559 212.769 176.941 211.983 175.552L165.195 202.674L212.039 229.995C212.79 228.627 213.163 227.041 213.164 225.25C213.164 225.25 213.164 195.346 213.159 180.39Z" fill="#1B598E"/>
<path d="M210.583 204.627H206.922V208.313H203.261V204.627H199.601V200.942H203.261V197.257H206.922V200.942H210.583V204.627ZM197.226 204.627H193.566V208.313H189.905V204.627H186.245V200.942H189.905V197.257H193.566V200.942H197.226V204.627Z" fill="white"/>
<path d="M178.914 210.675C176.185 215.547 170.999 218.84 165.048 218.84C159.132 218.84 153.976 215.589 151.233 210.768C149.855 208.349 149.131 205.608 149.134 202.82C149.134 193.972 156.259 186.799 165.048 186.799C170.925 186.799 176.054 190.01 178.811 194.782L192.719 186.719C187.191 177.111 176.87 170.647 165.048 170.647C147.398 170.647 133.09 185.051 133.09 202.82C133.09 208.649 134.631 214.115 137.323 218.83C142.837 228.489 153.188 234.992 165.048 234.992C176.929 234.992 187.296 228.463 192.802 218.776L178.914 210.675Z" fill="white"/>
<path d="M277.902 125.568H286.577C288.973 125.568 290.915 127.523 290.915 129.934V275.786C290.915 278.198 288.973 280.153 286.577 280.153H277.902V125.568Z" fill="#DFDEDE"/>
<path d="M39.3376 129.934C39.3376 127.523 41.2795 125.568 43.6751 125.568H52.3502V280.153H43.6751C41.2795 280.153 39.3376 278.198 39.3376 275.786V129.934Z" fill="white"/>
<path d="M59.9408 118.144C64.133 118.144 67.5315 114.723 67.5315 110.502C67.5315 106.282 64.133 102.86 59.9408 102.86C55.7486 102.86 52.3501 106.282 52.3501 110.502C52.3501 114.723 55.7486 118.144 59.9408 118.144Z" fill="#FD7013"/>
<path d="M83.7973 118.144C87.9895 118.144 91.388 114.723 91.388 110.502C91.388 106.282 87.9895 102.86 83.7973 102.86C79.6051 102.86 76.2066 106.282 76.2066 110.502C76.2066 114.723 79.6051 118.144 83.7973 118.144Z" fill="#DFDEDE"/>
<path d="M107.654 118.144C111.846 118.144 115.244 114.723 115.244 110.502C115.244 106.282 111.846 102.86 107.654 102.86C103.461 102.86 100.063 106.282 100.063 110.502C100.063 114.723 103.461 118.144 107.654 118.144Z" fill="white"/>
<defs>
<linearGradient id="paint0_linear_155_44" x1="116" y1="195" x2="345" y2="195" gradientUnits="userSpaceOnUse">
<stop stop-color="#FD7013"/>
<stop offset="1" stop-color="#EEF20F"/>
</linearGradient>
<linearGradient id="paint1_linear_155_44" x1="173.5" y1="204" x2="318" y2="204" gradientUnits="userSpaceOnUse">
<stop stop-color="#E3630F"/>
<stop offset="1" stop-color="#D2D61D"/>
</linearGradient>
</defs>
</svg>
