<svg width="345" height="390" viewBox="0 0 345 390" fill="none" xmlns="http://www.w3.org/2000/svg">
<rect width="345" height="390" fill="url(#paint0_linear_190_167)"/>
<rect x="56" y="90.28" width="234" height="208.488" rx="15" fill="#222831"/>
<rect x="60.3884" y="94.972" width="225.094" height="199.104" rx="10" fill="url(#paint1_linear_190_167)"/>
<path d="M174.484 135.772H285.482V284.076C285.482 289.598 281.005 294.076 275.482 294.076H174.484V135.772Z" fill="#F8C2C2"/>
<path d="M278.706 135.976H285.482V287.232C285.482 290.974 282.449 294.008 278.706 294.008V135.976Z" fill="#E7B2B2"/>
<rect x="285.482" y="150.46" width="3.6139" height="41.3439" rx="1.80695" fill="#E6B2B2"/>
<rect x="287.734" y="149.412" width="2.26427" height="41.5706" rx="1.13213" fill="#F1D710"/>
<rect x="285.482" y="121.696" width="4.51737" height="32.3679" rx="2.25869" fill="#222831"/>
<rect x="285.482" y="158.824" width="4.51737" height="24.752" rx="2.25869" fill="#222831"/>
<rect x="285.482" y="187.86" width="4.51737" height="32.8439" rx="2.25869" fill="#222831"/>
<rect x="188.94" y="190.172" width="82.6034" height="59.8399" rx="7" fill="#222831"/>
<rect x="192.425" y="193.572" width="75.4401" height="52.8359" rx="5" fill="#CAF5F8"/>
<path d="M264.251 193.572C266.247 193.572 267.865 195.19 267.865 197.186V242.794C267.865 244.79 266.247 246.408 264.251 246.408V193.572Z" fill="#B0DDE0"/>
<path d="M192.425 197.186C192.425 195.19 194.043 193.572 196.038 193.572V246.408C194.043 246.408 192.425 244.79 192.425 242.794V197.186Z" fill="#E3F9FB"/>
<path d="M192.425 232.604H267.865V241.884C267.865 244.645 265.626 246.884 262.865 246.884H197.425C194.663 246.884 192.425 244.645 192.425 241.884V232.604Z" fill="#6AE777"/>
<path d="M192.425 232.604H196.038V246.884C194.043 246.884 192.425 245.266 192.425 243.27V232.604Z" fill="#93EB9C"/>
<path d="M264.251 232.604H268.316V242.818C268.316 245.063 266.496 246.884 264.251 246.884V232.604Z" fill="#5FD16B"/>
<path fill-rule="evenodd" clip-rule="evenodd" d="M238.565 232.604L215.614 215.468L196.038 230.083V232.604H238.565Z" fill="#6AE777"/>
<path d="M192.662 232.604H196.038V230.083L192.662 232.604Z" fill="#93EB9C"/>
<path fill-rule="evenodd" clip-rule="evenodd" d="M264.251 233.98L252.355 224.353L238.532 235.539H264.251V233.98Z" fill="#6AE777"/>
<path d="M189.459 232.683C188.887 231.822 189.096 230.627 189.926 230.011L214.291 211.952C215.123 211.335 216.261 211.517 216.856 212.362C217.475 213.239 217.271 214.49 216.407 215.128L192.005 233.132C191.172 233.746 190.032 233.546 189.459 232.683Z" fill="#222831"/>
<path d="M238.8 232.651C238.338 231.786 238.585 230.683 239.371 230.103L251.278 221.318C252.111 220.703 253.252 220.904 253.825 221.766C254.397 222.627 254.188 223.822 253.358 224.438L241.474 233.259C240.574 233.928 239.331 233.645 238.8 232.651Z" fill="#222831"/>
<path d="M270.445 236.233C269.872 237.096 268.731 237.297 267.897 236.682L251.386 224.5C250.772 224.047 250.467 223.262 250.607 222.499C250.863 221.11 252.403 220.48 253.516 221.308L269.98 233.561C270.809 234.178 271.017 235.373 270.445 236.233Z" fill="#222831"/>
<path d="M241.73 232.684C241.158 233.546 240.018 233.746 239.185 233.132L214.592 214.987C213.805 214.406 213.557 213.302 214.019 212.434C214.55 211.437 215.795 211.152 216.699 211.822L241.262 230.012C242.093 230.627 242.303 231.823 241.73 232.684Z" fill="#222831"/>
<ellipse cx="240.567" cy="210.844" rx="7.74407" ry="8.15998" fill="#222831"/>
<ellipse cx="240.567" cy="210.844" rx="4.13017" ry="4.35199" fill="#ECD353"/>
<rect x="188.94" y="146.652" width="82.6034" height="38.0799" rx="7" fill="#222831"/>
<path d="M196.039 149.78C194.043 149.78 192.425 151.398 192.425 153.394V178.058C192.425 180.054 194.043 181.672 196.039 181.672V149.78Z" fill="#A9D6EF"/>
<path fill-rule="evenodd" clip-rule="evenodd" d="M196.039 149.78H264.251V181.672H196.039V149.78Z" fill="#81C5EC"/>
<path d="M264.251 181.672C266.247 181.672 267.865 180.054 267.865 178.058V153.394C267.865 151.398 266.247 149.78 264.251 149.78V181.672Z" fill="#72AED0"/>
<rect x="192.553" y="264.699" width="3.80799" height="74.8594" rx="1.904" transform="rotate(-90 192.553 264.699)" fill="#222831"/>
<rect x="192.553" y="279.387" width="3.80799" height="74.8594" rx="1.904" transform="rotate(-90 192.553 279.387)" fill="#222831"/>
<path d="M60.3884 108.78C60.3884 103.257 64.8656 98.7799 70.3884 98.7799H170.87V135.772H60.3884V108.78Z" fill="#2A90EE"/>
<path d="M60.5176 105.624C60.5176 101.882 63.5513 98.8479 67.2936 98.8479V135.976H60.5176V105.624Z" fill="#54A7F3"/>
<ellipse cx="81.0395" cy="112.38" rx="7.74407" ry="8.15998" fill="#E94949"/>
<ellipse cx="132.666" cy="112.38" rx="7.74407" ry="8.15998" fill="white"/>
<ellipse cx="106.853" cy="112.38" rx="7.74407" ry="8.15998" fill="#CAF5F8"/>
<path d="M174.484 98.7799H275.483C281.006 98.7799 285.483 103.257 285.483 108.78V135.432H174.484V98.7799Z" fill="#E94949"/>
<path d="M278.707 98.8479C282.449 98.8479 285.483 101.882 285.483 105.624V135.5H278.707V98.8479Z" fill="#C83C3C"/>
<rect x="170.741" y="76" width="4.51737" height="237.048" rx="2.25869" fill="#222831"/>
<rect x="56.9036" y="135.976" width="4.75999" height="232.193" rx="2.38" transform="rotate(-90 56.9036 135.976)" fill="#222831"/>
<path d="M60.3884 135.772H170.87V294.076H70.3884C64.8656 294.076 60.3884 289.598 60.3884 284.076V135.772Z" fill="#CAF5F8"/>
<path d="M60.5176 135.976H67.2936V294.008C63.5513 294.008 60.5176 290.974 60.5176 287.232V135.976Z" fill="#E1FAFC"/>
<rect x="88.2671" y="207.58" width="51.6271" height="3.80799" rx="1.904" fill="#222831"/>
<rect x="88.7834" y="255.452" width="56.7899" height="3.80799" rx="1.904" fill="#222831"/>
<rect x="153.833" y="255.452" width="20.6509" height="3.80799" rx="1.904" fill="#222831"/>
<rect x="88.2671" y="243.484" width="33.5576" height="3.80799" rx="1.904" fill="#222831"/>
<rect x="130.085" y="243.484" width="44.3993" height="3.80799" rx="1.904" fill="#222831"/>
<rect x="88.2671" y="219.548" width="86.2173" height="3.80799" rx="1.904" fill="#222831"/>
<rect x="148.155" y="207.58" width="26.3298" height="3.80799" rx="1.904" fill="#222831"/>
<rect x="74.3276" y="195.612" width="38.7203" height="3.80799" rx="1.904" fill="#E94949"/>
<rect x="74.3276" y="231.516" width="38.7203" height="3.80799" rx="1.904" fill="#E94949"/>
<rect x="74.3276" y="267.42" width="23.2322" height="3.80799" rx="1.904" fill="#E94949"/>
<rect x="105.821" y="267.42" width="43.8831" height="3.80799" rx="1.904" fill="#E94949"/>
<rect x="121.309" y="195.612" width="18.0695" height="3.80799" rx="1.904" fill="#E94949"/>
<rect x="121.309" y="231.516" width="25.8136" height="3.80799" rx="1.904" fill="#E94949"/>
<rect width="37.953" height="5.18175" rx="2.59088" transform="matrix(0.246448 -0.969156 0.962377 0.271718 103.756 183.434)" fill="#222831"/>
<rect width="26.0666" height="5.39151" rx="2.69576" transform="matrix(-0.89751 0.440993 -0.404684 -0.914457 148.016 167.325)" fill="#222831"/>
<path d="M123.526 155.743C124.131 154.376 125.708 153.8 127.052 154.455L144.955 163.178C147.301 164.322 147.117 167.812 144.671 168.56C144 168.765 143.272 168.7 142.632 168.378L124.839 159.41C123.509 158.74 122.924 157.104 123.526 155.743Z" fill="#222831"/>
<rect width="26.0666" height="5.39151" rx="2.69576" transform="matrix(0.89751 -0.440993 0.404684 0.914457 73.2957 164.675)" fill="#222831"/>
<path d="M97.7853 176.257C97.1802 177.624 95.6034 178.201 94.2593 177.546L76.3567 168.822C74.0103 167.678 74.1942 164.188 76.6402 163.44C77.3113 163.235 78.0392 163.3 78.679 163.622L96.4725 172.59C97.8019 173.26 98.3875 174.896 97.7853 176.257Z" fill="#222831"/>
<defs>
<linearGradient id="paint0_linear_190_167" x1="89" y1="195" x2="345" y2="195" gradientUnits="userSpaceOnUse">
<stop stop-color="#FD7013"/>
<stop offset="1" stop-color="#EEF20F"/>
</linearGradient>
<linearGradient id="paint1_linear_190_167" x1="60.1011" y1="94.8649" x2="285.659" y2="94.8649" gradientUnits="userSpaceOnUse">
<stop offset="0.364367" stop-color="#FD7013"/>
<stop offset="1" stop-color="#EEF20F"/>
</linearGradient>
</defs>
</svg>
