<svg width="345" height="390" viewBox="0 0 345 390" fill="none" xmlns="http://www.w3.org/2000/svg">
<rect width="345" height="390" rx="15" fill="url(#paint0_linear_181_5)"/>
<rect x="39" y="99" width="275" height="200" rx="10" fill="url(#paint1_linear_181_5)"/>
<path d="M284.746 90H37.5063C33.913 90 31 92.9326 31 96.5502V272.969C31 276.587 33.913 279.52 37.5063 279.52H284.746C288.339 279.52 291.252 276.587 291.252 272.969V96.5502C291.252 92.9326 288.339 90 284.746 90Z" fill="#222831"/>
<path d="M282.577 120.568H39.6751C37.2795 120.568 35.3375 122.523 35.3375 124.935V270.786C35.3375 273.198 37.2795 275.153 39.6751 275.153H282.577C284.973 275.153 286.915 273.198 286.915 270.786V124.935C286.915 122.523 284.973 120.568 282.577 120.568Z" fill="#EEEEEE"/>
<rect x="59.1941" y="143.712" width="3.49345" height="30.3628" rx="1.74672" transform="rotate(-90 59.1941 143.712)" fill="#E647C3"/>
<rect x="59.1941" y="160.306" width="3.49345" height="30.3628" rx="1.74672" transform="rotate(-90 59.1941 160.306)" fill="#E647C3"/>
<rect x="96.0631" y="160.306" width="3.49345" height="30.3628" rx="1.74672" transform="rotate(-90 96.0631 160.306)" fill="#59A9F2"/>
<rect x="87.3881" y="176.9" width="3.49345" height="30.3628" rx="1.74672" transform="rotate(-90 87.3881 176.9)" fill="#59A9F2"/>
<rect x="87.3881" y="186.943" width="3.49345" height="30.3628" rx="1.74672" transform="rotate(-90 87.3881 186.943)" fill="#59A9F2"/>
<rect x="74.3754" y="203.537" width="3.49345" height="47.7129" rx="1.74672" transform="rotate(-90 74.3754 203.537)" fill="#59A9F2"/>
<rect x="74.3754" y="220.131" width="3.49345" height="30.3628" rx="1.74672" transform="rotate(-90 74.3754 220.131)" fill="#F3EE75"/>
<rect x="59.1941" y="246.769" width="3.49345" height="17.3502" rx="1.74672" transform="rotate(-90 59.1941 246.769)" fill="#59A9F2"/>
<rect x="83.0504" y="246.769" width="3.49345" height="17.3502" rx="1.74672" transform="rotate(-90 83.0504 246.769)" fill="#12EBB7"/>
<rect x="87.3881" y="230.175" width="3.49345" height="30.3628" rx="1.74672" transform="rotate(-90 87.3881 230.175)" fill="#12EBB7"/>
<rect x="187.151" y="203.537" width="3.49345" height="34.7003" rx="1.74672" transform="rotate(-90 187.151 203.537)" fill="#87E4EA"/>
<rect x="191.489" y="230.175" width="3.49345" height="34.7003" rx="1.74672" transform="rotate(-90 191.489 230.175)" fill="#FD7013"/>
<rect x="232.696" y="230.175" width="3.49345" height="17.3502" rx="1.74672" transform="rotate(-90 232.696 230.175)" fill="#FD7013"/>
<rect x="256.552" y="230.175" width="3.49345" height="8.67508" rx="1.74672" transform="rotate(-90 256.552 230.175)" fill="#59A9F2"/>
<rect x="96.0631" y="143.712" width="3.49345" height="26.0252" rx="1.74672" transform="rotate(-90 96.0631 143.712)" fill="#87E4EA"/>
<rect x="156.789" y="143.712" width="3.49345" height="30.3628" rx="1.74672" transform="rotate(-90 156.789 143.712)" fill="#FD7013"/>
<rect x="128.595" y="143.712" width="3.49345" height="21.6877" rx="1.74672" transform="rotate(-90 128.595 143.712)" fill="#E547C3"/>
<rect x="187.151" y="160.306" width="3.49345" height="30.3628" rx="1.74672" transform="rotate(-90 187.151 160.306)" fill="#12EBB7"/>
<rect x="106.907" y="246.769" width="3.49345" height="17.3502" rx="1.74672" transform="rotate(-90 106.907 246.769)" fill="#FD7013"/>
<rect x="130.763" y="246.769" width="3.49345" height="30.3628" rx="1.74672" transform="rotate(-90 130.763 246.769)" fill="#F3EE75"/>
<path d="M273.902 120.568H282.577C284.973 120.568 286.915 122.523 286.915 124.935V270.786C286.915 273.198 284.973 275.153 282.577 275.153H273.902V120.568Z" fill="#DFDEDE"/>
<path d="M35.3375 124.935C35.3375 122.523 37.2794 120.568 39.6751 120.568H48.3501V275.153H39.6751C37.2794 275.153 35.3375 273.198 35.3375 270.786V124.935Z" fill="white"/>
<path d="M55.9408 113.144C60.133 113.144 63.5315 109.723 63.5315 105.502C63.5315 101.282 60.133 97.8603 55.9408 97.8603C51.7486 97.8603 48.3501 101.282 48.3501 105.502C48.3501 109.723 51.7486 113.144 55.9408 113.144Z" fill="#FD7013"/>
<path d="M79.7972 113.144C83.9895 113.144 87.3879 109.723 87.3879 105.502C87.3879 101.282 83.9895 97.8603 79.7972 97.8603C75.605 97.8603 72.2065 101.282 72.2065 105.502C72.2065 109.723 75.605 113.144 79.7972 113.144Z" fill="#DFDEDE"/>
<path d="M103.654 113.144C107.846 113.144 111.244 109.723 111.244 105.502C111.244 101.282 107.846 97.8603 103.654 97.8603C99.4616 97.8603 96.0631 101.282 96.0631 105.502C96.0631 109.723 99.4616 113.144 103.654 113.144Z" fill="white"/>
<g clip-path="url(#clip0_181_5)">
<path d="M208.839 149.389H112.979V245.895H208.839V149.389Z" fill="#F7DF1E"/>
<path d="M177.373 224.785C179.304 227.959 181.816 230.292 186.259 230.292C189.991 230.292 192.376 228.414 192.376 225.819C192.376 222.709 189.926 221.608 185.818 219.799L183.566 218.826C177.065 216.038 172.747 212.545 172.747 205.162C172.747 198.36 177.895 193.183 185.939 193.183C191.667 193.183 195.784 195.189 198.751 200.444L191.737 204.978C190.192 202.19 188.526 201.092 185.939 201.092C183.301 201.092 181.629 202.777 181.629 204.978C181.629 207.699 183.302 208.8 187.167 210.485L189.419 211.456C197.073 214.76 201.394 218.129 201.394 225.702C201.394 233.867 195.023 238.34 186.467 238.34C178.102 238.34 172.697 234.327 170.052 229.066L177.373 224.785ZM145.552 225.571C146.967 228.098 148.254 230.235 151.349 230.235C154.309 230.235 156.176 229.069 156.176 224.537V193.701H165.183V224.659C165.183 234.049 159.715 238.323 151.733 238.323C144.52 238.323 140.344 234.566 138.219 230.04L145.552 225.571Z" fill="black"/>
<rect x="204.501" y="149.389" width="4.33754" height="96.5065" fill="#DAC520"/>
<rect x="112.979" y="149.389" width="4.33754" height="96.5065" fill="#F4E677"/>
</g>
<defs>
<linearGradient id="paint0_linear_181_5" x1="89" y1="195" x2="345" y2="195" gradientUnits="userSpaceOnUse">
<stop stop-color="#FD7013"/>
<stop offset="1" stop-color="#EEF20F"/>
</linearGradient>
<linearGradient id="paint1_linear_181_5" x1="169.5" y1="199" x2="314" y2="199" gradientUnits="userSpaceOnUse">
<stop stop-color="#E3630F"/>
<stop offset="1" stop-color="#D2D61D"/>
</linearGradient>
<clipPath id="clip0_181_5">
<rect x="112.979" y="149.389" width="95.8596" height="96.5065" rx="10" fill="white"/>
</clipPath>
</defs>
</svg>
