<svg width="345" height="390" viewBox="0 0 345 390" fill="none" xmlns="http://www.w3.org/2000/svg">
<rect width="345" height="390" rx="15" fill="url(#paint0_linear_155_129)"/>
<rect x="58.9703" y="165.012" width="230.234" height="43.8408" rx="21.9204" fill="url(#paint1_linear_155_129)"/>
<rect x="48.9969" y="208.853" width="248.271" height="46.252" rx="23.126" fill="url(#paint2_linear_155_129)"/>
<rect x="71.2777" y="255.105" width="238.722" height="39.8951" rx="19.9475" fill="url(#paint3_linear_155_129)"/>
<rect x="58.9703" y="105.169" width="234.69" height="31.1269" rx="15.5635" fill="url(#paint4_linear_155_129)"/>
<rect x="80.8267" y="136.296" width="229.173" height="28.7157" rx="14.3579" fill="url(#paint5_linear_155_129)"/>
<rect x="44.9733" y="154.843" width="230.234" height="43.8408" rx="21.9204" fill="#1F7FC5"/>
<rect x="35" y="198.683" width="248.271" height="46.252" rx="23.126" fill="#89B6D7"/>
<rect x="57.2808" y="244.935" width="238.722" height="39.8951" rx="19.9475" fill="#B5D9F3"/>
<rect x="44.9733" y="95" width="234.69" height="31.1269" rx="15.5635" fill="#81CAFF"/>
<rect x="66.8296" y="126.127" width="229.173" height="28.7157" rx="14.3579" fill="#4EB0F8"/>
<line y1="-5" x2="53.639" y2="-5" transform="matrix(0.807727 -0.589556 0.564556 0.825395 123.062 170.902)" stroke="#419ADA" stroke-width="10"/>
<line y1="-5" x2="27.2486" y2="-5" transform="matrix(0.807727 -0.589556 0.564556 0.825395 123.062 170.902)" stroke="#1A6EAB" stroke-width="10"/>
<path d="M144.282 153.089L145.13 154.843H141.948L144.282 153.089Z" fill="#419ADA"/>
<line y1="-5" x2="53.639" y2="-5" transform="matrix(0.807727 -0.589556 0.564556 0.825395 121.789 169.587)" stroke="#222831" stroke-width="10"/>
<path d="M214.141 130.73C214.141 129.181 213.997 127.64 213.712 126.127C213.415 124.547 212.964 122.997 212.365 121.503C211.192 118.577 209.472 115.919 207.305 113.68C205.137 111.441 202.564 109.665 199.732 108.453C196.9 107.241 193.865 106.618 190.8 106.618C187.734 106.618 184.699 107.241 181.867 108.453C179.035 109.665 176.462 111.441 174.295 113.68C172.127 115.919 170.408 118.577 169.235 121.503C168.636 122.997 168.185 124.547 167.887 126.127C167.602 127.64 167.458 129.181 167.458 130.73L190.8 130.73H214.141Z" fill="#70B1E0"/>
<path d="M214.141 130.73C214.141 144.047 203.691 154.843 190.8 154.843C177.908 154.843 167.458 144.047 167.458 130.73C167.458 129.156 167.604 127.617 167.883 126.127C180.614 126.127 180.599 126.127 191.967 126.127C203.334 126.127 204.805 126.127 213.717 126.127C213.995 127.617 214.141 129.156 214.141 130.73Z" fill="#419ADA"/>
<ellipse cx="184.211" cy="126.111" rx="26.0252" ry="27.1111" fill="#222831"/>
<ellipse cx="184.175" cy="126.127" rx="21.7856" ry="22.5049" fill="url(#paint6_linear_155_129)"/>
<path d="M148.572 206.575C148.572 227.761 131.947 198.683 111.438 198.683C90.9291 198.683 74.3033 227.761 74.3033 206.575C74.3033 203.87 74.5744 201.23 75.0899 198.683C78.6121 181.283 93.5476 168.214 111.438 168.214C129.328 168.214 144.264 181.283 147.786 198.683C148.301 201.23 148.572 203.87 148.572 206.575Z" fill="#1A6EAB"/>
<path d="M148.572 206.575C148.572 227.761 131.947 244.935 111.438 244.935C90.9291 244.935 74.3033 227.761 74.3033 206.575C74.3033 203.87 74.5744 201.23 75.0899 198.683C94.6743 198.683 93.5476 198.683 111.438 198.683C129.328 198.683 129.581 198.683 147.786 198.683C148.301 201.23 148.572 203.87 148.572 206.575Z" fill="#7DA4C0"/>
<line y1="-5" x2="53.4227" y2="-5" transform="matrix(0.882394 0.47051 -0.446984 0.894542 132.187 217.973)" stroke="#7DA4C0" stroke-width="10"/>
<line y1="-5" x2="53.4227" y2="-5" transform="matrix(0.882394 0.47051 -0.446984 0.894542 131.338 219.727)" stroke="#222831" stroke-width="10"/>
<ellipse cx="219.234" cy="251.95" rx="31.8296" ry="32.8806" fill="#7AA1BD"/>
<path d="M251.064 251.95C251.064 270.109 236.813 284.831 219.234 284.831C201.655 284.831 187.405 270.109 187.405 251.95C187.405 249.543 187.655 247.196 188.131 244.935C205.548 244.935 204.834 244.935 220.083 244.935C235.332 244.935 235.255 244.935 250.338 244.935C250.813 247.196 251.064 249.543 251.064 251.95Z" fill="#9ABCD5"/>
<ellipse cx="210.453" cy="244.778" rx="34.0497" ry="35.1111" fill="#222831"/>
<ellipse cx="210.275" cy="244.935" rx="29.7077" ry="30.6885" fill="url(#paint7_linear_155_129)"/>
<ellipse cx="101.581" cy="198.556" rx="39.2547" ry="40.4444" fill="#222831"/>
<ellipse cx="101.63" cy="198.683" rx="34.6589" ry="35.8033" fill="url(#paint8_linear_155_129)"/>
<g clip-path="url(#clip0_155_129)">
<path d="M116.936 202.054C118.343 203.474 119.829 204.81 121.092 206.373C121.65 207.067 122.178 207.784 122.582 208.59C123.154 209.736 122.636 210.997 121.641 211.065L115.458 211.062C113.864 211.199 112.591 210.536 111.522 209.409C110.666 208.509 109.873 207.55 109.05 206.619C108.713 206.239 108.359 205.88 107.937 205.597C107.093 205.031 106.361 205.205 105.878 206.114C105.387 207.039 105.276 208.063 105.228 209.094C105.161 210.598 104.721 210.993 103.259 211.062C100.133 211.214 97.1673 210.726 94.4118 209.097C91.9825 207.661 90.0987 205.634 88.459 203.34C85.2667 198.871 82.8219 193.961 80.6246 188.914C80.13 187.777 80.4917 187.166 81.7064 187.145C83.7234 187.104 85.7401 187.107 87.7594 187.142C88.5792 187.154 89.1219 187.64 89.4384 188.44C90.5297 191.212 91.865 193.849 93.541 196.293C93.9873 196.944 94.4425 197.595 95.0905 198.053C95.8075 198.56 96.3534 198.392 96.6907 197.567C96.9047 197.044 96.9985 196.48 97.0467 195.92C97.2065 193.992 97.2276 192.068 96.9473 190.147C96.7753 188.948 96.1216 188.172 94.9635 187.945C94.3726 187.829 94.4606 187.602 94.7467 187.254C95.2436 186.653 95.711 186.279 96.6428 186.279H103.63C104.73 186.503 104.975 187.013 105.125 188.157L105.131 196.175C105.119 196.617 105.345 197.931 106.117 198.224C106.735 198.432 107.142 197.922 107.512 197.517C109.185 195.683 110.379 193.515 111.446 191.271C111.92 190.284 112.327 189.259 112.721 188.234C113.013 187.475 113.472 187.101 114.301 187.117L121.026 187.123C121.225 187.123 121.427 187.126 121.62 187.16C122.753 187.36 123.064 187.864 122.714 189.007C122.162 190.8 121.089 192.295 120.04 193.796C118.919 195.399 117.719 196.947 116.607 198.56C115.585 200.033 115.666 200.775 116.936 202.054Z" fill="#222831"/>
</g>
<g clip-path="url(#clip1_155_129)">
<path d="M225.469 234.582C224.969 234.811 224.454 235.005 223.929 235.162C224.551 234.435 225.025 233.58 225.315 232.645C225.38 232.435 225.312 232.205 225.145 232.068C224.979 231.931 224.747 231.915 224.564 232.027C223.448 232.71 222.245 233.202 220.983 233.489C219.711 232.206 217.985 231.475 216.2 231.475C212.432 231.475 209.367 234.642 209.367 238.534C209.367 238.84 209.386 239.145 209.423 239.446C204.748 239.022 200.401 236.648 197.416 232.866C197.31 232.731 197.146 232.658 196.978 232.672C196.81 232.685 196.66 232.783 196.575 232.934C195.969 234.007 195.649 235.234 195.649 236.483C195.649 238.184 196.237 239.797 197.275 241.058C196.96 240.945 196.653 240.804 196.361 240.636C196.204 240.546 196.012 240.547 195.856 240.64C195.7 240.732 195.602 240.902 195.598 241.088C195.598 241.119 195.598 241.15 195.598 241.182C195.598 243.721 196.92 246.006 198.942 247.252C198.769 247.234 198.595 247.208 198.423 247.174C198.245 247.139 198.062 247.203 197.942 247.344C197.822 247.484 197.782 247.679 197.838 247.857C198.586 250.271 200.513 252.047 202.843 252.588C200.911 253.838 198.701 254.493 196.381 254.493C195.897 254.493 195.41 254.464 194.934 254.405C194.697 254.376 194.471 254.521 194.39 254.753C194.31 254.986 194.395 255.245 194.597 255.379C197.577 257.352 201.022 258.396 204.561 258.396C211.518 258.396 215.87 255.007 218.295 252.164C221.32 248.619 223.055 243.927 223.055 239.291C223.055 239.097 223.052 238.902 223.046 238.707C224.24 237.778 225.267 236.654 226.103 235.362C226.23 235.166 226.216 234.906 226.069 234.726C225.923 234.545 225.678 234.486 225.469 234.582Z" fill="#222831"/>
</g>
<g clip-path="url(#clip2_155_129)">
<path d="M179.66 126.77H181.753V135.673C181.753 135.849 181.891 135.991 182.061 135.991H185.61C185.781 135.991 185.918 135.849 185.918 135.673V126.812H188.325C188.481 126.812 188.613 126.691 188.631 126.53L188.997 123.253C189.007 123.162 188.979 123.072 188.921 123.004C188.862 122.937 188.778 122.898 188.691 122.898H185.919V120.843C185.919 120.224 186.241 119.91 186.878 119.91C186.969 119.91 188.691 119.91 188.691 119.91C188.861 119.91 188.999 119.768 188.999 119.592V116.583C188.999 116.408 188.861 116.265 188.691 116.265H186.193C186.175 116.264 186.136 116.263 186.078 116.263C185.645 116.263 184.139 116.351 182.949 117.482C181.63 118.735 181.813 120.235 181.857 120.495V122.898H179.659C179.489 122.898 179.351 123.04 179.351 123.216V126.452C179.351 126.628 179.489 126.77 179.66 126.77Z" fill="#222831"/>
</g>
<defs>
<linearGradient id="paint0_linear_155_129" x1="89" y1="195" x2="345" y2="195" gradientUnits="userSpaceOnUse">
<stop stop-color="#FD7013"/>
<stop offset="1" stop-color="#EEF20F"/>
</linearGradient>
<linearGradient id="paint1_linear_155_129" x1="62.5015" y1="186.567" x2="291.41" y2="186.567" gradientUnits="userSpaceOnUse">
<stop stop-color="#E3630F"/>
<stop offset="1" stop-color="#D2D61D"/>
</linearGradient>
<linearGradient id="paint2_linear_155_129" x1="52.8047" y1="231.593" x2="299.646" y2="231.593" gradientUnits="userSpaceOnUse">
<stop stop-color="#E3630F"/>
<stop offset="1" stop-color="#D2D61D"/>
</linearGradient>
<linearGradient id="paint3_linear_155_129" x1="74.939" y1="274.72" x2="312.287" y2="274.72" gradientUnits="userSpaceOnUse">
<stop stop-color="#E3630F"/>
<stop offset="1" stop-color="#D2D61D"/>
</linearGradient>
<linearGradient id="paint4_linear_155_129" x1="62.5698" y1="120.473" x2="295.909" y2="120.473" gradientUnits="userSpaceOnUse">
<stop stop-color="#E3630F"/>
<stop offset="1" stop-color="#D2D61D"/>
</linearGradient>
<linearGradient id="paint5_linear_155_129" x1="84.3415" y1="150.415" x2="312.195" y2="150.415" gradientUnits="userSpaceOnUse">
<stop stop-color="#E3630F"/>
<stop offset="1" stop-color="#D2D61D"/>
</linearGradient>
<linearGradient id="paint6_linear_155_129" x1="176.748" y1="122.181" x2="200.162" y2="141.052" gradientUnits="userSpaceOnUse">
<stop stop-color="#FD7013"/>
<stop offset="1" stop-color="#EEF20F"/>
</linearGradient>
<linearGradient id="paint7_linear_155_129" x1="196.27" y1="251.621" x2="221.668" y2="215.011" gradientUnits="userSpaceOnUse">
<stop stop-color="#FD7013"/>
<stop offset="1" stop-color="#EEF20F"/>
</linearGradient>
<linearGradient id="paint8_linear_155_129" x1="84.9726" y1="198.683" x2="136.324" y2="189.524" gradientUnits="userSpaceOnUse">
<stop stop-color="#FD7013"/>
<stop offset="1" stop-color="#EEF20F"/>
</linearGradient>
<clipPath id="clip0_155_129">
<rect width="42.4395" height="43.8408" fill="white" transform="translate(80.4103 176.763)"/>
</clipPath>
<clipPath id="clip1_155_129">
<rect width="31.8296" height="32.8806" fill="white" transform="translate(194.36 228.495)"/>
</clipPath>
<clipPath id="clip2_155_129">
<rect width="19.0978" height="19.7283" fill="white" transform="translate(174.626 116.263)"/>
</clipPath>
</defs>
</svg>
