<svg width="345" height="390" viewBox="0 0 345 390" fill="none" xmlns="http://www.w3.org/2000/svg">
<rect width="345" height="390" fill="url(#paint0_linear_155_129)"/>
<rect x="51.9733" y="159.843" width="230.234" height="43.8408" rx="21.9204" fill="#1F7FC5"/>
<rect x="42" y="203.683" width="248.271" height="46.252" rx="23.126" fill="#89B6D7"/>
<rect x="64.2808" y="249.935" width="238.722" height="39.8951" rx="19.9475" fill="#B5D9F3"/>
<rect x="51.9733" y="100" width="234.69" height="31.1269" rx="15.5635" fill="#81CAFF"/>
<rect x="73.8296" y="131.127" width="229.173" height="28.7157" rx="14.3579" fill="#4EB0F8"/>
<line y1="-5" x2="53.639" y2="-5" transform="matrix(0.807727 -0.589556 0.564556 0.825395 130.062 175.902)" stroke="#419ADA" stroke-width="10"/>
<line y1="-5" x2="27.2486" y2="-5" transform="matrix(0.807727 -0.589556 0.564556 0.825395 130.062 175.902)" stroke="#1A6EAB" stroke-width="10"/>
<path d="M151.282 158.089L152.13 159.843H148.948L151.282 158.089Z" fill="#419ADA"/>
<line y1="-5" x2="53.639" y2="-5" transform="matrix(0.807727 -0.589556 0.564556 0.825395 128.789 174.587)" stroke="#222831" stroke-width="10"/>
<path d="M221.141 135.73C221.141 134.181 220.997 132.64 220.712 131.127C220.415 129.547 219.964 127.997 219.365 126.503C218.192 123.577 216.472 120.919 214.305 118.68C212.137 116.441 209.564 114.665 206.732 113.453C203.9 112.241 200.865 111.618 197.8 111.618C194.734 111.618 191.699 112.241 188.867 113.453C186.035 114.665 183.462 116.441 181.295 118.68C179.127 120.919 177.408 123.577 176.235 126.503C175.636 127.997 175.185 129.547 174.887 131.127C174.602 132.64 174.458 134.181 174.458 135.73L197.8 135.73H221.141Z" fill="#70B1E0"/>
<path d="M221.141 135.73C221.141 149.047 210.691 159.843 197.8 159.843C184.908 159.843 174.458 149.047 174.458 135.73C174.458 134.156 174.604 132.617 174.883 131.127C187.614 131.127 187.599 131.127 198.967 131.127C210.334 131.127 211.805 131.127 220.717 131.127C220.995 132.617 221.141 134.156 221.141 135.73Z" fill="#419ADA"/>
<ellipse cx="191.211" cy="131.111" rx="26.0252" ry="27.1111" fill="#222831"/>
<ellipse cx="191.175" cy="131.127" rx="21.7856" ry="22.5049" fill="url(#paint1_linear_155_129)"/>
<path d="M155.572 211.575C155.572 232.761 138.947 203.683 118.438 203.683C97.9291 203.683 81.3033 232.761 81.3033 211.575C81.3033 208.87 81.5744 206.23 82.0899 203.683C85.6121 186.283 100.548 173.214 118.438 173.214C136.328 173.214 151.264 186.283 154.786 203.683C155.301 206.23 155.572 208.87 155.572 211.575Z" fill="#1A6EAB"/>
<path d="M155.572 211.575C155.572 232.761 138.947 249.935 118.438 249.935C97.9291 249.935 81.3033 232.761 81.3033 211.575C81.3033 208.87 81.5744 206.23 82.0899 203.683C101.674 203.683 100.548 203.683 118.438 203.683C136.328 203.683 136.581 203.683 154.786 203.683C155.301 206.23 155.572 208.87 155.572 211.575Z" fill="#7DA4C0"/>
<line y1="-5" x2="53.4227" y2="-5" transform="matrix(0.882394 0.47051 -0.446984 0.894542 139.187 222.973)" stroke="#7DA4C0" stroke-width="10"/>
<line y1="-5" x2="53.4227" y2="-5" transform="matrix(0.882394 0.47051 -0.446984 0.894542 138.338 224.727)" stroke="#222831" stroke-width="10"/>
<ellipse cx="226.234" cy="256.95" rx="31.8296" ry="32.8806" fill="#7AA1BD"/>
<path d="M258.064 256.95C258.064 275.109 243.813 289.831 226.234 289.831C208.655 289.831 194.405 275.109 194.405 256.95C194.405 254.543 194.655 252.196 195.131 249.935C212.548 249.935 211.834 249.935 227.083 249.935C242.332 249.935 242.255 249.935 257.338 249.935C257.813 252.196 258.064 254.543 258.064 256.95Z" fill="#9ABCD5"/>
<ellipse cx="217.453" cy="249.778" rx="34.0497" ry="35.1111" fill="#222831"/>
<ellipse cx="217.275" cy="249.935" rx="29.7077" ry="30.6885" fill="url(#paint2_linear_155_129)"/>
<ellipse cx="108.581" cy="203.556" rx="39.2547" ry="40.4444" fill="#222831"/>
<ellipse cx="108.63" cy="203.683" rx="34.6589" ry="35.8033" fill="url(#paint3_linear_155_129)"/>
<g clip-path="url(#clip0_155_129)">
<path d="M123.936 207.054C125.343 208.474 126.829 209.81 128.092 211.373C128.65 212.067 129.178 212.784 129.582 213.59C130.154 214.736 129.636 215.997 128.641 216.065L122.458 216.062C120.864 216.199 119.591 215.536 118.522 214.409C117.666 213.509 116.873 212.55 116.05 211.619C115.713 211.239 115.359 210.88 114.937 210.597C114.093 210.031 113.361 210.205 112.878 211.114C112.387 212.039 112.276 213.063 112.228 214.094C112.161 215.598 111.721 215.993 110.259 216.062C107.133 216.214 104.167 215.726 101.412 214.097C98.9825 212.661 97.0987 210.634 95.459 208.34C92.2667 203.871 89.8219 198.961 87.6246 193.914C87.13 192.777 87.4917 192.166 88.7064 192.145C90.7234 192.104 92.7401 192.107 94.7594 192.142C95.5792 192.154 96.1219 192.64 96.4384 193.44C97.5297 196.212 98.865 198.849 100.541 201.293C100.987 201.944 101.442 202.595 102.091 203.053C102.808 203.56 103.353 203.392 103.691 202.567C103.905 202.044 103.998 201.48 104.047 200.92C104.207 198.992 104.228 197.068 103.947 195.147C103.775 193.948 103.122 193.172 101.964 192.945C101.373 192.829 101.461 192.602 101.747 192.254C102.244 191.653 102.711 191.279 103.643 191.279H110.63C111.73 191.503 111.975 192.013 112.125 193.157L112.131 201.175C112.119 201.617 112.345 202.931 113.117 203.224C113.735 203.432 114.142 202.922 114.512 202.517C116.185 200.683 117.379 198.515 118.446 196.271C118.92 195.284 119.327 194.259 119.721 193.234C120.013 192.475 120.472 192.101 121.301 192.117L128.026 192.123C128.225 192.123 128.427 192.126 128.62 192.16C129.753 192.36 130.064 192.864 129.714 194.007C129.162 195.8 128.089 197.295 127.04 198.796C125.919 200.399 124.719 201.947 123.607 203.56C122.585 205.033 122.666 205.775 123.936 207.054Z" fill="#222831"/>
</g>
<g clip-path="url(#clip1_155_129)">
<path d="M232.469 239.582C231.969 239.811 231.454 240.005 230.929 240.162C231.551 239.435 232.025 238.58 232.315 237.645C232.38 237.435 232.312 237.205 232.145 237.068C231.979 236.931 231.747 236.915 231.564 237.027C230.448 237.71 229.245 238.202 227.983 238.489C226.711 237.206 224.985 236.475 223.2 236.475C219.432 236.475 216.367 239.642 216.367 243.534C216.367 243.84 216.386 244.145 216.423 244.446C211.748 244.022 207.401 241.648 204.416 237.866C204.31 237.731 204.146 237.658 203.978 237.672C203.81 237.685 203.66 237.783 203.575 237.934C202.969 239.007 202.649 240.234 202.649 241.483C202.649 243.184 203.237 244.797 204.275 246.058C203.96 245.945 203.653 245.804 203.361 245.636C203.204 245.546 203.012 245.547 202.856 245.64C202.7 245.732 202.602 245.902 202.598 246.088C202.598 246.119 202.598 246.15 202.598 246.182C202.598 248.721 203.92 251.006 205.942 252.252C205.769 252.234 205.595 252.208 205.423 252.174C205.245 252.139 205.062 252.203 204.942 252.344C204.822 252.484 204.782 252.679 204.838 252.857C205.586 255.271 207.513 257.047 209.843 257.588C207.911 258.838 205.701 259.493 203.381 259.493C202.897 259.493 202.41 259.464 201.934 259.405C201.697 259.376 201.471 259.521 201.39 259.753C201.31 259.986 201.395 260.245 201.597 260.379C204.577 262.352 208.022 263.396 211.561 263.396C218.518 263.396 222.87 260.007 225.295 257.164C228.32 253.619 230.055 248.927 230.055 244.291C230.055 244.097 230.052 243.902 230.046 243.707C231.24 242.778 232.267 241.654 233.103 240.362C233.23 240.166 233.216 239.906 233.069 239.726C232.923 239.545 232.678 239.486 232.469 239.582Z" fill="#222831"/>
</g>
<g clip-path="url(#clip2_155_129)">
<path d="M186.66 131.77H188.753V140.673C188.753 140.849 188.891 140.991 189.061 140.991H192.61C192.781 140.991 192.918 140.849 192.918 140.673V131.812H195.325C195.481 131.812 195.613 131.691 195.631 131.53L195.997 128.253C196.007 128.162 195.979 128.072 195.921 128.004C195.862 127.937 195.778 127.898 195.691 127.898H192.919V125.843C192.919 125.224 193.241 124.91 193.878 124.91C193.969 124.91 195.691 124.91 195.691 124.91C195.861 124.91 195.999 124.768 195.999 124.592V121.583C195.999 121.408 195.861 121.265 195.691 121.265H193.193C193.175 121.264 193.136 121.263 193.078 121.263C192.645 121.263 191.139 121.351 189.949 122.482C188.63 123.735 188.813 125.235 188.857 125.495V127.898H186.659C186.489 127.898 186.351 128.04 186.351 128.216V131.452C186.351 131.628 186.489 131.77 186.66 131.77Z" fill="#222831"/>
</g>
<defs>
<linearGradient id="paint0_linear_155_129" x1="89" y1="195" x2="345" y2="195" gradientUnits="userSpaceOnUse">
<stop stop-color="#FD7013"/>
<stop offset="1" stop-color="#EEF20F"/>
</linearGradient>
<linearGradient id="paint1_linear_155_129" x1="183.748" y1="127.181" x2="207.162" y2="146.052" gradientUnits="userSpaceOnUse">
<stop stop-color="#FD7013"/>
<stop offset="1" stop-color="#EEF20F"/>
</linearGradient>
<linearGradient id="paint2_linear_155_129" x1="203.27" y1="256.621" x2="228.668" y2="220.011" gradientUnits="userSpaceOnUse">
<stop stop-color="#FD7013"/>
<stop offset="1" stop-color="#EEF20F"/>
</linearGradient>
<linearGradient id="paint3_linear_155_129" x1="91.9726" y1="203.683" x2="143.324" y2="194.524" gradientUnits="userSpaceOnUse">
<stop stop-color="#FD7013"/>
<stop offset="1" stop-color="#EEF20F"/>
</linearGradient>
<clipPath id="clip0_155_129">
<rect width="42.4395" height="43.8408" fill="white" transform="translate(87.4103 181.763)"/>
</clipPath>
<clipPath id="clip1_155_129">
<rect width="31.8296" height="32.8806" fill="white" transform="translate(201.36 233.495)"/>
</clipPath>
<clipPath id="clip2_155_129">
<rect width="19.0978" height="19.7283" fill="white" transform="translate(181.626 121.263)"/>
</clipPath>
</defs>
</svg>
