<svg width="345" height="390" viewBox="0 0 345 390" fill="none" xmlns="http://www.w3.org/2000/svg">
<rect width="345" height="390" fill="url(#paint0_linear_190_194)"/>
<path d="M283.655 169.579C285.592 169.579 287.167 171.15 287.113 173.086C286.263 203.472 274.398 232.428 253.871 253.986C232.555 276.372 203.645 288.948 173.5 288.948C143.355 288.948 114.444 276.372 93.1287 253.986C72.6012 232.428 60.7363 203.472 59.8869 173.086C59.8328 171.15 61.4077 169.579 63.3441 169.579C65.2805 169.579 66.8449 171.15 66.9025 173.086C67.7497 201.519 78.8749 228.601 98.0872 248.778C118.088 269.783 145.215 282.317 173.5 282.317C201.785 282.317 228.912 269.783 248.912 248.778C268.125 228.601 279.25 201.519 280.097 173.086C280.155 171.15 281.719 169.579 283.655 169.579Z" fill="#222831"/>
<rect x="47.2087" y="288.948" width="252.582" height="6.63161" rx="3.3158" fill="#222831"/>
<ellipse cx="46.8932" cy="291.932" rx="7.89319" ry="8.28951" fill="#2B83EA"/>
<ellipse cx="299.475" cy="291.932" rx="7.89319" ry="8.28951" fill="#2B83EA"/>
<path d="M148.504 116.596C149.839 119.859 151.556 124.747 152.902 130.918H161.875C163.489 130.918 164.797 132.292 164.797 133.987H170.641C170.641 132.292 171.95 130.918 173.563 130.918L194.225 130.917C195.571 124.746 197.288 119.858 198.623 116.596H148.504Z" fill="#F2EBD9"/>
<path d="M164.797 133.987C164.797 135.682 163.489 137.056 161.875 137.056H154.029C154.129 137.727 154.226 138.404 154.315 139.097C156.177 153.671 155.422 175.853 141.642 199.729C156.521 216.169 165.359 237.567 166.591 260.259C166.625 260.897 166.469 261.53 166.145 262.071C165.263 263.539 164.797 265.234 164.797 266.973C164.797 270.973 167.241 274.385 170.642 275.651V208.83C167.241 207.563 164.797 204.151 164.797 200.151C164.797 195.074 168.73 190.944 173.564 190.944C178.398 190.944 182.33 195.074 182.33 200.151C182.33 204.151 179.887 207.563 176.486 208.83V275.651C179.887 274.384 182.33 270.973 182.33 266.972C182.33 265.233 181.864 263.538 180.983 262.071C180.658 261.53 180.502 260.897 180.537 260.259C181.768 237.567 190.606 216.168 205.485 199.729C191.705 175.853 190.95 153.67 192.813 139.096C192.901 138.404 192.998 137.726 193.099 137.055L173.564 137.056C171.949 137.056 170.642 135.682 170.642 133.987H164.797ZM166.643 146.12C167.475 164.731 163.538 182.847 154.943 199.964C154.19 201.463 152.422 202.037 150.995 201.247C149.568 200.456 149.021 198.6 149.774 197.101C157.876 180.965 161.588 163.91 160.806 146.408C160.73 144.715 161.975 143.278 163.587 143.198C163.634 143.196 163.681 143.195 163.727 143.195C165.278 143.196 166.57 144.477 166.643 146.12Z" fill="#9FD3DE"/>
<path d="M203.269 110.458C203.281 110.458 206.721 110.458 206.721 110.458L209.448 96.1378L137.679 96.1378L140.406 110.458L203.269 110.458Z" fill="#274B6D"/>
<path d="M131.249 93.6708L135.146 114.129C135.419 115.563 136.618 116.596 138.011 116.596H142.073C143.612 119.929 147.096 128.47 148.556 140.18C151.081 160.424 146.684 180.046 135.488 198.502C134.752 199.715 134.917 201.303 135.886 202.321C150.524 217.693 159.316 238.037 160.702 259.695C159.555 261.926 158.953 264.421 158.953 266.972C158.953 275.433 165.507 282.317 173.564 282.317C181.62 282.317 188.175 275.433 188.175 266.972C188.175 264.421 187.573 261.926 186.426 259.695C187.812 238.037 196.604 217.693 211.242 202.321C212.211 201.303 212.376 199.715 211.64 198.502C200.444 180.046 196.047 160.423 198.572 140.18C200.032 128.468 203.517 119.927 205.054 116.596H209.117C210.51 116.596 211.709 115.563 211.982 114.129L215.878 93.6708C216.05 92.7694 215.828 91.8344 215.273 91.1232C214.717 90.4125 213.888 90 213.013 90H134.115C133.239 90 132.41 90.4125 131.855 91.1232C131.3 91.834 131.078 92.7694 131.249 93.6708ZM209.449 96.1378L206.721 110.458H203.281C203.27 110.458 140.407 110.458 140.407 110.458L137.679 96.1378H209.449ZM194.226 130.917L173.564 130.918C171.95 130.918 170.642 132.292 170.642 133.987C170.642 135.682 171.95 137.056 173.564 137.056L193.099 137.055C192.998 137.726 192.901 138.404 192.813 139.097C190.951 153.671 191.706 175.853 205.486 199.729C190.607 216.169 181.769 237.567 180.537 260.259C180.503 260.897 180.658 261.53 180.983 262.071C181.865 263.539 182.331 265.234 182.331 266.973C182.331 270.973 179.887 274.385 176.486 275.651V208.83C179.887 207.563 182.331 204.151 182.331 200.151C182.331 195.074 178.398 190.944 173.564 190.944C168.73 190.944 164.798 195.074 164.798 200.151C164.798 204.151 167.241 207.563 170.642 208.83V275.651C167.241 274.384 164.798 270.973 164.798 266.972C164.798 265.233 165.264 263.538 166.145 262.071C166.47 261.53 166.625 260.897 166.591 260.259C165.36 237.567 156.522 216.168 141.642 199.729C155.423 175.853 156.178 153.67 154.315 139.096C154.227 138.404 154.13 137.726 154.029 137.055H161.875C163.489 137.055 164.797 135.682 164.797 133.987C164.797 132.291 163.489 130.918 161.875 130.918H152.902C151.556 124.746 149.839 119.858 148.504 116.595H198.624C197.289 119.858 195.572 124.746 194.226 130.917ZM173.564 203.219C171.952 203.219 170.642 201.843 170.642 200.15C170.642 198.458 171.952 197.082 173.564 197.082C175.175 197.082 176.486 198.458 176.486 200.15C176.486 201.843 175.175 203.219 173.564 203.219Z" fill="#222831"/>
<path d="M173.564 203.219C171.952 203.219 170.642 201.843 170.642 200.15C170.642 198.458 171.952 197.082 173.564 197.082C175.175 197.082 176.486 198.458 176.486 200.15C176.486 201.843 175.175 203.219 173.564 203.219Z" fill="white"/>
<path d="M163.587 143.199C161.975 143.278 160.73 144.715 160.806 146.409C161.588 163.91 157.876 180.966 149.774 197.101C149.021 198.6 149.568 200.457 150.995 201.247C152.422 202.038 154.19 201.463 154.943 199.965C163.539 182.847 167.475 164.732 166.643 146.121C166.57 144.477 165.278 143.196 163.727 143.196C163.681 143.196 163.634 143.197 163.587 143.199Z" fill="white"/>
<defs>
<linearGradient id="paint0_linear_190_194" x1="89" y1="195" x2="345" y2="195" gradientUnits="userSpaceOnUse">
<stop stop-color="#FD7013"/>
<stop offset="1" stop-color="#EEF20F"/>
</linearGradient>
</defs>
</svg>
