<svg width="90" height="103" viewBox="0 0 90 103" fill="none" xmlns="http://www.w3.org/2000/svg">
<path d="M36.4026 35.375C29.4674 35.4918 22.7226 37.5742 17.0152 41.3608C11.3078 45.1475 6.89219 50.4695 4.32274 56.6587C1.7533 62.8478 1.14458 69.6283 2.57302 76.1487C4.00145 82.6691 7.40338 88.6387 12.3516 93.3081C17.2999 97.9775 23.5739 101.139 30.386 102.394C37.198 103.65 44.2444 102.944 50.6404 100.366C57.0364 97.7877 62.4969 93.4517 66.3364 87.9024C70.1758 82.353 72.2229 75.8377 72.2208 69.1745C72.1805 64.6956 71.2219 60.2682 69.3998 56.1453C67.5777 52.0224 64.9278 48.2848 61.6015 45.1459C58.2752 42.0071 54.3378 39.5286 50.0141 37.8521C45.6903 36.1756 41.0651 35.3338 36.4026 35.375V35.375ZM25.6215 61.485L11.869 69.0809L25.6215 77.0044V82.2295L6.36477 71.4673V66.7881L25.6215 56.0103V61.485ZM32.9767 84.8031L29.2585 84.538L38.2699 53.5615H41.9881L32.9767 84.8031ZM66.4405 71.4673L47.1838 82.2295V77.0824L60.9363 69.1433L47.1838 61.5474V56.0727L66.4405 66.7881V71.4673Z" fill="#FD7013"/>
<path d="M65.1742 46.7141L67.2037 35.796C60.8498 30.1367 52.9133 26.3838 44.3694 24.9983C35.8255 23.6129 27.0463 24.6552 19.1106 27.9973L17.0486 39.0246C24.6206 34.3002 33.7591 32.4694 42.6657 33.8925C51.5723 35.3156 59.6019 39.8895 65.1742 46.7141V46.7141Z" fill="#FD7013"/>
<path d="M77.7575 38.7127L77.4653 31.4911L90 28.2469L48.8075 0L0 12.6651L19.484 26.0476C27.4326 22.7437 36.212 21.7394 44.746 23.1579C53.2799 24.5764 61.1976 28.356 67.5284 34.0335V34.0335L74.6076 32.1618L74.8674 38.7127L73.2437 42.3781L73.6172 51.5806L79.8845 51.3466L79.5111 42.1442L77.7575 38.7127Z" fill="#FD7013"/>
</svg>
