<svg width="900" height="900" viewBox="0 0 900 900" fill="none" xmlns="http://www.w3.org/2000/svg">
<circle cx="450" cy="450" r="450" fill="#FD7013"/>
<path d="M425.821 336.114C428.806 343.409 432.645 354.337 435.655 368.135H455.716C459.324 368.135 462.249 371.206 462.249 374.995H475.315C475.315 371.207 478.24 368.135 481.847 368.135L528.042 368.133C531.052 354.336 534.89 343.408 537.875 336.114H425.821Z" fill="#D76114"/>
<path d="M462.248 374.996C462.248 378.786 459.322 381.857 455.714 381.857H438.172C438.397 383.357 438.614 384.872 438.812 386.42C442.976 419.004 441.287 468.598 410.479 521.978C443.745 558.732 463.504 606.574 466.257 657.307C466.335 658.734 465.986 660.149 465.26 661.359C463.289 664.639 462.248 668.428 462.248 672.316C462.248 681.261 467.71 688.887 475.314 691.72V542.324C467.71 539.492 462.248 531.865 462.248 522.921C462.248 511.571 471.039 502.337 481.847 502.337C492.655 502.337 501.447 511.571 501.447 522.921C501.447 531.865 495.984 539.492 488.38 542.324V691.719C495.984 688.887 501.447 681.26 501.447 672.315C501.447 668.427 500.405 664.638 498.434 661.358C497.709 660.149 497.36 658.733 497.437 657.306C500.19 606.573 519.948 558.731 553.215 521.977C522.407 468.597 520.719 419.003 524.882 386.419C525.08 384.87 525.297 383.355 525.522 381.854L481.847 381.857C478.238 381.857 475.314 378.786 475.314 374.996H462.248ZM466.375 402.123C468.235 443.731 459.433 484.233 440.216 522.503C438.533 525.854 434.579 527.137 431.39 525.371C428.198 523.604 426.975 519.453 428.659 516.101C446.774 480.027 455.072 441.896 453.323 402.766C453.154 398.981 455.938 395.769 459.543 395.59C459.647 395.586 459.751 395.583 459.854 395.583C463.322 395.584 466.211 398.448 466.375 402.123Z" fill="#D76114"/>
<path d="M548.261 322.392C548.287 322.392 555.979 322.392 555.979 322.392L562.077 290.375H401.62L407.717 322.392H548.261Z" fill="#D76114"/>
<path d="M387.244 284.86L395.955 330.598C396.566 333.806 399.247 336.114 402.361 336.114H411.444C414.884 343.567 422.673 362.662 425.938 388.842C431.582 434.101 421.751 477.971 396.721 519.234C395.074 521.947 395.445 525.497 397.611 527.772C430.338 562.14 449.994 607.623 453.092 656.045C450.529 661.033 449.183 666.611 449.183 672.315C449.182 691.232 463.835 706.621 481.848 706.621C499.86 706.621 514.514 691.232 514.514 672.315C514.514 666.611 513.168 661.033 510.604 656.045C513.703 607.623 533.359 562.141 566.086 527.772C568.252 525.497 568.622 521.947 566.976 519.234C541.945 477.971 532.115 434.1 537.759 388.842C541.024 362.657 548.815 343.561 552.252 336.114H561.335C564.449 336.114 567.13 333.806 567.741 330.598L576.451 284.86C576.835 282.844 576.338 280.754 575.098 279.164C573.856 277.575 572.003 276.653 570.045 276.653H393.65C391.693 276.653 389.839 277.575 388.598 279.164C387.356 280.753 386.86 282.844 387.244 284.86ZM562.077 290.375L555.979 322.391H548.288C548.262 322.391 407.717 322.391 407.717 322.391L401.62 290.375H562.077ZM528.042 368.133L481.848 368.135C478.24 368.135 475.315 371.207 475.315 374.995C475.315 378.786 478.241 381.857 481.849 381.857L525.523 381.855C525.299 383.356 525.082 384.871 524.884 386.42C520.72 419.004 522.408 468.598 553.217 521.978C519.951 558.732 500.192 606.574 497.439 657.307C497.361 658.734 497.709 660.149 498.436 661.358C500.406 664.639 501.448 668.428 501.448 672.316C501.448 681.261 495.986 688.887 488.382 691.72V542.324C495.986 539.492 501.448 531.865 501.448 522.921C501.448 511.571 492.656 502.337 481.849 502.337C471.041 502.337 462.249 511.571 462.249 522.921C462.249 531.865 467.712 539.492 475.315 542.324V691.719C467.712 688.887 462.249 681.26 462.249 672.315C462.249 668.427 463.291 664.638 465.261 661.358C465.987 660.149 466.335 658.733 466.259 657.306C463.505 606.573 443.747 558.731 410.48 521.977C441.289 468.597 442.977 419.003 438.813 386.419C438.616 384.871 438.399 383.355 438.174 381.856H455.715C459.323 381.856 462.248 378.785 462.248 374.995C462.248 371.205 459.323 368.134 455.715 368.134H435.654C432.644 354.336 428.806 343.408 425.82 336.113H537.875C534.89 343.408 531.051 354.336 528.042 368.133ZM481.848 529.781C478.245 529.781 475.315 526.703 475.315 522.92C475.315 519.136 478.245 516.058 481.848 516.058C485.451 516.058 488.381 519.136 488.381 522.92C488.381 526.703 485.451 529.781 481.848 529.781Z" fill="#D76114"/>
<path d="M481.848 529.781C478.245 529.781 475.315 526.703 475.315 522.92C475.315 519.136 478.245 516.058 481.848 516.058C485.451 516.058 488.381 519.136 488.381 522.92C488.381 526.703 485.451 529.781 481.848 529.781Z" fill="#D76114"/>
<path d="M459.544 395.591C455.94 395.769 453.156 398.982 453.325 402.767C455.073 441.896 446.775 480.028 428.661 516.102C426.977 519.454 428.2 523.605 431.391 525.372C434.581 527.139 438.534 525.855 440.217 522.504C459.435 484.234 468.236 443.733 466.376 402.124C466.212 398.448 463.323 395.585 459.855 395.585C459.752 395.584 459.649 395.587 459.544 395.591Z" fill="#D76114"/>
<path d="M728.396 425C732.725 425 736.247 428.512 736.126 432.839C734.227 500.776 707.7 565.512 661.806 613.711C614.15 663.76 549.514 691.877 482.118 691.877C414.721 691.877 350.086 663.76 302.429 613.711C256.535 565.512 230.009 500.776 228.11 432.839C227.989 428.512 231.51 425 235.839 425C240.168 425 243.666 428.512 243.795 432.839C245.689 496.408 270.562 556.958 313.515 602.068C358.231 649.029 418.879 677.05 482.118 677.05C545.356 677.05 606.004 649.029 650.72 602.068C693.673 556.958 718.547 496.408 720.44 432.839C720.569 428.512 724.067 425 728.396 425Z" fill="#D76114"/>
<rect x="200.353" y="691.861" width="564.706" height="14.8265" rx="7.41325" fill="#D76114"/>
<ellipse cx="199.647" cy="698.533" rx="17.6471" ry="18.5331" fill="#D76114"/>
<ellipse cx="764.353" cy="698.533" rx="17.6471" ry="18.5331" fill="#D76114"/>
<path d="M696.984 411.918C701.313 411.918 704.834 415.43 704.713 419.757C702.814 487.694 676.288 552.43 630.394 600.628C582.737 650.678 518.102 678.795 450.705 678.795C383.309 678.795 318.674 650.678 271.017 600.629C225.123 552.43 198.596 487.694 196.697 419.757C196.576 415.43 200.098 411.918 204.427 411.918C208.756 411.918 212.254 415.43 212.383 419.757C214.277 483.326 239.15 543.876 282.103 588.986C326.819 635.947 387.467 663.968 450.705 663.968C513.944 663.968 574.592 635.947 619.308 588.986C662.261 543.876 687.134 483.326 689.028 419.757C689.157 415.43 692.655 411.918 696.984 411.918Z" fill="#222831"/>
<rect x="168.353" y="678.795" width="564.706" height="14.8265" rx="7.41325" fill="#222831"/>
<ellipse cx="167.647" cy="685.467" rx="17.6471" ry="18.5331" fill="#2B83EA"/>
<ellipse cx="732.353" cy="685.467" rx="17.6471" ry="18.5331" fill="#2B83EA"/>
<path d="M394.82 293.461C397.806 300.756 401.644 311.684 404.654 325.482H424.715C428.323 325.482 431.248 328.553 431.248 332.342H444.315C444.315 328.554 447.24 325.482 450.847 325.482L497.042 325.48C500.051 311.683 503.889 300.755 506.875 293.461H394.82Z" fill="#F2EBD9"/>
<path d="M431.249 332.343C431.249 336.133 428.323 339.204 424.715 339.204H407.173C407.398 340.704 407.615 342.219 407.813 343.767C411.977 376.351 410.288 425.945 379.48 479.325C412.746 516.079 432.505 563.921 435.258 614.654C435.336 616.081 434.987 617.496 434.261 618.706C432.29 621.986 431.249 625.775 431.249 629.663C431.249 638.608 436.711 646.235 444.315 649.067V499.671C436.711 496.839 431.249 489.212 431.249 480.268C431.249 468.918 440.04 459.684 450.848 459.684C461.656 459.684 470.448 468.918 470.448 480.268C470.448 489.212 464.985 496.839 457.381 499.671V649.066C464.985 646.234 470.448 638.607 470.448 629.662C470.448 625.774 469.406 621.985 467.435 618.705C466.71 617.496 466.361 616.08 466.438 614.653C469.191 563.92 488.949 516.078 522.216 479.324C491.408 425.944 489.719 376.35 493.883 343.766C494.081 342.217 494.298 340.702 494.523 339.201L450.848 339.204C447.239 339.204 444.315 336.133 444.315 332.343H431.249ZM435.376 359.47C437.236 401.078 428.434 441.58 409.217 479.85C407.534 483.201 403.58 484.484 400.391 482.718C397.199 480.951 395.976 476.8 397.66 473.448C415.775 437.374 424.073 399.243 422.324 360.113C422.155 356.328 424.939 353.116 428.544 352.937C428.648 352.933 428.752 352.93 428.855 352.93C432.323 352.931 435.212 355.795 435.376 359.47Z" fill="#9FD3DE"/>
<path d="M517.261 279.739C517.287 279.739 524.979 279.739 524.979 279.739L531.077 247.722L370.62 247.722L376.717 279.739H517.261Z" fill="#274B6D"/>
<path d="M356.245 242.207L364.955 287.945C365.566 291.153 368.247 293.461 371.361 293.461H380.444C383.884 300.914 391.673 320.009 394.938 346.189C400.582 391.448 390.752 435.318 365.721 476.581C364.075 479.294 364.445 482.844 366.611 485.119C399.338 519.487 418.994 564.971 422.093 613.392C419.529 618.38 418.183 623.959 418.183 629.663C418.182 648.579 432.836 663.969 450.848 663.969C468.861 663.969 483.514 648.579 483.514 629.663C483.514 623.959 482.168 618.38 479.605 613.392C482.703 564.971 502.359 519.488 535.086 485.119C537.252 482.844 537.623 479.294 535.976 476.581C510.946 435.318 501.115 391.447 506.759 346.189C510.025 320.004 517.816 300.908 521.252 293.461H530.335C533.449 293.461 536.13 291.153 536.741 287.945L545.452 242.207C545.835 240.192 545.339 238.101 544.098 236.511C542.857 234.922 541.003 234 539.046 234H362.651C360.693 234 358.84 234.922 357.598 236.511C356.357 238.1 355.86 240.192 356.245 242.207ZM531.077 247.722L524.98 279.739H517.289C517.263 279.739 376.718 279.739 376.718 279.739L370.62 247.722H531.077ZM497.043 325.48L450.848 325.482C447.24 325.482 444.316 328.554 444.316 332.342C444.316 336.133 447.241 339.204 450.849 339.204L494.524 339.202C494.299 340.704 494.082 342.219 493.884 343.767C489.721 376.351 491.409 425.945 522.217 479.325C488.951 516.079 469.193 563.921 466.439 614.654C466.361 616.081 466.71 617.496 467.436 618.706C469.407 621.986 470.449 625.775 470.449 629.663C470.449 638.608 464.986 646.235 457.382 649.067V499.671C464.986 496.839 470.449 489.212 470.449 480.268C470.449 468.918 461.657 459.684 450.849 459.684C440.042 459.684 431.25 468.918 431.25 480.268C431.25 489.212 436.712 496.839 444.316 499.671V649.066C436.712 646.234 431.25 638.607 431.25 629.663C431.25 625.774 432.291 621.985 434.262 618.705C434.987 617.496 435.336 616.08 435.259 614.653C432.506 563.92 412.748 516.079 379.481 479.324C410.29 425.944 411.978 376.35 407.814 343.766C407.616 342.219 407.399 340.703 407.174 339.203H424.716C428.324 339.203 431.249 336.132 431.249 332.342C431.249 328.552 428.324 325.481 424.716 325.481H404.654C401.645 311.683 397.807 300.755 394.821 293.46H506.876C503.891 300.755 500.052 311.683 497.043 325.48ZM450.848 487.128C447.245 487.128 444.315 484.05 444.315 480.267C444.315 476.483 447.245 473.406 450.848 473.406C454.451 473.406 457.381 476.483 457.381 480.267C457.381 484.05 454.451 487.128 450.848 487.128Z" fill="#222831"/>
<path d="M450.848 487.128C447.245 487.128 444.315 484.05 444.315 480.267C444.315 476.483 447.245 473.406 450.848 473.406C454.451 473.406 457.381 476.483 457.381 480.267C457.381 484.05 454.451 487.128 450.848 487.128Z" fill="white"/>
<path d="M428.544 352.938C424.94 353.116 422.156 356.329 422.325 360.114C424.073 399.243 415.775 437.375 397.661 473.449C395.977 476.801 397.2 480.952 400.391 482.719C403.581 484.486 407.534 483.202 409.217 479.851C428.435 441.581 437.236 401.08 435.376 359.471C435.212 355.795 432.323 352.932 428.855 352.932C428.752 352.931 428.649 352.934 428.544 352.938Z" fill="white"/>
</svg>
