<svg width="900" height="900" viewBox="0 0 900 900" fill="none" xmlns="http://www.w3.org/2000/svg">
<circle cx="450" cy="450" r="450" fill="#FD7013"/>
<path d="M609.274 243.664H699.863C708.147 243.664 714.863 250.38 714.863 258.664V667.634C714.863 675.918 708.147 682.634 699.863 682.634H609.274V243.664Z" fill="#D76114"/>
<path d="M715 653.88V667.778C715 676.062 708.284 682.778 700 682.778L236.338 682.778C228.054 682.778 221.338 676.062 221.338 667.778V653.88L715 653.88Z" fill="#D76114"/>
<rect x="463.37" y="674.542" width="9.59897" height="40.458" rx="4.79948" fill="#D76114"/>
<rect x="463.781" y="213.465" width="7.67918" height="19.651" rx="3.83959" fill="#D76114"/>
<rect x="185" y="215.344" width="497.227" height="443.015" rx="15" fill="#222831"/>
<rect x="194.325" y="225.314" width="478.303" height="423.075" rx="10" fill="white"/>
<path d="M436.767 312.009H672.628V638.389C672.628 643.912 668.15 648.389 662.628 648.389H436.767V312.009Z" fill="#F8C2C2"/>
<path d="M658.229 312.443H672.627V638.244C672.627 643.767 668.15 648.244 662.627 648.244H658.229V312.443Z" fill="#E7B2B2"/>
<rect x="672.627" y="343.22" width="7.67918" height="87.8517" rx="3.83959" fill="#E6B2B2"/>
<rect x="677.427" y="341.775" width="7.67918" height="87.8517" rx="3.83959" fill="#D76114"/>
<rect x="672.627" y="282.099" width="9.59897" height="68.7786" rx="4.79948" fill="#222831"/>
<rect x="672.627" y="360.992" width="9.59897" height="52.5954" rx="4.79948" fill="#222831"/>
<rect x="672.627" y="422.691" width="9.59897" height="69.7901" rx="4.79948" fill="#222831"/>
<rect x="467.484" y="427.604" width="175.524" height="127.154" rx="12" fill="#222831"/>
<rect x="474.889" y="434.828" width="160.303" height="112.271" rx="5" fill="#CAF5F8"/>
<path d="M627.513 434.828H630.192C632.953 434.828 635.192 437.067 635.192 439.828V542.099C635.192 544.861 632.953 547.099 630.192 547.099H627.513V434.828Z" fill="#B0DDE0"/>
<path d="M474.889 439.828C474.889 437.067 477.128 434.828 479.889 434.828H482.568V547.099H479.889C477.128 547.099 474.889 544.861 474.889 542.099V439.828Z" fill="#E3F9FB"/>
<path d="M474.889 517.767H635.192V543.111C635.192 545.872 632.953 548.111 630.192 548.111H479.889C477.128 548.111 474.889 545.872 474.889 543.111V517.767Z" fill="#6AE777"/>
<path d="M474.889 517.767H482.568V548.111H479.889C477.128 548.111 474.889 545.872 474.889 543.111V517.767Z" fill="#93EB9C"/>
<path d="M627.513 517.767H636.152V543.111C636.152 545.872 633.913 548.111 631.152 548.111H627.513V517.767Z" fill="#5FD16B"/>
<path fill-rule="evenodd" clip-rule="evenodd" d="M572.933 517.767L524.164 481.355L482.568 512.411V517.767H572.933Z" fill="#6AE777"/>
<path d="M475.395 517.767H482.568V512.411L475.395 517.767Z" fill="#93EB9C"/>
<path fill-rule="evenodd" clip-rule="evenodd" d="M627.512 520.691L602.235 500.235L572.862 524.005H627.512V520.691Z" fill="#6AE777"/>
<path d="M468.587 517.936C467.371 516.107 467.816 513.567 469.581 512.259L521.353 473.884C523.12 472.574 525.539 472.961 526.804 474.756C528.118 476.619 527.686 479.277 525.849 480.632L473.997 518.889C472.227 520.195 469.805 519.769 468.587 517.936Z" fill="#222831"/>
<path d="M573.433 517.868C572.451 516.029 572.975 513.686 574.645 512.453L599.947 493.786C601.718 492.479 604.141 492.906 605.359 494.739C606.574 496.568 606.131 499.108 604.367 500.417L579.116 519.159C577.201 520.58 574.562 519.98 573.433 517.868Z" fill="#222831"/>
<path d="M640.675 525.48C639.456 527.314 637.032 527.741 635.26 526.433L600.175 500.548C598.872 499.586 598.223 497.917 598.521 496.296C599.064 493.345 602.337 492.005 604.702 493.766L639.687 519.801C641.448 521.112 641.89 523.651 640.675 525.48Z" fill="#222831"/>
<path d="M579.659 517.937C578.441 519.769 576.02 520.196 574.25 518.89L521.992 480.333C520.319 479.099 519.793 476.752 520.775 474.909C521.904 472.79 524.549 472.185 526.47 473.608L578.664 512.26C580.43 513.567 580.875 516.107 579.659 517.937Z" fill="#222831"/>
<ellipse cx="577.187" cy="471.529" rx="16.4554" ry="17.3391" fill="#222831"/>
<ellipse cx="577.186" cy="471.529" rx="8.7762" ry="9.24754" fill="#ECD353"/>
<rect x="467.484" y="335.128" width="175.524" height="80.916" rx="12" fill="#222831"/>
<path d="M479.889 341.775C477.128 341.775 474.889 344.013 474.889 346.775V404.542C474.889 407.303 477.128 409.542 479.889 409.542H482.568V341.775H479.889Z" fill="#A9D6EF"/>
<path fill-rule="evenodd" clip-rule="evenodd" d="M482.568 341.775H627.513V409.542H482.568V341.775Z" fill="#81C5EC"/>
<path d="M630.192 409.542C632.953 409.542 635.192 407.303 635.192 404.542V346.775C635.192 344.013 632.953 341.775 630.192 341.775H627.513V409.542H630.192Z" fill="#72AED0"/>
<rect x="475.163" y="585.967" width="8.0916" height="159.069" rx="4.0458" transform="rotate(-90 475.163 585.967)" fill="#222831"/>
<rect x="475.163" y="617.178" width="8.0916" height="159.069" rx="4.0458" transform="rotate(-90 475.163 617.178)" fill="#222831"/>
<path d="M194.325 243.405C194.325 237.882 198.802 233.405 204.325 233.405H429.088V312.009H194.325V243.405Z" fill="#2A90EE"/>
<path d="M194.599 243.55C194.599 238.027 199.076 233.55 204.599 233.55H208.998V312.443H194.599V243.55Z" fill="#2888E0"/>
<ellipse cx="238.206" cy="262.304" rx="16.4554" ry="17.3391" fill="#E94949"/>
<ellipse cx="347.908" cy="262.304" rx="16.4554" ry="17.3391" fill="white"/>
<ellipse cx="293.057" cy="262.304" rx="16.4554" ry="17.3391" fill="#CAF5F8"/>
<path d="M436.767 233.405H662.628C668.15 233.405 672.628 237.882 672.628 243.405V311.287H436.767V233.405Z" fill="#E94949"/>
<path d="M658.229 233.55H662.627C668.15 233.55 672.627 238.027 672.627 243.55V311.431H658.229V233.55Z" fill="#C83C3C"/>
<rect x="428.814" y="185" width="9.59897" height="503.702" rx="4.79948" fill="#222831"/>
<rect x="186.92" y="312.443" width="10.1145" height="493.387" rx="5.05725" transform="rotate(-90 186.92 312.443)" fill="#222831"/>
<path d="M194.325 312.009H429.088V648.389H204.325C198.802 648.389 194.325 643.912 194.325 638.389V312.009Z" fill="#CAF5F8"/>
<path d="M194.599 312.443H208.998V648.244H204.599C199.076 648.244 194.599 643.767 194.599 638.244V312.443Z" fill="#B4DEE1"/>
<rect x="253.564" y="464.594" width="109.703" height="8.0916" rx="4.0458" fill="#222831"/>
<rect x="254.661" y="566.317" width="120.673" height="8.0916" rx="4.0458" fill="#222831"/>
<rect x="392.886" y="566.317" width="43.881" height="8.0916" rx="4.0458" fill="#222831"/>
<rect x="253.564" y="540.886" width="71.3066" height="8.0916" rx="4.0458" fill="#222831"/>
<rect x="342.423" y="540.886" width="94.3442" height="8.0916" rx="4.0458" fill="#222831"/>
<rect x="253.564" y="490.025" width="183.203" height="8.0916" rx="4.0458" fill="#222831"/>
<rect x="380.819" y="464.594" width="55.9483" height="8.0916" rx="4.0458" fill="#222831"/>
<rect x="223.944" y="439.163" width="82.2769" height="8.0916" rx="4.0458" fill="#E94949"/>
<rect x="223.944" y="515.455" width="82.2769" height="8.0916" rx="4.0458" fill="#E94949"/>
<rect x="223.944" y="591.747" width="49.3661" height="8.0916" rx="4.0458" fill="#E94949"/>
<rect x="290.863" y="591.747" width="93.2471" height="8.0916" rx="4.0458" fill="#E94949"/>
<rect x="323.773" y="439.163" width="38.3959" height="8.0916" rx="4.0458" fill="#E94949"/>
<rect x="323.773" y="515.455" width="54.8513" height="8.0916" rx="4.0458" fill="#E94949"/>
<rect width="80.6464" height="11.0107" rx="5.50535" transform="matrix(0.246448 -0.969156 0.962377 0.271718 286.476 413.287)" fill="#222831"/>
<rect width="55.3889" height="11.4564" rx="5.72821" transform="matrix(-0.89751 0.440993 -0.404684 -0.914457 380.524 379.056)" fill="#222831"/>
<path d="M328.486 354.447C329.772 351.541 333.122 350.316 335.978 351.708L374.02 370.245C379.005 372.675 378.615 380.09 373.417 381.681C371.991 382.117 370.444 381.978 369.085 381.293L331.275 362.237C328.451 360.813 327.206 357.338 328.486 354.447Z" fill="#222831"/>
<rect width="55.3889" height="11.4564" rx="5.72821" transform="matrix(0.89751 -0.440993 0.404684 0.914457 221.751 373.426)" fill="#222831"/>
<path d="M273.789 398.035C272.504 400.941 269.153 402.166 266.297 400.774L228.256 382.237C223.27 379.807 223.661 372.391 228.858 370.801C230.284 370.365 231.831 370.503 233.19 371.189L271 390.245C273.825 391.669 275.069 395.144 273.789 398.035Z" fill="#222831"/>
</svg>
