<svg id="Layer_2" data-name="Layer 2" xmlns="http://www.w3.org/2000/svg" viewBox="0 0 77.31 80.64"><defs><style>.cls-1{fill:#fd7013;}.cls-2{fill:#222831;}</style></defs><path class="cls-1" d="M45.77,24.86A21.68,21.68,0,1,0,67.83,46.53,21.86,21.86,0,0,0,45.77,24.86ZM39.13,41.6l-8.47,4.87,8.47,5.08V54.9L27.27,48V45l11.86-6.91Zm4.53,14.95-2.29-.17,5.55-19.86h2.29ZM64.27,48l-11.86,6.9V51.6l8.47-5.09-8.47-4.87V38.13L64.27,45Z" transform="translate(-12.41 -2.18)"/><path class="cls-1" d="M63.49,32.13l1.25-7a27.39,27.39,0,0,0-29.62-5L33.85,27.2a22.26,22.26,0,0,1,29.64,4.93Z" transform="translate(-12.41 -2.18)"/><path class="cls-1" d="M71.24,27l-.18-4.63,7.72-2.08L53.41,2.18,23.35,10.3l12,8.58A27.41,27.41,0,0,1,64.94,24v0L69.3,22.8,69.46,27l-1,2.35.23,5.9,3.86-.15-.23-5.9Z" transform="translate(-12.41 -2.18)"/><path class="cls-2" d="M15.61,76.67c0,.61,0,1.53.05,2.76s.05,2.15.05,2.76a.24.24,0,0,1-.07.2l-.2,0a12.15,12.15,0,0,1-1.36.06,10.13,10.13,0,0,1-1.44-.06c-.15,0-.23-.11-.23-.24,0,.08,0-.38.07-1.37.09-2.1.14-3.48.14-4.14s0-1.39,0-2.5-.06-1.94-.06-2.49c0-.12.06-.17.18-.17l.73,0c.32,0,.56,0,.72,0s.4,0,.72,0l.71,0c.15,0,.22,0,.22.17,0,.55,0,1.39-.09,2.49S15.61,76.12,15.61,76.67Z" transform="translate(-12.41 -2.18)"/><path class="cls-2" d="M24.78,73.89q0,.15-.18.15l-2.34-.11c0,1.31,0,2.22,0,2.74s0,1.53.07,2.76.07,2.15.07,2.76c0,.1,0,.16-.07.19l-.21,0a11.62,11.62,0,0,1-1.37.06,11.14,11.14,0,0,1-1.41-.06.24.24,0,0,1-.22-.24c0-.62,0-1.53.08-2.76s.08-2.14.08-2.75c0-.4,0-1.31-.06-2.71a24.66,24.66,0,0,1-2.48.16c-.09,0-.13,0-.13-.08a5.91,5.91,0,0,1,.11-.6c.08-.36.13-.58.14-.66,0-.24,0-.48.05-.73s.1-.58.19-.58h.11a31.24,31.24,0,0,0,3.72.16c.47,0,1.33,0,2.59-.15l1-.08a.41.41,0,0,1,.17,0,.32.32,0,0,1,0,.16c0,.14,0,.33,0,.58s0,.47,0,.58a5.49,5.49,0,0,0,0,.57A3.92,3.92,0,0,1,24.78,73.89Z" transform="translate(-12.41 -2.18)"/><path class="cls-2" d="M34.89,78.84a3.45,3.45,0,0,1-1.33,2.71,5.65,5.65,0,0,1-2.84,1.26h-.1c-.12,0-.38-.36-.79-1.09a4.66,4.66,0,0,1-.61-1.33c0-.06,0-.1.11-.11a8.31,8.31,0,0,0,1.5-.44,1.29,1.29,0,0,0,.8-1.2,1.81,1.81,0,0,0-.52-1.12c-.62-.71-.95-1.1-1-1.18a3.14,3.14,0,0,1-.54-1.79,2.81,2.81,0,0,1,1.32-2.36,5.78,5.78,0,0,1,2.63-1h.14c.07,0,.14.06.18.19.14.38.45,1.06.94,2a.16.16,0,0,1,0,.08c0,.09-.05.13-.14.13l-.21,0-.23,0a1.86,1.86,0,0,0-1,.26.9.9,0,0,0-.5.82,2,2,0,0,0,.56,1.17l1,1.31A3.11,3.11,0,0,1,34.89,78.84Z" transform="translate(-12.41 -2.18)"/><path class="cls-2" d="M45.27,80.66a.64.64,0,0,1-.17.33,4.72,4.72,0,0,1-3.8,1.7A5,5,0,0,1,37.37,81a5.72,5.72,0,0,1-1.47-4,5.92,5.92,0,0,1,1.43-4,4.85,4.85,0,0,1,3.82-1.73,5.11,5.11,0,0,1,4,1.55.45.45,0,0,1,.16.3,4.77,4.77,0,0,1-.54,1.1A6.11,6.11,0,0,1,44,75.26a.2.2,0,0,1-.16.07,3,3,0,0,1-.39-.32,4.44,4.44,0,0,0-.82-.58,2.78,2.78,0,0,0-1.28-.31,2.21,2.21,0,0,0-1.82.86,3,3,0,0,0-.63,2,3.13,3.13,0,0,0,.63,2,2.19,2.19,0,0,0,1.82.87,2.91,2.91,0,0,0,1.29-.3,4.38,4.38,0,0,0,.81-.54,1.65,1.65,0,0,1,.38-.3.2.2,0,0,1,.15.09c.09.09.31.42.68,1A5.71,5.71,0,0,1,45.27,80.66Z" transform="translate(-12.41 -2.18)"/><path class="cls-2" d="M56.54,82.18c0,.11,0,.17-.07.2a.74.74,0,0,1-.22,0c-.31,0-.76,0-1.33,0a12.4,12.4,0,0,1-1.44,0q-.21,0-.21-.21c0-.41,0-1,.06-1.85s.06-1.44.06-1.85c0-.2-.06-.32-.18-.35a14.87,14.87,0,0,0-1.88-.06,15.54,15.54,0,0,0-1.9.06c-.11,0-.17.15-.17.35,0,.41,0,1,0,1.82s0,1.41,0,1.82a.25.25,0,0,1-.21.27,13.24,13.24,0,0,1-1.46,0,12.19,12.19,0,0,1-1.34,0c-.15,0-.22-.11-.22-.24,0-.56,0-1.41.08-2.54s.08-2,.08-2.54,0-1.51-.08-2.71-.08-2.11-.08-2.71a.15.15,0,0,1,.17-.17l.72,0c.33,0,.57,0,.73,0s.42,0,.75,0l.75,0c.09,0,.13,0,.13.14,0,.39,0,1-.08,1.74s-.09,1.36-.09,1.75c0,.18.05.29.15.32a15.59,15.59,0,0,0,2,.06,15.71,15.71,0,0,0,1.93-.06c.13,0,.19-.14.19-.32,0-.37,0-.94-.06-1.69s0-1.32,0-1.7c0-.16.06-.24.19-.24l.69,0c.31,0,.54,0,.7,0s.38,0,.69,0l.69,0c.15,0,.23.06.23.18,0,.6,0,1.5-.08,2.7s-.07,2.11-.07,2.71,0,1.41.08,2.54S56.54,81.62,56.54,82.18Z" transform="translate(-12.41 -2.18)"/><path class="cls-2" d="M68.77,77A5.7,5.7,0,0,1,67.23,81a5.6,5.6,0,0,1-8,0,6.09,6.09,0,0,1,0-8.12,5.54,5.54,0,0,1,8,0A5.71,5.71,0,0,1,68.77,77Zm-2.94,0a2.91,2.91,0,0,0-.71-2,2.45,2.45,0,0,0-3.75,0,3.09,3.09,0,0,0,0,3.95,2.45,2.45,0,0,0,1.91.83,2.4,2.4,0,0,0,1.87-.88A2.92,2.92,0,0,0,65.83,77Z" transform="translate(-12.41 -2.18)"/><path class="cls-2" d="M80.74,77A5.71,5.71,0,0,1,79.19,81a5.6,5.6,0,0,1-8,0,6.09,6.09,0,0,1,0-8.12,5.54,5.54,0,0,1,8,0A5.72,5.72,0,0,1,80.74,77Zm-2.95,0a2.91,2.91,0,0,0-.71-2,2.45,2.45,0,0,0-3.75,0,2.92,2.92,0,0,0-.74,2,2.88,2.88,0,0,0,.7,2,2.51,2.51,0,0,0,3.77,0A2.92,2.92,0,0,0,77.79,77Z" transform="translate(-12.41 -2.18)"/><path class="cls-2" d="M89,82.55l-1.74,0-1.74,0-2.33,0-1,0c-.15,0-.23-.11-.23-.24,0-.57,0-1.42,0-2.54s0-2,0-2.54,0-1.5-.06-2.7,0-2.1,0-2.71c0-.11.08-.17.23-.17l.7,0,.69,0,.76,0c.33,0,.59,0,.76,0s.11,0,.11.14v.1c-.06,1-.13,2.44-.21,4.4v2c0,.66,0,1.15,0,1.45l0,.19c0,.06,0,.1.11.12h.21c.46,0,1.16,0,2.09-.08s1.63-.07,2.1-.07q.21,0,.21.18a11.6,11.6,0,0,1-.2,2.29c0,.14-.08.22-.16.24A1.48,1.48,0,0,1,89,82.55Z" transform="translate(-12.41 -2.18)"/></svg>