<svg width="900" height="900" viewBox="0 0 900 900" fill="none" xmlns="http://www.w3.org/2000/svg">
<path d="M450 900C698.528 900 900 698.528 900 450C900 201.472 698.528 0 450 0C201.472 0 0 201.472 0 450C0 698.528 201.472 900 450 900Z" fill="#FD7013"/>
<path d="M752 245H714C705.716 245 699 251.716 699 260V664C699 672.284 705.716 679 714 679H752C760.284 679 767 672.284 767 664V260C767 251.716 760.284 245 752 245Z" fill="#D76114"/>
<path d="M157 626V664C157 672.284 163.716 679 172 679H752C760.284 679 767 672.284 767 664V626C767 617.716 760.284 611 752 611H172C163.716 611 157 617.716 157 626Z" fill="#D76114"/>
<path d="M718 221H148C139.716 221 133 227.716 133 236V640C133 648.284 139.716 655 148 655H718C726.284 655 733 648.284 733 640V236C733 227.716 726.284 221 718 221Z" fill="#222831"/>
<path d="M713 291H153C147.477 291 143 295.477 143 301V635C143 640.523 147.477 645 153 645H713C718.523 645 723 640.523 723 635V301C723 295.477 718.523 291 713 291Z" fill="#EEEEEE"/>
<rect x="198" y="344" width="8" height="70" rx="4" transform="rotate(-90 198 344)" fill="#E647C3"/>
<rect x="198" y="382" width="8" height="70" rx="4" transform="rotate(-90 198 382)" fill="#E647C3"/>
<rect x="283" y="382" width="8" height="70" rx="4" transform="rotate(-90 283 382)" fill="#59A9F2"/>
<rect x="263" y="420" width="8" height="70" rx="4" transform="rotate(-90 263 420)" fill="#59A9F2"/>
<rect x="263" y="443" width="8" height="70" rx="4" transform="rotate(-90 263 443)" fill="#59A9F2"/>
<rect x="233" y="481" width="8" height="110" rx="4" transform="rotate(-90 233 481)" fill="#59A9F2"/>
<rect x="233" y="519" width="8" height="70" rx="4" transform="rotate(-90 233 519)" fill="#F3EE75"/>
<rect x="198" y="580" width="8" height="40" rx="4" transform="rotate(-90 198 580)" fill="#59A9F2"/>
<rect x="253" y="580" width="8" height="40" rx="4" transform="rotate(-90 253 580)" fill="#12EBB7"/>
<rect x="263" y="542" width="8" height="70" rx="4" transform="rotate(-90 263 542)" fill="#12EBB7"/>
<rect x="493" y="481" width="8" height="80" rx="4" transform="rotate(-90 493 481)" fill="#87E4EA"/>
<rect x="503" y="542" width="8" height="80" rx="4" transform="rotate(-90 503 542)" fill="#FD7013"/>
<rect x="598" y="542" width="8" height="40" rx="4" transform="rotate(-90 598 542)" fill="#FD7013"/>
<rect x="653" y="542" width="8" height="20" rx="4" transform="rotate(-90 653 542)" fill="#59A9F2"/>
<rect x="283" y="344" width="8" height="60" rx="4" transform="rotate(-90 283 344)" fill="#87E4EA"/>
<rect x="423" y="344" width="8" height="70" rx="4" transform="rotate(-90 423 344)" fill="#FD7013"/>
<rect x="358" y="344" width="8" height="50" rx="4" transform="rotate(-90 358 344)" fill="#E547C3"/>
<rect x="493" y="382" width="8" height="70" rx="4" transform="rotate(-90 493 382)" fill="#12EBB7"/>
<rect x="308" y="580" width="8" height="40" rx="4" transform="rotate(-90 308 580)" fill="#FD7013"/>
<rect x="363" y="580" width="8" height="70" rx="4" transform="rotate(-90 363 580)" fill="#F3EE75"/>
<path d="M693 291H713C718.523 291 723 295.477 723 301V635C723 640.523 718.523 645 713 645H693V291Z" fill="#DFDEDE"/>
<path d="M143 301C143 295.477 147.477 291 153 291H173V645H153C147.477 645 143 640.523 143 635V301Z" fill="white"/>
<path d="M190.5 274C200.165 274 208 266.165 208 256.5C208 246.835 200.165 239 190.5 239C180.835 239 173 246.835 173 256.5C173 266.165 180.835 274 190.5 274Z" fill="#FD7013"/>
<path d="M245.5 274C255.165 274 263 266.165 263 256.5C263 246.835 255.165 239 245.5 239C235.835 239 228 246.835 228 256.5C228 266.165 235.835 274 245.5 274Z" fill="#DFDEDE"/>
<path d="M300.5 274C310.165 274 318 266.165 318 256.5C318 246.835 310.165 239 300.5 239C290.835 239 283 246.835 283 256.5C283 266.165 290.835 274 300.5 274Z" fill="white"/>
<g clip-path="url(#clip0_20_343)">
<path d="M543 357H322V578H543V357Z" fill="#F7DF1E"/>
<path d="M470.456 529.657C474.907 536.926 480.699 542.268 490.942 542.268C499.547 542.268 505.044 537.967 505.044 532.025C505.044 524.904 499.396 522.382 489.925 518.239L484.733 516.011C469.747 509.627 459.792 501.629 459.792 484.72C459.792 469.145 471.659 457.288 490.206 457.288C503.409 457.288 512.902 461.884 519.742 473.916L503.571 484.3C500.01 477.915 496.169 475.4 490.206 475.4C484.123 475.4 480.268 479.259 480.268 484.3C480.268 490.53 484.126 493.052 493.036 496.911L498.228 499.135C515.873 506.701 525.836 514.415 525.836 531.758C525.836 550.456 511.148 560.699 491.423 560.699C472.136 560.699 459.676 551.508 453.579 539.462L470.456 529.657ZM397.094 531.457C400.357 537.245 403.324 542.138 410.46 542.138C417.283 542.138 421.587 539.469 421.587 529.089V458.474H442.354V529.369C442.354 550.873 429.746 560.66 411.344 560.66C394.716 560.66 385.087 552.055 380.19 541.691L397.094 531.457Z" fill="black"/>
<rect x="533" y="357" width="10" height="221" fill="#DAC520"/>
<rect x="322" y="357" width="10" height="221" fill="#F4E677"/>
</g>
<defs>
<clipPath id="clip0_20_343">
<rect x="322" y="357" width="221" height="221" rx="10" fill="white"/>
</clipPath>
</defs>
</svg>
