<svg width="255" height="85" viewBox="0 0 255 85" fill="none" xmlns="http://www.w3.org/2000/svg">
<g clip-path="url(#clip0_1_2)">
<path d="M6.91491 23.2547C6.91491 36.0979 25.9403 46.5094 16.711 46.5094C7.48179 46.5094 0 36.0979 0 23.2547C0 10.4115 7.48179 0 16.711 0C25.9403 0 6.91491 10.4115 6.91491 23.2547Z" fill="#FD7013"/>
<path d="M25 61.7453C25 74.5885 17.5182 85 8.28897 85C-0.940279 85 18.0851 74.5885 18.0851 61.7453C18.0851 48.9021 -0.940279 38.4906 8.28897 38.4906C17.5182 38.4906 25 48.9021 25 61.7453Z" fill="#FD7013"/>
<path d="M38.6969 42.5C38.6969 63.2107 63.7503 80 51.7423 80C39.7344 80 30 63.2107 30 42.5C30 21.7893 39.7344 5 51.7423 5C63.7503 5 38.6969 21.7893 38.6969 42.5Z" fill="#FD7013"/>
<path d="M66.7492 42C66.7492 53.2183 72.2407 75 66.4278 75C60.6149 75 60 53.2183 60 42C60 30.7817 61.2577 10 67.0706 10C72.8835 10 66.7492 30.7817 66.7492 42Z" fill="#FD7013"/>
<path d="M78.2508 43C78.2508 31.7817 72.7593 10 78.5722 10C84.3851 10 85 31.7817 85 43C85 54.2183 83.7423 75 77.9294 75C72.1165 75 78.2508 54.2183 78.2508 43Z" fill="#FD7013"/>
<path d="M79.2834 39.8132C79.2834 44.9806 76.0589 48 72.1539 48C68.2489 48 65.1423 44.9806 65.1423 39.8132C65.1423 34.6458 68.2489 42.1654 72.1539 42.1654C76.0589 42.1654 79.2834 34.6458 79.2834 39.8132Z" fill="#FD7013"/>
<path d="M195 39.7442C195 51.4321 192.59 73 182.5 73C172.41 73 170 51.4321 170 39.7442C170 28.0563 172.41 8 182.5 8C192.59 8 195 28.0563 195 39.7442Z" fill="#FD7013"/>
<path d="M190.192 40.0254C190.192 47.3643 188.709 62.4186 182.5 62.4186C176.291 62.4186 174.808 47.3643 174.808 40.0254C174.808 32.6865 176.291 18.5814 182.5 18.5814C188.709 18.5814 190.192 32.6865 190.192 40.0254Z" fill="#EEEEEE"/>
<path d="M225 39.6279C225 53.1139 222.59 78 212.5 78C202.41 78 200 53.1139 200 39.6279C200 26.1419 202.41 3 212.5 3C222.59 3 225 26.1419 225 39.6279Z" fill="#FD7013"/>
<path d="M220.192 39.9524C220.192 48.4204 218.709 65.7907 212.5 65.7907C206.291 65.7907 204.808 48.4204 204.808 39.9524C204.808 31.4844 206.291 15.2093 212.5 15.2093C218.709 15.2093 220.192 31.4844 220.192 39.9524Z" fill="#EEEEEE"/>
<path d="M237.422 40.3481C237.422 62.6317 242.658 80.6962 238.155 80.6962C233.651 80.6962 230 62.6317 230 40.3481C230 18.0645 233.651 0 238.155 0C242.658 0 237.422 18.0645 237.422 40.3481Z" fill="#FD7013"/>
<path d="M255 73.7693C255 79.9719 250.453 85 244.844 85C239.235 85 233.906 78.2911 233.906 72.0886C233.906 65.8861 239.235 73.7693 244.844 73.7693C250.453 73.7693 255 67.5668 255 73.7693Z" fill="#FD7013"/>
<path d="M239.883 72.0886C240.421 72.5836 240.906 72.4233 240.547 73.1645C240.187 73.9058 239.63 74.0162 239.092 73.5212C238.554 73.0261 238.409 72.0239 238.768 71.2827C238.947 70.9146 239.216 70.6801 239.508 70.5979C239.804 70.5145 239.612 71.8394 239.883 72.0886Z" fill="#FD7013"/>
<path d="M240.156 79.6202C240.156 80.8087 244.453 82.3101 244.063 83.924C242.891 87.1519 233.906 79.0823 234.688 75.3164C240.156 73.1645 237.731 77.4683 238.594 77.4683C239.457 77.4683 240.156 78.4318 240.156 79.6202Z" fill="#FD7013"/>
<path d="M139 67.0586C139 73.1661 133.851 62.9116 127.5 62.9116C121.149 62.9116 116 73.1661 116 67.0586C116 60.9511 121.149 56 127.5 56C133.851 56 139 60.9511 139 67.0586Z" fill="#222831"/>
<rect x="97" y="17" width="61" height="37" rx="10" fill="#222831"/>
<rect x="101" y="21" width="53" height="29" rx="10" fill="#EEEEEE"/>
<path d="M118.614 42.2891C118.99 41.7096 118.978 41.0354 118.589 40.7832C118.199 40.531 118.433 41.4471 118.057 42.0266C117.682 42.6061 116.84 42.6296 117.23 42.8817C117.619 43.1339 118.239 42.8686 118.614 42.2891Z" fill="#FD7013"/>
<path d="M121.033 42.6401C121.64 42.9675 122.311 42.9017 122.531 42.4932C122.751 42.0847 121.857 42.3912 121.249 42.0639C120.642 41.7365 120.55 40.8992 120.33 41.3077C120.11 41.7162 120.425 42.3128 121.033 42.6401Z" fill="#FD7013"/>
<path d="M118.462 27.8181C118.844 28.2719 118.865 28.8819 118.51 29.1805C118.155 29.4791 118.331 28.6105 117.95 28.1567C117.568 27.7028 116.773 27.8357 117.128 27.537C117.483 27.2384 118.08 27.3642 118.462 27.8181Z" fill="#FD7013"/>
<path d="M120.594 27.8139C120.212 28.2683 120.19 28.8788 120.545 29.1774C120.901 29.476 120.725 28.6068 121.107 28.1524C121.489 27.698 122.284 27.8305 121.929 27.5318C121.574 27.2332 120.976 27.3595 120.594 27.8139Z" fill="#FD7013"/>
<path d="M132.439 27.8078C132.844 28.2415 132.896 28.8496 132.557 29.166C132.218 29.4824 132.349 28.6059 131.945 28.1722C131.54 27.7385 130.753 27.9119 131.093 27.5954C131.432 27.279 132.035 27.3741 132.439 27.8078Z" fill="#FD7013"/>
<path d="M134.602 27.8069C134.201 28.2447 134.154 28.8537 134.496 29.1671C134.838 29.4805 134.699 28.6046 135.1 28.1668C135.501 27.729 136.29 27.895 135.948 27.5816C135.606 27.2682 135.003 27.3691 134.602 27.8069Z" fill="#FD7013"/>
<path d="M133.5 25C137.09 25 140 25.3402 140 26.5C140 27.6598 137.09 28 133.5 28C129.91 28 127 27.6598 127 26.5C127 25.3402 129.91 25 133.5 25Z" fill="#FD7013"/>
<path d="M135 35.5C135 40.7467 134.66 45 133.5 45C132.34 45 132 40.7467 132 35.5C132 30.2533 132.34 26 133.5 26C134.66 26 135 30.2533 135 35.5Z" fill="#FD7013"/>
<path d="M119.5 25C121.985 25 124 25.3402 124 26.5C124 27.6598 121.985 28 119.5 28C117.015 28 115 27.6598 115 26.5C115 25.3402 117.015 25 119.5 25Z" fill="#FD7013"/>
<path d="M121 35.4375C121 40.0974 120.494 43.875 119.406 43.875C118.319 43.875 118 40.0974 118 35.4375C118 30.7776 118 27 119.406 27C121 27 121 30.7776 121 35.4375Z" fill="#FD7013"/>
<path d="M119.5 42C121.985 42 124 42.3402 124 43.5C124 44.6598 121.985 45 119.5 45C117.015 45 115 44.6598 115 43.5C115 42.3402 117.015 42 119.5 42Z" fill="#FD7013"/>
</g>
<defs>
<clipPath id="clip0_1_2">
<rect width="255" height="85" fill="white"/>
</clipPath>
</defs>
</svg>
