<svg id="Layer_1" data-name="Layer 1" xmlns="http://www.w3.org/2000/svg" viewBox="0 0 249.62 74.89"><defs><style>.cls-1,.cls-3{fill:#fd7013;}.cls-2{fill:#222831;}.cls-3{font-size:38.19px;font-family:BerlinSansFBDemi-Bold, Berlin Sans FB Demi;font-weight:700;}</style></defs><path class="cls-1" d="M18,50.56a38.65,38.65,0,0,1-3.59,17.07C12.33,72,9.78,75,6.77,76.63a1.24,1.24,0,0,1-.28.09c-.32,0-1-2.2-2.14-6.84A55.87,55.87,0,0,1,2.69,61.3.77.77,0,0,1,3,60.56a17.54,17.54,0,0,0,4-3.1c1.46-1.83,2.19-4.41,2.19-7.8A21.73,21.73,0,0,0,7.8,42.44C6.14,37.9,5.25,35.3,5.11,34.79A44.64,44.64,0,0,1,3.66,23c0-6.21,1.2-11.26,3.55-15q2.9-4.58,7.12-5.31a1.9,1.9,0,0,1,.36,0c.21,0,.38.45.5,1.25.37,2.43,1.22,6.84,2.55,13.1a2.58,2.58,0,0,1,.06.49c0,.54-.13.8-.38.77a2.27,2.27,0,0,1-.57-.2,1.82,1.82,0,0,0-.61-.21,2.88,2.88,0,0,0-2.64,1.33,8.19,8.19,0,0,0-1.37,5.07,23.9,23.9,0,0,0,1.51,7.45c1.78,5.3,2.71,8,2.8,8.24A39,39,0,0,1,18,50.56Z" transform="translate(-2.69 -2.74)"/><path class="cls-1" d="M46.07,59.5a5.46,5.46,0,0,1-.44,1.81c-2.58,6.4-6,10.07-10.28,10.65s-7.91-2.13-10.64-8.49c-2.63-6.14-4-14.36-4-24.28,0-9.61,1.3-17.72,3.89-24C27.34,8.65,30.77,5.9,35,6.61c4.54.76,8.1,4.27,10.67,10.2a4.47,4.47,0,0,1,.42,1.7,39.51,39.51,0,0,1-1.46,5.82A47.35,47.35,0,0,1,42.75,30c-.12.22-.26.33-.43.32a9.84,9.84,0,0,1-1-1.79,18.61,18.61,0,0,0-2.22-3.42,5.4,5.4,0,0,0-3.45-2.07c-2.06-.19-3.71,1.3-4.94,4.53A32.58,32.58,0,0,0,29,39a34.07,34.07,0,0,0,1.7,11.6c1.23,3.34,2.88,4.91,4.94,4.79a5.26,5.26,0,0,0,3.47-1.86,15.89,15.89,0,0,0,2.18-3.13,8.74,8.74,0,0,1,1-1.67c.14,0,.28.15.42.46.23.5.84,2.28,1.83,5.25A43.06,43.06,0,0,1,46.07,59.5Z" transform="translate(-2.69 -2.74)"/><path class="cls-1" d="M76.54,64a1.52,1.52,0,0,1-.19.95c0,.08-.25.16-.58.26a26,26,0,0,1-3.62.68,17.12,17.12,0,0,1-3.88.28c-.38-.1-.58-.42-.58-1,0-2,.06-5,.16-9s.16-7,.16-9c0-1-.16-1.55-.46-1.68a21.61,21.61,0,0,0-5.09-.23,21.55,21.55,0,0,0-5.13.38c-.3.14-.46.74-.46,1.81,0,2.07,0,5.18.11,9.31s.1,7.23.1,9.31q0,1.19-.57,1.47a19.52,19.52,0,0,1-3.95.75,15.69,15.69,0,0,1-3.61.22c-.41-.09-.61-.49-.61-1.22q0-4.5.22-13.6c.15-6.06.22-10.59.22-13.62q0-4.81-.21-14.51c-.14-6.47-.21-11.33-.21-14.55,0-.61.14-.89.44-.85s1.09.22,2,.45,1.53.36,2,.43,1.12.14,2,.21a19.82,19.82,0,0,1,2,.21c.24,0,.36.29.36.77,0,2-.08,5-.23,8.93s-.23,7-.23,9c0,.93.13,1.48.4,1.66s2.16.43,5.38.61a22.2,22.2,0,0,0,5.21,0c.34-.13.51-.64.51-1.51q0-2.72-.15-8.2t-.15-8.24c0-.78.18-1.14.53-1.08s1,.2,1.86.41,1.46.35,1.88.41,1,.13,1.86.19,1.46.13,1.88.2.61.38.61,1c0,2.75-.07,6.88-.2,12.43s-.2,9.71-.2,12.49c0,2.61.07,6.54.22,11.75S76.54,61.42,76.54,64Z" transform="translate(-2.69 -2.74)"/><path class="cls-1" d="M195.7,39.72c0,8.23-1.39,15.12-4.18,20.3s-6.45,7.42-10.81,6.83-7.92-3.67-10.78-8.85a35.92,35.92,0,0,1-4.21-17.79,37,37,0,0,1,4.2-18c2.86-5.31,6.46-8.52,10.79-9.25s7.9,1.35,10.76,6.59S195.7,31.57,195.7,39.72Zm-8,.06a21.3,21.3,0,0,0-1.91-9.54c-1.34-2.66-3-3.85-5.11-3.66s-3.65,1.71-5,4.5a20.07,20.07,0,0,0-2,9,19.56,19.56,0,0,0,1.87,9c1.31,2.58,3,4,5.15,4.09s3.66-1.17,5-4A21.05,21.05,0,0,0,187.73,39.78Z" transform="translate(-2.69 -2.74)"/><path class="cls-1" d="M228,39.19c0,9.61-1.39,17.66-4.18,23.77S217.4,71.79,213,71.2s-7.92-4.14-10.78-10.28-4.21-13-4.21-21.24,1.41-15.33,4.21-21.45,6.45-10,10.78-10.68,7.9,1.83,10.76,8S228,29.68,228,39.19Zm-8,.05A29,29,0,0,0,218.15,28c-1.33-3.14-3-4.58-5.11-4.39s-3.65,2-5,5.26a27.24,27.24,0,0,0-2,10.67,26.94,26.94,0,0,0,1.87,10.69c1.31,3,3,4.68,5.15,4.8s3.67-1.42,5.05-4.69A28.6,28.6,0,0,0,220.06,39.24Z" transform="translate(-2.69 -2.74)"/><path class="cls-1" d="M250.48,75.22c-1.2-.16-2.79-.45-4.71-.81-2.5-.48-4.09-.75-4.71-.86l-6.28-1a9.73,9.73,0,0,1-2.71-.54c-.38-.15-.61-.72-.61-1.53,0-3.41,0-8.5.07-15.3s.07-11.9.07-15.3q0-5.45-.14-16.29t-.15-16.26c0-.69.21-1.06.63-1.13a17.89,17.89,0,0,1,1.88-.16q1.26-.06,1.86-.15a21.16,21.16,0,0,0,2.06-.5,20.46,20.46,0,0,1,2.06-.49q.31-.06.3.87l0,.64q-.26,9.18-.57,27.49c0,5.13,0,7.69,0,12.81,0,4.14,0,7.19,0,9.07,0,.39,0,.78,0,1.17a.83.83,0,0,0,.31.75l.55,0a46.72,46.72,0,0,0,5.67-.12,49.75,49.75,0,0,1,5.66-.14c.38,0,.57.43.57,1.21q0,8.75-.53,15c-.07.87-.21,1.38-.44,1.52C251.27,75.29,251,75.29,250.48,75.22Z" transform="translate(-2.69 -2.74)"/><rect class="cls-2" x="102.73" y="65.15" width="31.3" height="9.74" rx="3.06"/><path class="cls-2" d="M150.23,7.38H91.92a10.9,10.9,0,0,0-11,10.81V54.47a10.9,10.9,0,0,0,11,10.82h58.31a10.9,10.9,0,0,0,11-10.82V18.19A10.9,10.9,0,0,0,150.23,7.38Zm.63,44.44a3.76,3.76,0,0,1-3.79,3.73h-52a3.76,3.76,0,0,1-3.79-3.73v-31a3.76,3.76,0,0,1,3.79-3.73h52a3.76,3.76,0,0,1,3.79,3.73Z" transform="translate(-2.69 -2.74)"/><text class="cls-3" transform="translate(102.73 46.84) scale(1.02 1)">IT</text></svg>