<svg width="900" height="900" viewBox="0 0 900 900" fill="none" xmlns="http://www.w3.org/2000/svg">
<path d="M450 900C698.528 900 900 698.528 900 450C900 201.472 698.528 0 450 0C201.472 0 0 201.472 0 450C0 698.528 201.472 900 450 900Z" fill="#FD7013"/>
<rect x="216.747" y="237.949" width="500.253" height="331.297" rx="15" fill="#D76114"/>
<rect x="226.673" y="247.928" width="480.401" height="311.339" rx="7" fill="#D76114"/>
<rect x="216.747" y="490.413" width="500.253" height="13.9703" rx="6.98517" fill="#D76114"/>
<path d="M226.673 500.392H707.074V552.267C707.074 556.133 703.94 559.267 700.074 559.267H233.673C229.807 559.267 226.673 556.133 226.673 552.267V500.392Z" fill="#D76114"/>
<path d="M693.178 500.392H707.074V552.267C707.074 556.133 703.94 559.267 700.074 559.267H693.178V500.392Z" fill="#D76114"/>
<path d="M226.673 500.392H240.569V559.267H233.673C229.807 559.267 226.673 556.133 226.673 552.267V500.392Z" fill="#D76114"/>
<path d="M693.178 247.928H700.074C703.94 247.928 707.074 251.062 707.074 254.928V490.413H693.178V247.928Z" fill="#D76114"/>
<path d="M226.673 254.928C226.673 251.062 229.807 247.928 233.673 247.928H240.569V490.413H226.673V254.928Z" fill="#D76114"/>
<path d="M250.494 286.877C250.494 278.593 257.21 271.877 265.494 271.877H668.253C676.537 271.877 683.253 278.593 683.253 286.877V490.413H250.494V286.877Z" fill="#D76114"/>
<path d="M264.39 288.856C264.39 284.99 267.524 281.856 271.39 281.856H662.357C666.223 281.856 669.357 284.99 669.357 288.856V490.413H264.39V288.856Z" fill="#D76114"/>
<path d="M659.431 281.856H666.327C670.193 281.856 673.327 284.99 673.327 288.856V490.413H659.431V281.856Z" fill="#D76114"/>
<path d="M260.42 288.856C260.42 284.99 263.554 281.856 267.42 281.856H274.316V490.413H260.42V288.856Z" fill="#D76114"/>
<path d="M442.06 530.328C442.06 533.084 444.293 535.318 447.049 535.318H486.698C489.454 535.318 491.688 533.084 491.688 530.328C491.688 527.573 489.454 525.339 486.698 525.339H447.049C444.293 525.339 442.06 527.573 442.06 530.328Z" fill="#D76114"/>
<path d="M345.781 652.102C345.781 643.817 352.496 637.102 360.781 637.102H572.967C581.251 637.102 587.967 643.817 587.967 652.102V683C587.967 684.105 587.071 685 585.967 685H347.781C346.676 685 345.781 684.105 345.781 683V652.102Z" fill="#D76114"/>
<path d="M359.677 654.081C359.677 650.215 362.811 647.081 366.677 647.081H567.071C570.937 647.081 574.071 650.215 574.071 654.081V675.021H359.677V654.081Z" fill="#D76114"/>
<path d="M355.706 654.081C355.706 650.215 358.84 647.081 362.706 647.081H369.602V675.021H355.706V654.081Z" fill="#D76114"/>
<path d="M564.145 647.081H571.041C574.907 647.081 578.041 650.215 578.041 654.081V675.021H564.145V647.081Z" fill="#D76114"/>
<path d="M402.357 644.087C399.616 644.087 397.394 641.865 397.394 639.124V564.23C397.394 561.489 399.616 559.267 402.357 559.267C405.098 559.267 407.32 561.489 407.32 564.23V639.124C407.32 641.865 405.098 644.087 402.357 644.087Z" fill="#D76114"/>
<path d="M531.39 644.087C528.649 644.087 526.427 641.865 526.427 639.124V564.23C526.427 561.489 528.649 559.267 531.39 559.267C534.131 559.267 536.353 561.489 536.353 564.23V639.124C536.353 641.865 534.131 644.087 531.39 644.087Z" fill="#D76114"/>
<rect x="407.32" y="573.237" width="119.108" height="63.8644" fill="#D76114"/>
<rect x="407.32" y="569.246" width="119.108" height="13.9703" fill="#D76114"/>
<path d="M440.639 468.497L440.64 468.469C443.738 467.789 446.632 466.558 449.219 464.884L449.249 464.912C451.439 467.065 454.963 467.05 457.135 464.867C458.194 463.802 458.778 462.386 458.778 460.88C458.778 459.395 458.211 457.998 457.179 456.938L457.152 456.908C458.817 454.308 460.042 451.399 460.718 448.284L460.746 448.283C463.809 448.248 466.291 445.732 466.291 442.644C466.291 439.557 463.809 437.041 460.746 437.006L460.718 437.005C460.041 433.89 458.817 430.981 457.152 428.381L457.18 428.351C459.322 426.148 459.306 422.606 457.135 420.422C454.963 418.239 451.439 418.224 449.249 420.377L449.219 420.405C446.632 418.731 443.738 417.5 440.64 416.82L440.638 416.792C440.604 413.712 438.102 411.218 435.03 411.218C431.959 411.218 429.457 413.712 429.422 416.792L429.421 416.82C426.323 417.5 423.429 418.731 420.842 420.405L420.812 420.377C418.622 418.224 415.098 418.239 412.927 420.422C411.867 421.487 411.284 422.903 411.284 424.409C411.284 425.894 411.851 427.291 412.882 428.351L412.909 428.381C411.245 430.981 410.02 433.89 409.344 437.005L409.315 437.006C406.252 437.041 403.77 439.557 403.77 442.644V442.645C403.77 444.151 404.354 445.566 405.413 446.631C406.457 447.681 407.841 448.266 409.315 448.283L409.344 448.284C410.02 451.399 411.244 454.308 412.909 456.908L412.881 456.939C410.74 459.141 410.755 462.684 412.926 464.867C415.098 467.05 418.622 467.065 420.812 464.912L420.842 464.884C423.429 466.558 426.322 467.789 429.421 468.469L429.422 468.497C429.456 471.576 431.958 474.071 435.03 474.071C438.102 474.071 440.604 471.577 440.639 468.497ZM414.252 442.644C414.252 431.107 423.555 421.754 435.031 421.754C446.506 421.754 455.809 431.107 455.809 442.644C455.809 454.181 446.506 463.534 435.031 463.534C423.555 463.534 414.252 454.181 414.252 442.644Z" fill="#D76114"/>
<path d="M414.252 442.644C414.252 431.107 423.555 421.754 435.031 421.754C446.506 421.754 455.809 431.107 455.809 442.644C455.809 454.181 446.506 463.534 435.031 463.534C423.555 463.534 414.252 454.181 414.252 442.644Z" fill="#D76114"/>
<path d="M398.777 386.988L401.923 383.825C404.997 385.63 408.263 386.995 411.678 387.901V392.36C411.678 393.892 412.913 395.133 414.436 395.133H429.146C430.67 395.133 431.905 393.892 431.905 392.36V387.901C435.319 386.995 438.586 385.63 441.659 383.825L444.805 386.988C445.883 388.071 447.629 388.071 448.706 386.988L459.108 376.531C460.185 375.447 460.185 373.692 459.108 372.609L455.962 369.446C457.757 366.357 459.115 363.072 460.017 359.639H464.452C465.975 359.639 467.21 358.398 467.21 356.866L467.21 342.077C467.21 340.545 465.975 339.304 464.452 339.304H460.017C459.115 335.871 457.757 332.587 455.962 329.497L459.108 326.334C459.625 325.814 459.916 325.109 459.916 324.373C459.916 323.637 459.625 322.933 459.108 322.412L448.706 311.955C447.629 310.872 445.883 310.872 444.806 311.955L441.66 315.118C438.587 313.313 435.32 311.947 431.905 311.041V306.582C431.905 305.05 430.67 303.809 429.147 303.809L414.436 303.809C412.913 303.809 411.678 305.05 411.678 306.582V311.041C408.263 311.947 404.997 313.313 401.923 315.118L398.777 311.955C397.7 310.872 395.954 310.872 394.877 311.955L384.475 322.412C383.958 322.932 383.667 323.637 383.667 324.373C383.667 325.109 383.958 325.813 384.475 326.334L387.621 329.497C385.826 332.586 384.468 335.871 383.566 339.304H379.131C377.608 339.304 376.373 340.545 376.373 342.077V356.866C376.373 358.398 377.608 359.639 379.131 359.639H383.566C384.468 363.072 385.826 366.356 387.621 369.446L384.475 372.609C383.398 373.692 383.398 375.447 384.475 376.53L394.877 386.988C395.953 388.071 397.7 388.071 398.777 386.988ZM414.985 382.984C410.728 382.116 406.711 380.438 403.044 377.996C401.95 377.268 400.498 377.415 399.571 378.347L396.827 381.106L390.326 374.57L393.069 371.811C393.997 370.878 394.142 369.418 393.419 368.32C390.99 364.633 389.321 360.594 388.457 356.314C388.196 355.022 387.065 354.093 385.754 354.093H381.889V344.85H385.754C387.065 344.85 388.196 343.921 388.457 342.628C389.321 338.349 390.99 334.31 393.419 330.623C394.142 329.524 393.997 328.063 393.069 327.131L390.326 324.373L396.827 317.837L399.57 320.596C400.497 321.528 401.95 321.675 403.043 320.946C406.71 318.505 410.728 316.826 414.985 315.958C416.27 315.695 417.194 314.559 417.194 313.24V309.355H426.388V313.24C426.388 314.559 427.312 315.696 428.597 315.958C432.853 316.827 436.871 318.506 440.538 320.947C441.632 321.675 443.084 321.528 444.011 320.596L446.755 317.837L453.256 324.373L450.512 327.131C449.585 328.064 449.439 329.524 450.163 330.623C452.591 334.31 454.261 338.349 455.125 342.629C455.386 343.921 456.516 344.85 457.828 344.85H461.694V354.093H457.829C456.517 354.093 455.387 355.022 455.126 356.315C454.262 360.594 452.592 364.633 450.164 368.32C449.44 369.419 449.586 370.879 450.514 371.812L453.257 374.57L446.756 381.106L444.012 378.348C443.085 377.415 441.632 377.268 440.539 377.997C436.872 380.438 432.854 382.117 428.598 382.985C427.312 383.247 426.389 384.383 426.389 385.703V389.587H417.194V385.702C417.194 384.383 416.27 383.247 414.985 382.984Z" fill="#D76114"/>
<path d="M414.985 382.984C410.728 382.116 406.711 380.438 403.044 377.996C401.95 377.268 400.498 377.415 399.571 378.347L396.827 381.106L390.326 374.57L393.069 371.811C393.997 370.878 394.142 369.418 393.419 368.32C390.99 364.633 389.321 360.594 388.457 356.314C388.196 355.022 387.065 354.093 385.754 354.093H381.889V344.85H385.754C387.065 344.85 388.196 343.921 388.457 342.628C389.321 338.349 390.99 334.31 393.419 330.623C394.142 329.524 393.997 328.063 393.069 327.131L390.326 324.373L396.827 317.837L399.57 320.596C400.497 321.528 401.95 321.675 403.043 320.946C406.71 318.505 410.728 316.826 414.985 315.958C416.27 315.695 417.194 314.559 417.194 313.24V309.355H426.388V313.24C426.388 314.559 427.312 315.696 428.597 315.958C432.853 316.827 436.871 318.506 440.538 320.947C441.632 321.675 443.084 321.528 444.011 320.596L446.755 317.837L453.256 324.373L450.512 327.131C449.585 328.064 449.439 329.524 450.163 330.623C452.591 334.31 454.261 338.349 455.125 342.629C455.386 343.921 456.516 344.85 457.828 344.85H461.694V354.093H457.829C456.517 354.093 455.387 355.022 455.126 356.315C454.262 360.594 452.592 364.633 450.164 368.32C449.44 369.419 449.586 370.879 450.514 371.812L453.257 374.57L446.756 381.106L444.012 378.348C443.085 377.415 441.632 377.268 440.539 377.997C436.872 380.438 432.854 382.117 428.598 382.985C427.312 383.247 426.389 384.383 426.389 385.703V389.587H417.194V385.702C417.194 384.383 416.27 383.247 414.985 382.984Z" fill="#D76114"/>
<path d="M446.615 349.471C446.615 335.71 435.479 324.514 421.791 324.514C408.103 324.514 396.967 335.71 396.967 349.471C396.967 363.233 408.103 374.428 421.791 374.428C435.479 374.428 446.615 363.233 446.615 349.471ZM402.483 349.471C402.483 338.768 411.145 330.06 421.791 330.06C432.437 330.06 441.099 338.768 441.099 349.471C441.099 360.174 432.437 368.882 421.791 368.882C411.145 368.882 402.483 360.174 402.483 349.471Z" fill="#D76114"/>
<path d="M402.483 349.471C402.483 338.768 411.145 330.06 421.791 330.06C432.437 330.06 441.099 338.768 441.099 349.471C441.099 360.174 432.437 368.882 421.791 368.882C411.145 368.882 402.483 360.174 402.483 349.471Z" fill="#D76114"/>
<path d="M390.715 433.771V430.435C394.284 429.948 397.561 428.534 400.299 426.437L402.65 428.801C403.727 429.884 405.474 429.884 406.55 428.8C407.628 427.718 407.628 425.962 406.55 424.879L404.2 422.516C406.285 419.763 407.692 416.468 408.176 412.881H411.494C413.017 412.881 414.252 411.639 414.252 410.108C414.252 408.576 413.017 407.335 411.494 407.335H408.176C407.692 403.747 406.285 400.452 404.2 397.7L406.55 395.336C407.628 394.254 407.628 392.498 406.55 391.415C405.473 390.332 403.727 390.332 402.65 391.415L400.299 393.778C397.561 391.682 394.284 390.267 390.715 389.78V386.445C390.715 384.913 389.48 383.672 387.957 383.672C386.434 383.672 385.199 384.913 385.199 386.445V389.78C381.63 390.267 378.353 391.682 375.615 393.778L373.264 391.415C372.187 390.332 370.441 390.332 369.364 391.415C368.825 391.956 368.556 392.666 368.556 393.376C368.556 394.085 368.825 394.795 369.364 395.337L371.714 397.7C369.629 400.452 368.222 403.748 367.738 407.335H364.42C362.897 407.335 361.662 408.576 361.662 410.108C361.662 411.64 362.897 412.881 364.42 412.881H367.738C368.222 416.469 369.629 419.764 371.714 422.516L369.364 424.879C368.825 425.421 368.556 426.13 368.556 426.84C368.556 427.55 368.825 428.26 369.364 428.801C370.441 429.884 372.187 429.884 373.264 428.801L375.615 426.438C378.353 428.534 381.63 429.949 385.199 430.436V433.771C385.199 435.303 386.434 436.544 387.957 436.544C389.48 436.544 390.715 435.302 390.715 433.771ZM373.063 410.108C373.063 401.851 379.744 395.133 387.957 395.133C396.17 395.133 402.852 401.851 402.852 410.108C402.852 418.365 396.17 425.082 387.957 425.082C379.744 425.082 373.063 418.365 373.063 410.108Z" fill="#D76114"/>
<path d="M373.063 410.108C373.063 401.851 379.744 395.133 387.957 395.133C396.17 395.133 402.852 401.851 402.852 410.108C402.852 418.365 396.17 425.082 387.957 425.082C379.744 425.082 373.063 418.365 373.063 410.108Z" fill="#D76114"/>
<path d="M434.847 349.471C434.847 342.234 428.99 336.346 421.791 336.346C414.592 336.346 408.736 342.234 408.736 349.471C408.736 356.709 414.592 362.597 421.791 362.597C428.99 362.597 434.847 356.709 434.847 349.471ZM414.252 349.471C414.252 345.292 417.634 341.892 421.791 341.892C425.949 341.892 429.33 345.292 429.33 349.471C429.33 353.651 425.949 357.051 421.791 357.051C417.634 357.051 414.252 353.651 414.252 349.471Z" fill="#D76114"/>
<path d="M414.252 349.471C414.252 345.292 417.634 341.892 421.791 341.892C425.949 341.892 429.33 345.292 429.33 349.471C429.33 353.651 425.949 357.051 421.791 357.051C417.634 357.051 414.252 353.651 414.252 349.471Z" fill="#D76114"/>
<path d="M396.599 410.108C396.599 405.317 392.722 401.419 387.957 401.419C383.191 401.419 379.314 405.317 379.314 410.108C379.314 414.899 383.191 418.796 387.957 418.796C392.722 418.796 396.599 414.899 396.599 410.108ZM384.831 410.108C384.831 408.375 386.233 406.965 387.957 406.965C389.681 406.965 391.083 408.375 391.083 410.108C391.083 411.841 389.681 413.25 387.957 413.25C386.233 413.25 384.831 411.841 384.831 410.108Z" fill="#D76114"/>
<path d="M384.831 410.108C384.831 408.375 386.233 406.965 387.957 406.965C389.681 406.965 391.083 408.375 391.083 410.108C391.083 411.841 389.681 413.25 387.957 413.25C386.233 413.25 384.831 411.841 384.831 410.108Z" fill="#D76114"/>
<path d="M449.558 442.644C449.558 434.591 443.041 428.04 435.031 428.04C427.021 428.04 420.504 434.591 420.504 442.644C420.504 450.697 427.021 457.249 435.031 457.249C443.041 457.249 449.558 450.697 449.558 442.644ZM426.021 442.644C426.021 437.649 430.063 433.586 435.031 433.586C439.999 433.586 444.041 437.649 444.041 442.644C444.041 447.639 439.999 451.703 435.031 451.703C430.063 451.703 426.021 447.639 426.021 442.644Z" fill="#D76114"/>
<path d="M426.021 442.644C426.021 437.649 430.063 433.586 435.031 433.586C439.999 433.586 444.041 437.649 444.041 442.644C444.041 447.639 439.999 451.703 435.031 451.703C430.063 451.703 426.021 447.639 426.021 442.644Z" fill="#D76114"/>
<path d="M569.55 448.557L544.278 423.149C543.462 422.329 542.14 422.329 541.325 423.149L540.314 424.165L537.834 421.672C549.906 405.932 548.77 383.184 534.426 368.763C518.848 353.101 493.5 353.101 477.922 368.763C462.344 384.424 462.344 409.908 477.922 425.569C485.711 433.4 495.943 437.316 506.174 437.316C514.785 437.316 523.395 434.542 530.55 428.995L533.03 431.489L532.019 432.505C531.627 432.899 531.407 433.433 531.407 433.99C531.407 434.546 531.627 435.08 532.019 435.474L557.291 460.882C558.981 462.581 561.201 463.43 563.421 463.43C565.641 463.43 567.861 462.581 569.551 460.882C572.93 457.484 572.93 451.955 569.55 448.557ZM480.875 422.6C474.117 415.806 470.396 406.774 470.396 397.166C470.396 387.558 474.118 378.525 480.875 371.732C487.633 364.938 496.617 361.196 506.174 361.196C515.73 361.196 524.715 364.938 531.473 371.732C538.231 378.526 541.952 387.558 541.952 397.166C541.952 406.774 538.231 415.807 531.473 422.6C524.715 429.394 515.731 433.136 506.174 433.136C496.618 433.136 487.633 429.394 480.875 422.6ZM533.728 426.253C533.963 426.029 534.196 425.801 534.426 425.569C534.656 425.337 534.883 425.103 535.106 424.868L537.361 427.134L535.983 428.52L533.728 426.253ZM566.597 457.913C564.845 459.674 561.996 459.674 560.244 457.913L555.147 452.789L536.448 433.99L542.801 427.603L553.606 438.465L566.597 451.526C568.349 453.287 568.349 456.152 566.597 457.913Z" fill="#D76114"/>
<path d="M533.728 426.253C533.963 426.029 534.196 425.801 534.426 425.569C534.656 425.337 534.883 425.103 535.106 424.868L537.361 427.134L535.983 428.52L533.728 426.253Z" fill="#D76114"/>
<path d="M480.875 422.6C474.117 415.806 470.396 406.774 470.396 397.166C470.396 387.558 474.118 378.525 480.875 371.732C487.633 364.938 496.617 361.196 506.174 361.196C515.73 361.196 524.715 364.938 531.473 371.732C538.231 378.526 541.952 387.558 541.952 397.166C541.952 406.774 538.231 415.807 531.473 422.6C524.715 429.394 515.731 433.136 506.174 433.136C496.618 433.136 487.633 429.394 480.875 422.6Z" fill="#D76114"/>
<path d="M542.801 427.603L536.448 433.99L555.147 452.789L553.606 438.465L542.801 427.603Z" fill="#D76114"/>
<path d="M560.244 457.913C561.996 459.674 564.845 459.674 566.597 457.913C568.349 456.152 568.349 453.287 566.597 451.526L553.606 438.465L555.147 452.789L560.244 457.913Z" fill="#D76114"/>
<path d="M528.358 374.863C522.432 368.906 514.554 365.625 506.174 365.625C497.794 365.625 489.915 368.906 483.99 374.863C478.064 380.82 474.801 388.741 474.801 397.166C474.801 405.591 478.064 413.512 483.99 419.469C489.915 425.426 497.794 428.707 506.174 428.707C514.554 428.707 522.432 425.426 528.358 419.469C534.283 413.512 537.547 405.591 537.547 397.166C537.547 388.741 534.283 380.82 528.358 374.863ZM525.405 416.5C520.268 421.664 513.438 424.509 506.174 424.509C498.91 424.509 492.08 421.665 486.943 416.5C476.339 405.839 476.339 388.493 486.943 377.832C492.08 372.668 498.91 369.824 506.174 369.824C513.438 369.824 520.268 372.668 525.405 377.832C536.009 388.493 536.009 405.839 525.405 416.5Z" fill="#D76114"/>
<path d="M525.405 416.5C520.268 421.664 513.438 424.509 506.174 424.509C498.91 424.509 492.08 421.665 486.943 416.5C476.339 405.839 476.339 388.493 486.943 377.832C492.08 372.668 498.91 369.824 506.174 369.824C513.438 369.824 520.268 372.668 525.405 377.832C536.009 388.493 536.009 405.839 525.405 416.5Z" fill="#D76114"/>
<path d="M518.873 376.137C517.888 375.534 516.603 375.849 516.004 376.839C515.405 377.83 515.718 379.122 516.703 379.724C518.083 380.567 519.367 381.583 520.52 382.743C520.928 383.153 521.463 383.358 521.997 383.358C522.531 383.358 523.066 383.153 523.473 382.743C524.289 381.923 524.289 380.594 523.473 379.774C522.085 378.378 520.537 377.154 518.873 376.137Z" fill="#D76114"/>
<path d="M490.351 383.358C490.885 383.358 491.42 383.153 491.827 382.743C496.391 378.155 502.928 376.013 509.314 377.013C510.454 377.191 511.521 376.407 511.698 375.261C511.876 374.115 511.096 373.042 509.957 372.864C502.258 371.659 494.377 374.242 488.874 379.774C488.059 380.594 488.059 381.923 488.874 382.743C489.282 383.153 489.817 383.358 490.351 383.358Z" fill="#D76114"/>
<path d="M495.454 414.49C494.147 413.671 492.927 412.695 491.827 411.589C491.012 410.769 489.69 410.769 488.874 411.589C488.059 412.409 488.059 413.738 488.874 414.558C490.199 415.889 491.669 417.065 493.245 418.053C493.588 418.268 493.97 418.371 494.347 418.371C495.044 418.371 495.726 418.02 496.122 417.382C496.732 416.399 496.433 415.104 495.454 414.49Z" fill="#D76114"/>
<path d="M520.521 411.589C516.097 416.037 509.991 418.163 503.769 417.421C502.624 417.284 501.585 418.107 501.45 419.258C501.314 420.41 502.132 421.454 503.277 421.59C504.26 421.707 505.239 421.765 506.213 421.765C512.67 421.765 518.838 419.219 523.474 414.558C524.289 413.738 524.289 412.409 523.474 411.589C522.659 410.77 521.336 410.77 520.521 411.589Z" fill="#D76114"/>
<path d="M494.213 392.804C494.305 392.63 494.462 392.501 494.65 392.444C494.837 392.386 495.04 392.406 495.213 392.499L496.517 393.198C496.811 391.787 497.509 390.492 498.525 389.474C499.578 388.415 500.872 387.741 502.23 387.455L501.533 386.145C501.486 386.059 501.457 385.964 501.447 385.866C501.437 385.769 501.446 385.67 501.474 385.576C501.502 385.482 501.548 385.395 501.61 385.319C501.672 385.243 501.748 385.18 501.834 385.134C501.92 385.087 502.014 385.059 502.111 385.049C502.208 385.04 502.306 385.05 502.4 385.079C502.493 385.107 502.58 385.154 502.655 385.217C502.73 385.28 502.792 385.357 502.837 385.443L503.822 387.296C505.761 387.312 507.615 388.094 508.984 389.474L509.507 388.948C509.646 388.809 509.724 388.62 509.724 388.422C509.724 388.225 509.646 388.036 509.507 387.897L508.984 387.371C508.845 387.231 508.767 387.042 508.767 386.845C508.767 386.648 508.845 386.459 508.984 386.319C509.123 386.18 509.311 386.101 509.507 386.101C509.703 386.101 509.891 386.18 510.03 386.319L510.553 386.845C510.969 387.263 511.203 387.831 511.203 388.422C511.203 389.014 510.969 389.581 510.553 390L510.03 390.525L511.076 391.577L512.645 390C512.783 389.86 512.972 389.782 513.168 389.782C513.364 389.782 513.552 389.86 513.691 390C513.829 390.139 513.907 390.328 513.907 390.525C513.907 390.723 513.829 390.912 513.691 391.051L512.122 392.628L513.168 393.68L513.691 393.154C514.107 392.736 514.671 392.501 515.26 392.501C515.848 392.501 516.412 392.736 516.828 393.154L517.351 393.68C517.49 393.819 517.568 394.008 517.568 394.206C517.568 394.403 517.49 394.592 517.351 394.731C517.213 394.871 517.025 394.949 516.828 394.949C516.632 394.949 516.444 394.871 516.305 394.731L515.783 394.206C515.644 394.066 515.456 393.988 515.26 393.988C515.063 393.988 514.875 394.066 514.737 394.206L514.214 394.731C515.601 396.126 516.38 398.017 516.38 399.989C516.38 401.961 515.601 403.852 514.214 405.247C512.827 406.641 510.946 407.424 508.984 407.424C507.023 407.424 505.141 406.641 503.755 405.247L503.232 405.772C503.093 405.912 503.015 406.101 503.015 406.298C503.015 406.495 503.093 406.684 503.232 406.824L503.755 407.35C503.893 407.489 503.971 407.678 503.971 407.875C503.971 408.073 503.893 408.262 503.755 408.401C503.616 408.541 503.428 408.619 503.232 408.619C503.035 408.619 502.847 408.541 502.709 408.401L502.186 407.875C501.77 407.457 501.536 406.89 501.536 406.298C501.536 405.707 501.77 405.139 502.186 404.721L502.709 404.195L501.663 403.144L500.094 404.721C499.955 404.86 499.767 404.939 499.571 404.939C499.375 404.939 499.187 404.86 499.048 404.721C498.909 404.581 498.831 404.392 498.831 404.195C498.831 403.998 498.909 403.809 499.048 403.669L500.617 402.092L499.571 401.041L499.048 401.566C498.632 401.985 498.067 402.22 497.479 402.22C496.891 402.22 496.326 401.985 495.91 401.566L495.387 401.041C495.248 400.901 495.171 400.712 495.171 400.515C495.171 400.318 495.248 400.128 495.387 399.989C495.526 399.85 495.714 399.771 495.91 399.771C496.106 399.771 496.294 399.85 496.433 399.989L496.956 400.515C497.095 400.654 497.283 400.733 497.479 400.733C497.675 400.733 497.863 400.654 498.002 400.515L498.525 399.989C497.098 398.555 496.377 396.679 496.359 394.8L494.516 393.809C494.343 393.716 494.214 393.558 494.157 393.37C494.101 393.181 494.12 392.978 494.213 392.804ZM500.617 399.989L504.8 404.195C505.819 405.22 507.175 405.836 508.614 405.927C510.053 406.018 511.475 405.578 512.613 404.689L504.277 396.309L500.617 399.989ZM505.323 395.257L513.659 403.638C514.543 402.493 514.981 401.063 514.89 399.617C514.8 398.171 514.187 396.807 513.168 395.783L508.984 391.577L505.323 395.257ZM507.938 390.525C507.35 389.933 506.644 389.472 505.866 389.173C505.088 388.874 504.255 388.745 503.424 388.792C501.971 388.872 500.598 389.489 499.571 390.525C498.539 391.558 497.925 392.939 497.846 394.4C497.799 395.236 497.928 396.072 498.225 396.854C498.523 397.636 498.981 398.346 499.571 398.938L507.938 390.525Z" fill="#D76114"/>
<path d="M505.323 395.257L513.659 403.638C514.543 402.493 514.981 401.063 514.89 399.617C514.8 398.171 514.187 396.807 513.168 395.783L508.984 391.577L505.323 395.257Z" fill="#D76114"/>
<path d="M500.617 399.989L504.8 404.195C505.819 405.22 507.175 405.836 508.614 405.927C510.053 406.018 511.475 405.578 512.613 404.689L504.277 396.309L500.617 399.989Z" fill="#D76114"/>
<path d="M507.938 390.525C507.35 389.933 506.644 389.472 505.866 389.173C505.088 388.874 504.255 388.745 503.424 388.792C501.971 388.872 500.598 389.489 499.571 390.525C498.539 391.558 497.925 392.939 497.846 394.4C497.799 395.236 497.928 396.072 498.225 396.854C498.523 397.636 498.981 398.346 499.571 398.938L507.938 390.525Z" fill="#D76114"/>
<rect x="183" y="214" width="500.253" height="331.297" rx="15" fill="#222831"/>
<rect x="192.926" y="223.979" width="480.401" height="311.339" rx="7" fill="#C6BAF9"/>
<rect x="183" y="466.464" width="500.253" height="13.9703" rx="6.98517" fill="#222831"/>
<path d="M192.926 476.443H673.327V528.318C673.327 532.184 670.193 535.318 666.327 535.318H199.926C196.06 535.318 192.926 532.184 192.926 528.318V476.443Z" fill="#96DCEC"/>
<path d="M659.431 476.443H673.327V528.318C673.327 532.184 670.193 535.318 666.327 535.318H659.431V476.443Z" fill="#82C9D9"/>
<path d="M192.926 476.443H206.822V535.318H199.926C196.06 535.318 192.926 532.184 192.926 528.318V476.443Z" fill="#C3E5EC"/>
<path d="M659.431 223.979H666.327C670.193 223.979 673.327 227.113 673.327 230.979V466.464H659.431V223.979Z" fill="#ACA0E2"/>
<path d="M192.926 230.979C192.926 227.113 196.06 223.979 199.926 223.979H206.822V466.464H192.926V230.979Z" fill="#D6CEF9"/>
<path d="M216.747 262.928C216.747 254.644 223.463 247.928 231.747 247.928H634.505C642.79 247.928 649.505 254.644 649.505 262.928V466.464H216.747V262.928Z" fill="#222831"/>
<path d="M230.643 264.907C230.643 261.041 233.777 257.907 237.643 257.907H628.61C632.476 257.907 635.61 261.041 635.61 264.907V466.464H230.643V264.907Z" fill="#D2ECFF"/>
<path d="M625.684 257.907H632.58C636.446 257.907 639.58 261.041 639.58 264.907V466.464H625.684V257.907Z" fill="#A5D9FF"/>
<path d="M226.673 264.907C226.673 261.041 229.807 257.907 233.673 257.907H240.569V466.464H226.673V264.907Z" fill="#E9F6FF"/>
<path d="M408.312 506.379C408.312 509.135 410.546 511.369 413.302 511.369H452.951C455.707 511.369 457.941 509.135 457.941 506.379C457.941 503.624 455.707 501.39 452.951 501.39H413.302C410.546 501.39 408.312 503.624 408.312 506.379Z" fill="#222831"/>
<path d="M312.033 628.153C312.033 619.868 318.749 613.153 327.033 613.153H539.219C547.504 613.153 554.219 619.868 554.219 628.153V659.051C554.219 660.155 553.324 661.051 552.219 661.051H314.033C312.929 661.051 312.033 660.155 312.033 659.051V628.153Z" fill="#222831"/>
<path d="M325.929 630.131C325.929 626.265 329.063 623.131 332.929 623.131H533.324C537.189 623.131 540.324 626.265 540.324 630.131V651.072H325.929V630.131Z" fill="#96DCEC"/>
<path d="M321.959 630.131C321.959 626.265 325.093 623.131 328.959 623.131H335.855V651.072H321.959V630.131Z" fill="#C3E4EC"/>
<path d="M530.398 623.131H537.294C541.16 623.131 544.294 626.265 544.294 630.131V651.072H530.398V623.131Z" fill="#82C9D9"/>
<path d="M368.61 620.138C365.869 620.138 363.647 617.916 363.647 615.175V540.281C363.647 537.54 365.869 535.318 368.61 535.318C371.351 535.318 373.573 537.54 373.573 540.281V615.175C373.573 617.916 371.351 620.138 368.61 620.138Z" fill="#222831"/>
<path d="M497.643 620.138C494.902 620.138 492.68 617.916 492.68 615.175V540.281C492.68 537.54 494.902 535.318 497.643 535.318C500.384 535.318 502.606 537.54 502.606 540.281V615.175C502.606 617.916 500.384 620.138 497.643 620.138Z" fill="#222831"/>
<rect x="373.573" y="549.288" width="119.108" height="63.8644" fill="#C6BAF9"/>
<rect x="373.573" y="545.297" width="119.108" height="13.9703" fill="#ACA0E2"/>
<path d="M403.204 454.185L403.205 454.151C406.783 453.366 410.125 451.945 413.113 450.012L413.147 450.044C415.676 452.53 419.746 452.513 422.254 449.992C423.477 448.762 424.151 447.127 424.151 445.388C424.151 443.673 423.496 442.059 422.305 440.836L422.274 440.801C424.196 437.798 425.611 434.439 426.391 430.841L426.424 430.84C429.961 430.8 432.827 427.895 432.828 424.329C432.828 420.764 429.962 417.858 426.424 417.818L426.391 417.817C425.61 414.22 424.196 410.86 422.274 407.857L422.306 407.822C424.779 405.279 424.762 401.189 422.254 398.666C419.746 396.146 415.677 396.128 413.147 398.614L413.112 398.647C410.125 396.714 406.783 395.292 403.205 394.507L403.204 394.474C403.164 390.918 400.274 388.037 396.727 388.037C393.18 388.037 390.291 390.918 390.251 394.475L390.25 394.507C386.672 395.292 383.33 396.714 380.343 398.647L380.308 398.614C377.779 396.128 373.709 396.146 371.202 398.666C369.978 399.896 369.305 401.531 369.305 403.27C369.305 404.985 369.959 406.599 371.15 407.822L371.182 407.857C369.259 410.86 367.845 414.22 367.064 417.817L367.031 417.818C363.494 417.858 360.628 420.764 360.628 424.329V424.33C360.628 426.069 361.301 427.704 362.525 428.933C363.731 430.146 365.328 430.821 367.031 430.84L367.064 430.841C367.844 434.439 369.259 437.798 371.181 440.801L371.149 440.836C368.676 443.38 368.694 447.471 371.201 449.992C373.709 452.513 377.779 452.53 380.308 450.044L380.342 450.012C383.33 451.945 386.671 453.366 390.249 454.151L390.251 454.184C390.29 457.74 393.18 460.622 396.727 460.622C400.274 460.622 403.164 457.741 403.204 454.185ZM372.732 424.329C372.732 411.006 383.475 400.205 396.728 400.205C409.98 400.205 420.723 411.006 420.723 424.329C420.723 437.652 409.98 448.453 396.728 448.453C383.475 448.453 372.732 437.652 372.732 424.329Z" fill="#859EBC"/>
<path d="M372.732 424.329C372.732 411.006 383.475 400.205 396.728 400.205C409.98 400.205 420.723 411.006 420.723 424.329C420.723 437.652 409.98 448.453 396.728 448.453C383.475 448.453 372.732 437.652 372.732 424.329Z" fill="#A7BFDA"/>
<path d="M354.861 360.056L358.494 356.404C362.043 358.488 365.816 360.064 369.759 361.111V366.26C369.759 368.029 371.185 369.463 372.944 369.463H389.932C391.691 369.463 393.117 368.029 393.117 366.26V361.111C397.06 360.064 400.833 358.488 404.382 356.404L408.015 360.056C409.259 361.307 411.276 361.307 412.519 360.056L424.532 347.98C425.776 346.729 425.776 344.702 424.532 343.451L420.899 339.799C422.972 336.231 424.54 332.438 425.581 328.474H430.703C432.462 328.474 433.888 327.04 433.888 325.271L433.888 308.192C433.888 306.423 432.462 304.99 430.703 304.99H425.581C424.54 301.025 422.972 297.233 420.899 293.664L424.532 290.012C425.129 289.411 425.465 288.597 425.465 287.747C425.465 286.898 425.129 286.084 424.532 285.483L412.52 273.406C411.276 272.156 409.259 272.156 408.015 273.406L404.382 277.059C400.833 274.975 397.061 273.398 393.117 272.352V267.202C393.117 265.433 391.691 264 389.932 264L372.944 264C371.185 264 369.759 265.433 369.759 267.202V272.352C365.816 273.398 362.043 274.975 358.494 277.059L354.861 273.406C353.617 272.156 351.6 272.156 350.357 273.406L338.344 285.482C337.747 286.083 337.411 286.897 337.411 287.747C337.411 288.597 337.747 289.411 338.344 290.012L341.977 293.664C339.904 297.232 338.336 301.025 337.295 304.99H332.173C330.414 304.99 328.988 306.423 328.988 308.192V325.271C328.988 327.04 330.414 328.473 332.173 328.473H337.295C338.336 332.438 339.904 336.23 341.977 339.798L338.344 343.45C337.1 344.702 337.1 346.729 338.344 347.979L350.357 360.056C351.6 361.307 353.617 361.307 354.861 360.056ZM373.577 355.433C368.662 354.43 364.023 352.492 359.788 349.672C358.525 348.831 356.848 349.001 355.777 350.078L352.609 353.263L345.101 345.715L348.269 342.53C349.34 341.452 349.508 339.767 348.673 338.498C345.868 334.24 343.94 329.576 342.943 324.634C342.641 323.141 341.336 322.068 339.821 322.068H335.358V311.394H339.821C341.336 311.394 342.642 310.321 342.943 308.829C343.941 303.887 345.868 299.222 348.673 294.965C349.508 293.695 349.34 292.009 348.269 290.932L345.101 287.747L352.608 280.199L355.777 283.385C356.847 284.461 358.525 284.631 359.787 283.79C364.022 280.971 368.662 279.032 373.577 278.029C375.062 277.726 376.129 276.414 376.129 274.891V270.405L386.746 270.405V274.891C386.746 276.414 387.813 277.727 389.297 278.03C394.213 279.033 398.853 280.972 403.087 283.791C404.35 284.632 406.027 284.462 407.098 283.385L410.266 280.2L417.774 287.747L414.606 290.933C413.534 292.01 413.366 293.696 414.202 294.965C417.006 299.223 418.935 303.887 419.932 308.829C420.233 310.322 421.539 311.395 423.054 311.395H427.518L427.518 322.069H423.055C421.54 322.069 420.235 323.141 419.933 324.634C418.935 329.576 417.008 334.24 414.203 338.498C413.368 339.767 413.536 341.454 414.607 342.53L417.775 345.716L410.267 353.264L407.099 350.078C406.028 349.002 404.351 348.832 403.088 349.673C398.853 352.493 394.214 354.431 389.299 355.433C387.814 355.736 386.747 357.048 386.747 358.572V363.058H376.129V358.571C376.129 357.048 375.062 355.736 373.577 355.433Z" fill="#124077"/>
<path d="M373.577 355.433C368.662 354.43 364.023 352.492 359.788 349.672C358.525 348.831 356.848 349.001 355.777 350.078L352.609 353.263L345.101 345.715L348.269 342.53C349.34 341.452 349.508 339.767 348.673 338.498C345.868 334.24 343.94 329.576 342.943 324.634C342.641 323.141 341.336 322.068 339.821 322.068H335.358V311.394H339.821C341.336 311.394 342.642 310.321 342.943 308.829C343.941 303.887 345.868 299.222 348.673 294.965C349.508 293.695 349.34 292.009 348.269 290.932L345.101 287.747L352.608 280.199L355.777 283.385C356.847 284.461 358.525 284.631 359.787 283.79C364.022 280.971 368.662 279.032 373.577 278.029C375.062 277.726 376.129 276.414 376.129 274.891V270.405L386.746 270.405V274.891C386.746 276.414 387.813 277.727 389.297 278.03C394.213 279.033 398.853 280.972 403.087 283.791C404.35 284.632 406.027 284.462 407.098 283.385L410.266 280.2L417.774 287.747L414.606 290.933C413.534 292.01 413.366 293.696 414.202 294.965C417.006 299.223 418.935 303.887 419.932 308.829C420.233 310.322 421.539 311.395 423.054 311.395H427.518L427.518 322.069H423.055C421.54 322.069 420.235 323.141 419.933 324.634C418.935 329.576 417.008 334.24 414.203 338.498C413.368 339.767 413.536 341.454 414.607 342.53L417.775 345.716L410.267 353.264L407.099 350.078C406.028 349.002 404.351 348.832 403.088 349.673C398.853 352.493 394.214 354.431 389.299 355.433C387.814 355.736 386.747 357.048 386.747 358.572V363.058H376.129V358.571C376.129 357.048 375.062 355.736 373.577 355.433Z" fill="#3A6292"/>
<path d="M410.105 316.731C410.105 300.839 397.246 287.911 381.438 287.911C365.631 287.911 352.771 300.839 352.771 316.731C352.771 332.623 365.631 345.552 381.438 345.552C397.246 345.552 410.105 332.623 410.105 316.731ZM359.142 316.731C359.142 304.371 369.144 294.315 381.438 294.315C393.733 294.315 403.735 304.371 403.735 316.731C403.735 329.091 393.733 339.147 381.438 339.147C369.144 339.147 359.142 329.091 359.142 316.731Z" fill="#124077"/>
<path d="M359.142 316.731C359.142 304.371 369.144 294.315 381.438 294.315C393.733 294.315 403.735 304.371 403.735 316.731C403.735 329.091 393.733 339.147 381.438 339.147C369.144 339.147 359.142 329.091 359.142 316.731Z" fill="#7694B7"/>
<path d="M345.551 414.081L345.551 410.23C349.672 409.667 353.457 408.034 356.618 405.613L359.334 408.342C360.577 409.593 362.594 409.593 363.838 408.342C365.082 407.091 365.082 405.064 363.838 403.813L361.123 401.084C363.531 397.906 365.156 394.1 365.715 389.957H369.547C371.306 389.957 372.732 388.524 372.732 386.755C372.732 384.986 371.306 383.553 369.547 383.553H365.715C365.156 379.41 363.531 375.605 361.123 372.426L363.838 369.697C365.082 368.446 365.082 366.419 363.838 365.169C362.594 363.918 360.577 363.918 359.334 365.168L356.618 367.897C353.457 365.476 349.672 363.843 345.551 363.281V359.429C345.551 357.66 344.125 356.226 342.366 356.226C340.607 356.226 339.181 357.66 339.181 359.429V363.281C335.06 363.843 331.275 365.476 328.113 367.897L325.398 365.168C324.154 363.918 322.137 363.918 320.894 365.169C320.272 365.794 319.961 366.613 319.961 367.433C319.961 368.252 320.272 369.072 320.894 369.698L323.609 372.427C321.201 375.605 319.576 379.411 319.016 383.553L315.185 383.553C313.426 383.553 312 384.987 312 386.756C312 388.525 313.426 389.958 315.185 389.958H319.016C319.576 394.101 321.201 397.906 323.609 401.084L320.894 403.814C320.272 404.439 319.961 405.258 319.961 406.078C319.961 406.898 320.272 407.717 320.894 408.342C322.138 409.594 324.154 409.594 325.398 408.343L328.113 405.614C331.275 408.035 335.06 409.668 339.181 410.231V414.082C339.181 415.851 340.607 417.285 342.366 417.285C344.125 417.285 345.551 415.85 345.551 414.081ZM325.166 386.755C325.166 377.22 332.882 369.463 342.366 369.463C351.85 369.463 359.566 377.22 359.566 386.755C359.566 396.29 351.85 404.048 342.366 404.048C332.882 404.048 325.166 396.29 325.166 386.755Z" fill="#4685D1"/>
<path d="M325.166 386.755C325.166 377.22 332.882 369.463 342.366 369.463C351.85 369.463 359.566 377.22 359.566 386.755C359.566 396.29 351.85 404.048 342.366 404.048C332.882 404.048 325.166 396.29 325.166 386.755Z" fill="#94C0F5"/>
<path d="M396.515 316.731C396.515 308.373 389.752 301.574 381.438 301.574C373.125 301.574 366.361 308.373 366.361 316.731C366.361 325.089 373.125 331.889 381.438 331.889C389.752 331.889 396.515 325.089 396.515 316.731ZM372.732 316.731C372.732 311.905 376.637 307.978 381.438 307.978C386.239 307.978 390.144 311.905 390.144 316.731C390.144 321.558 386.239 325.484 381.438 325.484C376.637 325.484 372.732 321.558 372.732 316.731Z" fill="#124077"/>
<path d="M372.732 316.731C372.732 311.905 376.637 307.978 381.438 307.978C386.239 307.978 390.144 311.905 390.144 316.731C390.144 321.558 386.239 325.484 381.438 325.484C376.637 325.484 372.732 321.558 372.732 316.731Z" fill="#D2ECFF"/>
<path d="M352.346 386.755C352.346 381.222 347.869 376.721 342.366 376.721C336.863 376.721 332.386 381.222 332.386 386.755C332.386 392.288 336.863 396.789 342.366 396.789C347.869 396.789 352.346 392.288 352.346 386.755ZM338.756 386.755C338.756 384.754 340.375 383.126 342.366 383.126C344.357 383.126 345.976 384.754 345.976 386.755C345.976 388.756 344.357 390.384 342.366 390.384C340.375 390.384 338.756 388.756 338.756 386.755Z" fill="#4685D1"/>
<path d="M338.756 386.755C338.756 384.754 340.375 383.126 342.366 383.126C344.357 383.126 345.976 384.754 345.976 386.755C345.976 388.756 344.357 390.384 342.366 390.384C340.375 390.384 338.756 388.756 338.756 386.755Z" fill="#D2ECFF"/>
<path d="M413.503 424.329C413.503 415.029 405.978 407.463 396.728 407.463C387.478 407.463 379.952 415.029 379.952 424.329C379.952 433.628 387.478 441.194 396.728 441.194C405.978 441.194 413.503 433.628 413.503 424.329ZM386.323 424.329C386.323 418.56 390.991 413.868 396.728 413.868C402.465 413.868 407.133 418.56 407.133 424.329C407.133 430.097 402.465 434.79 396.728 434.79C390.991 434.79 386.323 430.097 386.323 424.329Z" fill="#859EBC"/>
<path d="M386.323 424.329C386.323 418.56 390.991 413.868 396.728 413.868C402.465 413.868 407.133 418.56 407.133 424.329C407.133 430.097 402.465 434.79 396.728 434.79C390.991 434.79 386.323 430.097 386.323 424.329Z" fill="#D2ECFF"/>
<path d="M552.072 431.157L522.887 401.816C521.945 400.869 520.418 400.869 519.477 401.816L518.309 402.989L515.445 400.11C529.386 381.933 528.075 355.663 511.51 339.009C493.52 320.923 464.248 320.923 446.258 339.009C428.268 357.095 428.268 386.524 446.258 404.61C455.253 413.653 467.069 418.175 478.884 418.175C488.828 418.175 498.771 414.972 507.033 408.567L509.897 411.446L508.73 412.62C508.277 413.075 508.023 413.691 508.023 414.334C508.023 414.977 508.277 415.594 508.73 416.049L537.915 445.39C539.866 447.352 542.43 448.333 544.994 448.333C547.557 448.333 550.121 447.352 552.072 445.39C555.975 441.466 555.975 435.081 552.072 431.157ZM449.668 401.182C441.864 393.336 437.567 382.905 437.567 371.81C437.567 360.715 441.864 350.283 449.668 342.438C457.472 334.592 467.848 330.272 478.883 330.272C489.919 330.272 500.296 334.592 508.099 342.438C515.903 350.284 520.201 360.715 520.201 371.81C520.201 382.905 515.903 393.337 508.099 401.182C500.295 409.027 489.92 413.348 478.884 413.348C467.848 413.348 457.472 409.028 449.668 401.182ZM510.704 405.4C510.975 405.141 511.244 404.878 511.509 404.61C511.775 404.343 512.037 404.073 512.295 403.8L514.899 406.418L513.307 408.018L510.704 405.4ZM548.662 441.962C546.639 443.995 543.348 443.995 541.325 441.962L535.439 436.044L513.845 414.335L521.182 406.959L533.659 419.502L548.662 434.586C550.684 436.619 550.684 439.928 548.662 441.962Z" fill="#222831"/>
<path d="M510.704 405.4C510.975 405.141 511.244 404.878 511.509 404.61C511.775 404.343 512.037 404.073 512.295 403.8L514.899 406.418L513.307 408.018L510.704 405.4Z" fill="#859EBC"/>
<path d="M449.668 401.182C441.864 393.336 437.567 382.905 437.567 371.81C437.567 360.715 441.864 350.283 449.668 342.438C457.472 334.592 467.848 330.272 478.883 330.272C489.919 330.272 500.296 334.592 508.099 342.438C515.903 350.284 520.201 360.715 520.201 371.81C520.201 382.905 515.903 393.337 508.099 401.182C500.295 409.027 489.92 413.348 478.884 413.348C467.848 413.348 457.472 409.028 449.668 401.182Z" fill="#2E5F9B"/>
<path d="M521.182 406.959L513.845 414.335L535.439 436.044L533.659 419.502L521.182 406.959Z" fill="#9B5121"/>
<path d="M541.325 441.962C543.348 443.995 546.639 443.995 548.662 441.962C550.684 439.928 550.684 436.619 548.662 434.586L533.659 419.502L535.439 436.044L541.325 441.962Z" fill="#BA6228"/>
<path d="M504.502 346.054C497.659 339.175 488.561 335.386 478.884 335.386C469.206 335.386 460.108 339.175 453.265 346.054C446.422 352.934 442.654 362.081 442.654 371.81C442.654 381.54 446.422 390.686 453.265 397.566C460.108 404.446 469.207 408.234 478.884 408.234C488.561 408.234 497.659 404.446 504.502 397.566C511.345 390.686 515.114 381.539 515.114 371.81C515.114 362.081 511.345 352.934 504.502 346.054ZM501.092 394.137C495.16 400.101 487.273 403.386 478.884 403.386C470.495 403.386 462.608 400.101 456.676 394.137C444.43 381.826 444.43 361.794 456.676 349.483C462.608 343.519 470.495 340.235 478.884 340.235C487.273 340.235 495.16 343.519 501.092 349.483C513.338 361.794 513.338 381.826 501.092 394.137Z" fill="#222831"/>
<path d="M501.092 394.137C495.16 400.101 487.273 403.386 478.884 403.386C470.495 403.386 462.608 400.101 456.676 394.137C444.43 381.826 444.43 361.794 456.676 349.483C462.608 343.519 470.495 340.235 478.884 340.235C487.273 340.235 495.16 343.519 501.092 349.483C513.338 361.794 513.338 381.826 501.092 394.137Z" fill="#D2ECFF"/>
<path d="M493.549 347.525C492.411 346.829 490.927 347.192 490.235 348.336C489.544 349.48 489.905 350.972 491.043 351.667C492.636 352.641 494.119 353.814 495.451 355.153C495.922 355.627 496.539 355.864 497.156 355.864C497.773 355.864 498.39 355.627 498.861 355.153C499.803 354.207 499.803 352.672 498.861 351.725C497.258 350.113 495.47 348.699 493.549 347.525Z" fill="#222831"/>
<path d="M460.611 355.864C461.228 355.864 461.846 355.627 462.316 355.153C467.586 349.855 475.136 347.382 482.51 348.536C483.827 348.743 485.059 347.837 485.264 346.514C485.469 345.191 484.568 343.951 483.252 343.745C474.362 342.353 465.261 345.336 458.906 351.725C457.965 352.672 457.965 354.207 458.906 355.153C459.377 355.627 459.994 355.864 460.611 355.864Z" fill="#222831"/>
<path d="M466.505 391.816C464.996 390.87 463.587 389.743 462.316 388.466C461.375 387.519 459.848 387.519 458.906 388.466C457.965 389.413 457.965 390.948 458.906 391.894C460.435 393.432 462.134 394.79 463.953 395.93C464.35 396.179 464.791 396.298 465.227 396.298C466.031 396.298 466.818 395.893 467.275 395.155C467.98 394.02 467.635 392.525 466.505 391.816Z" fill="#222831"/>
<path d="M495.451 388.466C490.342 393.603 483.292 396.057 476.106 395.2C474.784 395.042 473.584 395.993 473.428 397.322C473.271 398.652 474.216 399.858 475.538 400.015C476.673 400.151 477.804 400.217 478.928 400.217C486.386 400.217 493.508 397.277 498.862 391.894C499.803 390.948 499.803 389.413 498.862 388.466C497.92 387.52 496.393 387.52 495.451 388.466Z" fill="#222831"/>
<path d="M465.071 366.772C465.178 366.572 465.359 366.422 465.576 366.356C465.792 366.29 466.026 366.313 466.225 366.42L467.732 367.228C468.071 365.598 468.878 364.103 470.051 362.927C471.267 361.704 472.761 360.926 474.329 360.595L473.524 359.082C473.471 358.983 473.437 358.873 473.425 358.761C473.414 358.648 473.424 358.534 473.456 358.426C473.489 358.317 473.542 358.216 473.613 358.128C473.685 358.041 473.773 357.968 473.872 357.915C473.971 357.861 474.08 357.828 474.192 357.817C474.304 357.806 474.418 357.818 474.525 357.851C474.633 357.884 474.733 357.939 474.82 358.011C474.907 358.083 474.978 358.172 475.031 358.272L476.168 360.412C478.407 360.43 480.548 361.333 482.129 362.927L482.733 362.32C482.893 362.159 482.983 361.94 482.983 361.712C482.983 361.485 482.893 361.266 482.733 361.105L482.129 360.498C481.969 360.337 481.879 360.119 481.879 359.891C481.879 359.663 481.969 359.445 482.129 359.284C482.289 359.123 482.507 359.032 482.733 359.032C482.96 359.032 483.177 359.123 483.337 359.284L483.941 359.891C484.421 360.374 484.691 361.029 484.691 361.712C484.691 362.396 484.421 363.051 483.941 363.534L483.337 364.141L484.545 365.355L486.357 363.534C486.517 363.373 486.734 363.282 486.96 363.282C487.187 363.282 487.404 363.373 487.564 363.534C487.725 363.695 487.815 363.913 487.815 364.141C487.815 364.369 487.725 364.587 487.564 364.748L485.753 366.57L486.96 367.784L487.564 367.177C488.045 366.694 488.697 366.422 489.376 366.422C490.056 366.422 490.707 366.694 491.188 367.177L491.792 367.784C491.952 367.945 492.042 368.163 492.042 368.391C492.042 368.619 491.952 368.837 491.792 368.998C491.632 369.159 491.414 369.25 491.188 369.25C490.961 369.25 490.744 369.159 490.584 368.998L489.98 368.391C489.82 368.23 489.603 368.14 489.376 368.14C489.15 368.14 488.932 368.23 488.772 368.391L488.168 368.998C489.77 370.609 490.67 372.793 490.67 375.07C490.67 377.347 489.77 379.531 488.168 381.141C486.567 382.752 484.394 383.656 482.129 383.656C479.864 383.656 477.692 382.752 476.09 381.141L475.486 381.749C475.326 381.91 475.236 382.128 475.236 382.356C475.236 382.583 475.326 382.802 475.486 382.963L476.09 383.57C476.25 383.731 476.34 383.949 476.34 384.177C476.34 384.405 476.25 384.623 476.09 384.784C475.93 384.945 475.713 385.036 475.486 385.036C475.259 385.036 475.042 384.945 474.882 384.784L474.278 384.177C473.798 383.694 473.528 383.039 473.528 382.356C473.528 381.673 473.798 381.017 474.278 380.534L474.882 379.927L473.674 378.713L471.862 380.534C471.702 380.695 471.485 380.786 471.259 380.786C471.032 380.786 470.815 380.695 470.655 380.534C470.494 380.373 470.404 380.155 470.404 379.927C470.404 379.699 470.494 379.481 470.655 379.32L472.466 377.498L471.259 376.284L470.655 376.891C470.174 377.374 469.522 377.646 468.843 377.646C468.163 377.646 467.512 377.374 467.031 376.891L466.427 376.284C466.267 376.123 466.177 375.905 466.177 375.677C466.177 375.449 466.267 375.231 466.427 375.07C466.587 374.909 466.805 374.818 467.031 374.818C467.258 374.818 467.475 374.909 467.635 375.07L468.239 375.677C468.399 375.838 468.616 375.929 468.843 375.929C469.069 375.929 469.287 375.838 469.447 375.677L470.051 375.07C468.403 373.414 467.57 371.247 467.549 369.077L465.421 367.933C465.222 367.826 465.073 367.643 465.007 367.426C464.941 367.208 464.964 366.973 465.071 366.772ZM472.466 375.07L477.298 379.927C478.474 381.111 480.04 381.822 481.702 381.927C483.363 382.032 485.005 381.524 486.32 380.498L476.694 370.82L472.466 375.07ZM477.902 369.605L487.528 379.284C488.549 377.962 489.054 376.31 488.95 374.64C488.845 372.97 488.138 371.396 486.96 370.213L482.129 365.355L477.902 369.605ZM480.921 364.141C480.242 363.456 479.426 362.924 478.528 362.579C477.629 362.234 476.668 362.085 475.708 362.14C474.03 362.231 472.445 362.944 471.259 364.141C470.068 365.334 469.358 366.928 469.267 368.616C469.212 369.581 469.362 370.547 469.705 371.45C470.048 372.353 470.578 373.173 471.259 373.856L480.921 364.141Z" fill="#222831"/>
<path d="M477.902 369.605L487.528 379.284C488.549 377.962 489.054 376.31 488.95 374.64C488.845 372.97 488.138 371.396 486.96 370.213L482.129 365.355L477.902 369.605Z" fill="#DA2525"/>
<path d="M472.466 375.07L477.298 379.927C478.474 381.111 480.04 381.822 481.702 381.927C483.363 382.032 485.005 381.524 486.32 380.498L476.694 370.82L472.466 375.07Z" fill="#DA2525"/>
<path d="M480.921 364.141C480.242 363.456 479.426 362.924 478.528 362.579C477.629 362.234 476.668 362.085 475.708 362.14C474.03 362.231 472.445 362.944 471.259 364.141C470.068 365.334 469.358 366.928 469.267 368.616C469.212 369.581 469.362 370.547 469.705 371.45C470.048 372.353 470.578 373.173 471.259 373.856L480.921 364.141Z" fill="#818181"/>
</svg>
