<svg id="Layer_2" data-name="Layer 2" xmlns="http://www.w3.org/2000/svg" viewBox="0 0 190.26 64.53"><defs><style>.cls-1{fill:#020000;}.cls-2{fill:none;stroke:#020000;stroke-miterlimit:10;stroke-width:2px;}</style></defs><path class="cls-1" d="M12.87,43.14a116.28,116.28,0,0,0-6,12.32,7.43,7.43,0,0,0-.54,2.28c0,.22.1.28,0,.17,2.77-1.19,5-3.9,7.31-6,6.48-6.43,12.66-13.22,19.05-19.8S45.55,19,52.4,12.83c1.07-.83,5-4.8,5.88-2.78a.53.53,0,0,1,0,.29c-1,2.24-2.19,4.26-3.31,6.36C46.86,31.13,38.71,46.51,29.8,60.4c-.32.12.46,0-.9.37-.54-.09-.22-.05-.37-.08-3.86-1.77-.91-12.87.38-16,2-5.12,4.22-5.28,9.35-4.91,6.09.66,10.07,2,9.78,9a20.39,20.39,0,0,1-2.74,9.64.59.59,0,0,0,0-.12c.1,0,0-.89-.74-.95a.57.57,0,0,0-.33.06c-.07,0,.11-.07.18-.14,4.7-4,13-12.07,17.61-16.34l.15.16q-4.65,5.07-9.41,10.06c-2,2-5.62,6.08-7.84,7.74-.87.42-1.42-.67-1.22-.94a12,12,0,0,1,.59-1.25C46,53,47,48.18,45.15,44.36c-1.66-1.77-4.57-2-7.08-2.29a16.17,16.17,0,0,0-4.72.21c-1.08.57-1.72,2.11-2.27,3.34A32.36,32.36,0,0,0,29,55.26a7.14,7.14,0,0,0,.39,3.37s0,0,0,0h0l-.27,0c-1.35.37-.5.18-.83.32C31.54,54,43.86,33.53,47.24,28.14c3.53-5.87,7.22-11.73,10.32-17.83a1.24,1.24,0,0,0,.06-.18s0,0,0,.09c-.1-.21-.48,0-.74.09-5.27,3.36-9.28,8.41-13.61,12.88-5.46,6-13.07,14.49-18.66,20.24-3.19,3.31-6.41,6.59-9.79,9.74-2.4,2.11-4.74,4.55-7.72,5.9C2,60.19,8.18,50.48,9,48.88c1.16-2,2.37-3.94,3.64-5.86l.19.12Z" transform="translate(-5.1 -9.49)"/><path class="cls-1" d="M85.51,15,72.35,35.48c-3.16,5.26-7.08,10.43-9.26,16.12,0,.06,0,.11,0,0a.66.66,0,0,0-.56-.42c-.13,0,.14,0,.3-.14a6.17,6.17,0,0,0,.58-.34c2.56-1.47,8.78-7.71,11.73-6,1.29,1,.76,2.81.72,4.13a1.67,1.67,0,0,0,.15,1c1.47.37,4.56-2.89,3.76-4.42a2.12,2.12,0,0,0-1.36-1.09s.06,0,.06-.06a.22.22,0,0,0,0,.24,2.29,2.29,0,0,0,1.19.48,28.5,28.5,0,0,0,9-.45A11.08,11.08,0,0,0,93.11,43a.52.52,0,0,1,.36,0c.76.31.06,1.18-.14,1.63a31.84,31.84,0,0,0-2.24,4.23c0,.08.07.17-.1-.13-.15-.12-.15-.06-.08-.08a12.05,12.05,0,0,0,2.83-1.45l2.56-1.63c2.23-1.33,4.34-3,7-3.69a1.39,1.39,0,0,1,1.75,1.37c-.17,1.51-1.42,2.5-1.77,3.84h0a.32.32,0,0,0-.09-.15,10.19,10.19,0,0,0,3.45-.93c2.66-1.09,5.58-2.61,8.21-3.87,1.22-.48,2.45-1.36,3.88-1.21a1.26,1.26,0,0,1,1,1.33,2.84,2.84,0,0,1-.67,1.29c-.59.74-1.49,1.56-2.12,2.25a5.91,5.91,0,0,0-.57.71s0,.12,0-.3a.89.89,0,0,0-.84-.77A42.93,42.93,0,0,0,120.17,43c7.76-4.48,15-5.86,10.26,5.91A82.88,82.88,0,0,1,113.13,74l-.14-.14A95.33,95.33,0,0,0,128.8,48.25c.59-1.85,1.79-4.58.93-6.34a.91.91,0,0,0-.66-.23c-2.74.15-5.39,1.89-7.88,3.18l-2.68,1.46a7.3,7.3,0,0,1-3.14,1.17,1.29,1.29,0,0,1-1.15-1.11c0-1,.58-1.46,1.1-2.09s1.58-1.56,2.07-2.16c.13-.14.27-.38.23-.29a.89.89,0,0,0,.62,1c.21,0,.12,0,.06,0A43.25,43.25,0,0,0,113,45.19c-2.85,1.28-5.59,2.77-8.73,3.43a2.71,2.71,0,0,1-2.21-.37c-1.61-1.66.89-3.64,1.37-5.16a.51.51,0,0,0,.11.24c.22.17.18.05,0,.09-3.06.86-6.24,3.25-9.13,4.76-.87.44-4.6,2.83-4.3.36a27.77,27.77,0,0,1,2.52-4.42,7.33,7.33,0,0,0,.41-.76.38.38,0,0,0,.27.35c.21,0,.2,0,.14,0-1.45,1.55-16.22,3.68-15.57.37.19-.62,1-.34,1.3-.17,2.56,1.34,1.15,4.17-.48,5.6-.85.72-2,1.76-3.24,1.08-1-.82-.5-2.29-.56-3.34.5-5.52-9.4,4.71-11.22,5.33-1,.64-2.52.47-2.31-1.22.57-2.42,2-4.44,3.1-6.47,2.1-3.51,4.34-6.91,6.62-10.28q6.9-10,14.3-19.75l.16.12Z" transform="translate(-5.1 -9.49)"/><path class="cls-1" d="M146.88,28.83A60,60,0,0,1,146,44a.56.56,0,0,1-.08.14.78.78,0,0,1-.55.31c-.71-.11-.61-.32-.6-.23l-.09-.08-.18-.17c-2.84-2.29-6.43-2.36-10.07-3.41-1.94-.42-4.38-2.34-2.38-4.37,4.9-3.73,16.22-3.78,22.18-2.87,4,.67,8.58,2.29,7.14,7.3a.42.42,0,0,1-.69.08,1.13,1.13,0,0,1-.08-1.13c.93-1.77,2.79-2.74,4.4-3.7,5.12-3,11.21-3.67,16.29-6.66a46,46,0,0,0,10.28-7.84,8.49,8.49,0,0,0,1.6-2,.85.85,0,0,0,0-.21.48.48,0,0,0,.17.21c.12.07.16,0,.09,0a1.3,1.3,0,0,0-.29,0c-2.24.68-4,2.74-5.61,4.36-3.87,4.18-8,8.67-10.19,14-1.51,4.51,2.08,3.36,4.65,1.92l.1.17A15.35,15.35,0,0,1,180.21,41c-1.52.84-3.64,1.06-4-1.15-.25-2.38,1-4.55,2-6.57a59.61,59.61,0,0,1,11.18-14.07,8.18,8.18,0,0,1,4-1.95,2,2,0,0,1,1.8,2.81c-1.22,2.43-3.45,4.13-5.46,5.84a43.76,43.76,0,0,1-11.68,6.83c-4.2,1.44-8.58,2.11-12.56,4.1-1.53.81-3.25,1.61-4.17,3.06a.45.45,0,0,0-.06.36.26.26,0,0,0-.15-.12.32.32,0,0,0-.36.1s0,0,0,0a.41.41,0,0,1,0-.08c2.07-9.34-19-6.23-23.91-4.39-1.27.44-3.05,1-3.78,2,.22.64,1.07.86,1.85,1.14,3.39,1,7.93,1.4,10.75,4.24l.11.11c0,.11.14-.09-.55-.19a.7.7,0,0,0-.5.27,104.26,104.26,0,0,0,1.9-14.48Z" transform="translate(-5.1 -9.49)"/><circle class="cls-2" cx="180.63" cy="28.6" r="0.08"/></svg>