<svg width="200" height="80" viewBox="0 0 200 80" fill="none" xmlns="http://www.w3.org/2000/svg">
<path d="M8.16759 41.717C5.81245 46.6575 3.7064 51.7575 1.86044 56.9905C1.54565 57.8914 1.35405 58.8454 1.29279 59.8171C1.29279 60.0898 1.39791 60.1642 1.29279 60.0278C4.2046 58.5526 6.54876 55.1929 8.97701 52.5894C15.7887 44.618 22.2851 36.2002 29.0022 28.0427C35.7194 19.8853 42.5206 11.7898 49.7213 4.14066C50.846 3.11168 54.9772 -1.81006 55.9023 0.6942C55.9306 0.811711 55.9306 0.936212 55.9023 1.05372C54.8511 3.83073 53.6002 6.33499 52.4228 8.93843C43.8976 26.8278 35.3304 45.8949 25.9643 63.1148C25.6279 63.2635 26.4478 63.1148 25.0182 63.5735C24.4506 63.4619 24.787 63.5115 24.6293 63.4743C20.5717 61.28 23.6727 47.5189 25.0287 43.6386C27.1311 37.2911 29.4648 37.0928 34.8574 37.5515C41.2592 38.3697 45.4429 40.0309 45.1381 48.7091C45.036 52.9133 44.046 57.0211 42.2578 60.6601C42.2621 60.6106 42.2621 60.5608 42.2578 60.5113C42.3629 60.5113 42.2578 59.408 41.4799 59.3336C41.3606 59.3168 41.2397 59.3427 41.133 59.408C41.0594 59.408 41.2486 59.3212 41.3222 59.2344C46.2628 54.2755 54.9877 44.2708 59.8337 38.9772L59.9914 39.1755C56.7327 43.3658 53.4355 47.5231 50.0997 51.6472C47.9973 54.1267 44.192 59.1848 41.8583 61.2428C40.9438 61.7635 40.3656 60.4122 40.5759 60.0774C40.7572 59.5473 40.9643 59.0298 41.1961 58.5278C42.9936 53.9408 44.0448 47.9652 42.1001 43.2295C40.3551 41.0351 37.2962 40.75 34.6577 40.3905C33.0019 40.1903 31.3302 40.278 29.696 40.6508C28.5607 41.3575 27.888 43.2666 27.3098 44.7915C26.0675 48.6201 25.3302 52.6505 25.1233 56.7425C24.9734 58.1538 25.114 59.5869 25.5333 60.9205H25.2495C23.8304 61.3792 24.7239 61.1436 24.377 61.3172C27.7934 55.1805 40.7441 29.8031 44.2971 23.121C48.0078 15.8437 51.8867 8.57891 55.1454 1.01653C55.1712 0.944156 55.1923 0.869553 55.2085 0.793379C55.2085 0.793379 55.2085 0.793379 55.2085 0.904955C55.1034 0.644611 54.7039 0.904955 54.4306 1.01653C48.8908 5.18204 44.6755 11.4427 40.1239 16.9843C34.3843 24.4227 26.3848 34.948 20.5086 42.0765C17.1553 46.18 13.7705 50.2463 10.2174 54.1515C7.69456 56.7673 5.23477 59.7923 2.10221 61.4659C-3.25888 62.8544 3.2375 50.8166 4.09948 48.8331C5.31886 46.3536 6.5908 43.9485 7.92582 41.5682L8.12555 41.717H8.16759Z" fill="#222831"/>
<path d="M84.5265 6.83091L70.6928 32.2207C67.371 38.7417 63.2503 45.1511 60.9587 52.2052C60.9587 52.2795 60.9587 52.3415 60.9587 52.2052C60.9119 52.062 60.8318 51.9373 60.7277 51.8452C60.6236 51.7531 60.4997 51.6974 60.37 51.6845C60.2334 51.6845 60.5172 51.6845 60.6854 51.5109C60.895 51.3836 61.0985 51.2429 61.2951 51.0894C63.9862 49.267 70.5246 41.5311 73.6256 43.651C74.9816 44.8907 74.4245 47.1347 74.3825 48.7711C74.3251 49.1936 74.3802 49.6267 74.5401 50.0108C76.0854 50.4695 79.3336 46.428 78.4926 44.5312C78.3491 44.1993 78.1475 43.9072 77.901 43.6743C77.6545 43.4413 77.3689 43.2728 77.063 43.1799C77.063 43.1799 77.1261 43.1799 77.1261 43.1055C77.1016 43.1498 77.0886 43.2015 77.0886 43.2543C77.0886 43.3071 77.1016 43.3588 77.1261 43.403C77.4864 43.7379 77.9205 43.9444 78.377 43.9981C81.5357 44.405 84.7292 44.2167 87.8377 43.4402C89.4942 43.2103 91.0894 42.5634 92.5155 41.5434C92.6377 41.4903 92.7718 41.4903 92.894 41.5434C93.6929 41.9278 92.957 43.0063 92.7468 43.5642C91.8515 45.2401 91.0643 46.9931 90.3921 48.8083C90.3921 48.9075 90.4657 49.019 90.287 48.6471C90.1293 48.4984 90.1293 48.5727 90.2029 48.5479C91.2575 48.1064 92.2578 47.5019 93.1778 46.7503L95.8688 44.7296C98.213 43.0807 100.431 41.0104 103.227 40.1549C103.446 40.0857 103.676 40.0774 103.898 40.1308C104.12 40.1841 104.328 40.2977 104.507 40.4624C104.685 40.6271 104.829 40.8386 104.926 41.08C105.023 41.3214 105.071 41.5862 105.067 41.8534C104.888 43.7254 103.574 44.9527 103.206 46.614C103.19 46.5428 103.157 46.4784 103.112 46.428C104.369 46.2986 105.596 45.9083 106.738 45.275C109.534 43.9237 112.604 42.0393 115.368 40.4773C116.651 39.8822 117.944 38.7912 119.447 38.9772C119.762 39.0544 120.043 39.2644 120.236 39.5679C120.43 39.8713 120.523 40.2475 120.498 40.626C120.385 41.2222 120.142 41.7733 119.794 42.2253C119.174 43.1427 118.228 44.1593 117.565 45.0147C117.347 45.2895 117.147 45.5838 116.966 45.8949C116.966 45.8949 116.966 46.0437 116.966 45.523C116.937 45.2672 116.833 45.0316 116.671 44.8572C116.51 44.6828 116.302 44.5806 116.083 44.5684C117.76 43.6782 119.389 42.668 120.961 41.5434C129.118 35.9894 136.729 34.2786 131.746 48.8703C127.367 60.4752 121.2 71.0217 113.56 79.9752L113.413 79.8016C120.344 70.323 125.953 59.6063 130.033 48.0521C130.653 45.7585 131.914 42.3741 131.01 40.1921C130.916 40.093 130.807 40.0168 130.687 39.9679C130.568 39.919 130.442 39.8983 130.316 39.907C127.436 40.093 124.651 42.2501 122.033 43.8494L119.216 45.6594C118.226 46.4382 117.096 46.9347 115.915 47.1099C115.612 47.0741 115.328 46.9189 115.108 46.6692C114.889 46.4195 114.747 46.09 114.706 45.7338C114.706 44.494 115.316 43.9237 115.863 43.1427C116.409 42.3617 117.523 41.2087 118.039 40.4649C118.175 40.2913 118.322 39.9938 118.28 40.1054C118.242 40.3701 118.288 40.6421 118.408 40.8704C118.528 41.0986 118.714 41.2674 118.932 41.3451C119.153 41.3451 119.058 41.3451 118.995 41.3451C117.085 42.1682 115.224 43.1415 113.424 44.2585C110.428 45.8453 107.548 47.6925 104.247 48.5108C103.854 48.6341 103.444 48.657 103.043 48.5778C102.643 48.4987 102.261 48.3195 101.924 48.0521C100.231 45.9941 102.859 43.5394 103.364 41.655C103.38 41.7645 103.419 41.8671 103.479 41.9526C103.711 42.1633 103.669 42.0145 103.479 42.0641C100.263 43.1303 96.92 46.0933 93.8821 47.9653C92.9676 48.5108 89.0466 51.4737 89.362 48.4116C90.1009 46.4933 90.9876 44.659 92.011 42.9319C92.1702 42.6281 92.3141 42.3135 92.442 41.9898C92.445 42.088 92.474 42.1826 92.5249 42.2604C92.5758 42.3382 92.646 42.3953 92.7258 42.4237C92.9465 42.4237 92.936 42.4237 92.8729 42.4237C91.3487 44.3452 75.8226 46.9859 76.5059 42.8824C76.7056 42.1137 77.5571 42.4609 77.8724 42.6716C80.5635 44.3329 79.0813 47.8413 77.3678 49.6141C76.4743 50.5067 75.2655 51.796 73.962 50.953C72.9108 49.9364 73.4364 48.114 73.3733 46.8123C73.8989 39.969 63.4921 52.6515 61.5789 53.4201C60.5277 54.2135 58.9299 54.0028 59.1507 51.9076C59.7498 48.9075 61.2531 46.4032 62.4094 43.8865C64.6169 39.5351 66.9715 35.32 69.3683 31.1421C74.2037 22.8772 79.2144 14.7156 84.4003 6.65735L84.5685 6.80612L84.5265 6.83091Z" fill="#222831"/>
<path d="M149.038 23.9764C149.407 30.2662 149.096 36.5858 148.113 42.7832C148.092 42.8455 148.064 42.904 148.029 42.9567C147.961 43.0648 147.874 43.1548 147.774 43.221C147.675 43.2871 147.565 43.328 147.451 43.341C146.704 43.2047 146.81 42.9443 146.82 43.0559L146.726 42.9567L146.536 42.746C143.551 39.907 139.777 39.8202 135.951 38.5185C133.911 37.9978 131.347 35.6175 133.449 33.1008C138.6 28.4766 150.499 28.4147 156.764 29.5428C160.969 30.3734 165.784 32.3818 164.27 38.5929C164.237 38.6681 164.188 38.7326 164.129 38.7807C164.069 38.8288 164.001 38.8591 163.93 38.8688C163.858 38.8786 163.786 38.8676 163.718 38.8368C163.651 38.806 163.592 38.7563 163.545 38.692C163.427 38.4879 163.358 38.2509 163.343 38.0049C163.328 37.7589 163.369 37.5127 163.461 37.2911C164.438 35.0968 166.393 33.8943 168.086 32.7041C173.468 28.9849 179.87 28.1543 185.21 24.4475C189.182 21.8238 192.82 18.5516 196.016 14.728C196.68 14.0066 197.247 13.1706 197.698 12.2485C197.707 12.1621 197.707 12.0746 197.698 11.9882C197.735 12.0934 197.797 12.1837 197.877 12.2485C198.003 12.3353 198.045 12.2485 197.971 12.2485C197.87 12.2351 197.768 12.2351 197.666 12.2485C195.312 13.0915 193.462 15.6454 191.769 17.6538C187.701 22.8359 183.36 28.4023 181.057 35.01C179.47 40.6012 183.244 39.1755 185.946 37.3903L186.051 37.6011C185.423 38.1443 184.762 38.6332 184.074 39.064C182.477 40.1053 180.248 40.3781 179.87 37.6383C179.607 34.6877 180.921 31.9975 181.972 29.4932C185.12 23.0119 189.082 17.1307 193.724 12.0502C194.91 10.8016 196.365 9.96478 197.929 9.63269C198.277 9.63854 198.617 9.7459 198.921 9.94516C199.225 10.1444 199.482 10.4294 199.669 10.7745C199.857 11.1196 199.969 11.5142 199.995 11.9229C200.022 12.3316 199.962 12.7416 199.821 13.1163C198.539 16.1289 196.195 18.2364 194.082 20.3564C190.386 23.9125 186.244 26.7691 181.804 28.8238C177.389 30.609 172.785 31.4396 168.601 33.9067C166.993 34.9109 165.184 35.9026 164.217 37.7003C164.181 37.7653 164.157 37.8387 164.146 37.9155C164.135 37.9924 164.138 38.0711 164.154 38.1466C164.12 38.075 164.063 38.0218 163.997 37.9978C163.93 37.9691 163.858 37.9656 163.79 37.9879C163.723 38.0101 163.662 38.057 163.618 38.1218C163.615 38.0888 163.615 38.0556 163.618 38.0226C165.794 26.4435 143.646 30.299 138.484 32.5802C137.149 33.1256 135.278 33.8199 134.511 35.0596C134.742 35.8531 135.635 36.1258 136.455 36.4729C140.019 37.7127 144.791 38.2085 147.756 41.7294L147.871 41.8658C147.871 42.0021 148.018 41.7542 147.293 41.6302C147.191 41.6396 147.091 41.6742 147 41.7318C146.91 41.7895 146.83 41.8689 146.768 41.9649C147.788 36.0436 148.456 30.0451 148.765 24.0136L149.038 23.9764Z" fill="#222831"/>
</svg>
