<svg width="900" height="900" viewBox="0 0 900 900" fill="none" xmlns="http://www.w3.org/2000/svg">
<path d="M450 900C698.528 900 900 698.528 900 450C900 201.472 698.528 0 450 0C201.472 0 0 201.472 0 450C0 698.528 201.472 900 450 900Z" fill="#FD7013"/>
<rect x="188.262" y="382.527" width="530.795" height="98.6417" rx="49.3209" fill="#D76114"/>
<rect x="165.269" y="481.169" width="572.378" height="104.067" rx="52.0335" fill="#D76114"/>
<rect x="216.637" y="585.236" width="550.363" height="89.764" rx="44.882" fill="#D76114"/>
<rect x="188.262" y="247.881" width="541.068" height="70.0356" rx="35.0178" fill="#D76114"/>
<rect x="238.651" y="317.917" width="528.349" height="64.6103" rx="32.3052" fill="#D76114"/>
<rect x="155.993" y="359.646" width="530.795" height="98.6417" rx="49.3209" fill="#1F7FC5"/>
<rect x="133" y="458.288" width="572.378" height="104.067" rx="52.0335" fill="#89B6D7"/>
<rect x="184.367" y="562.355" width="550.363" height="89.764" rx="44.882" fill="#B5D9F3"/>
<rect x="155.993" y="225" width="541.068" height="70.0356" rx="35.0178" fill="#81CAFF"/>
<rect x="206.382" y="295.036" width="528.349" height="64.6103" rx="32.3052" fill="#4EB0F8"/>
<line y1="-5" x2="122.637" y2="-5" transform="matrix(0.814483 -0.580187 0.573924 0.818909 336.023 395.78)" stroke="#419ADA" stroke-width="10"/>
<line y1="-5" x2="62.2994" y2="-5" transform="matrix(0.814483 -0.580187 0.573924 0.818909 336.023 395.78)" stroke="#1A6EAB" stroke-width="10"/>
<path d="M384.944 355.7L386.901 359.646H379.563L384.944 355.7Z" fill="#419ADA"/>
<line y1="-5" x2="122.637" y2="-5" transform="matrix(0.814483 -0.580187 0.573924 0.818909 333.088 392.821)" stroke="#222831" stroke-width="10"/>
<path d="M546.003 305.393C546.003 301.908 545.67 298.44 545.013 295.036C544.327 291.48 543.288 287.994 541.906 284.631C539.202 278.049 535.238 272.068 530.241 267.03C525.244 261.993 519.312 257.996 512.783 255.27C506.254 252.543 499.256 251.14 492.189 251.14C485.122 251.14 478.125 252.543 471.596 255.27C465.067 257.996 459.135 261.993 454.138 267.03C449.14 272.068 445.177 278.049 442.472 284.631C441.091 287.994 440.052 291.48 439.366 295.036C438.709 298.44 438.376 301.908 438.376 305.393L492.189 305.393H546.003Z" fill="#70B1E0"/>
<path d="M546.003 305.393C546.003 335.356 521.91 359.646 492.189 359.646C462.469 359.646 438.376 335.356 438.376 305.393C438.376 301.851 438.713 298.388 439.356 295.036C468.707 295.036 468.673 295.036 494.88 295.036C521.087 295.036 524.477 295.036 545.023 295.036C545.666 298.388 546.003 301.851 546.003 305.393Z" fill="#419ADA"/>
<ellipse cx="477" cy="295" rx="60" ry="61" fill="#222831"/>
<ellipse cx="476.916" cy="295.036" rx="50.2257" ry="50.6361" fill="url(#paint0_linear_23_52)"/>
<path d="M394.836 476.043C394.836 523.712 356.506 458.288 309.224 458.288C261.942 458.288 223.612 523.712 223.612 476.043C223.612 469.957 224.237 464.018 225.425 458.288C233.546 419.137 267.979 389.732 309.224 389.732C350.469 389.732 384.903 419.137 393.023 458.288C394.211 464.018 394.836 469.957 394.836 476.043Z" fill="#1A6EAB"/>
<path d="M394.836 476.043C394.836 523.712 356.506 562.355 309.224 562.355C261.942 562.355 223.612 523.712 223.612 476.043C223.612 469.957 224.237 464.018 225.425 458.288C270.576 458.288 267.979 458.288 309.224 458.288C350.469 458.288 351.052 458.288 393.023 458.288C394.211 464.018 394.836 469.957 394.836 476.043Z" fill="#7DA4C0"/>
<line y1="-5" x2="122.514" y2="-5" transform="matrix(0.887074 0.461628 -0.455734 0.890116 357.059 501.69)" stroke="#7DA4C0" stroke-width="10"/>
<line y1="-5" x2="122.514" y2="-5" transform="matrix(0.887074 0.461628 -0.455734 0.890116 355.102 505.636)" stroke="#222831" stroke-width="10"/>
<ellipse cx="557.744" cy="578.137" rx="73.3818" ry="73.9813" fill="#7AA1BD"/>
<path d="M631.125 578.137C631.125 618.996 598.271 652.119 557.744 652.119C517.216 652.119 484.362 618.996 484.362 578.137C484.362 572.721 484.939 567.44 486.035 562.355C526.19 562.355 524.546 562.355 559.701 562.355C594.855 562.355 594.679 562.355 629.452 562.355C630.548 567.44 631.125 572.721 631.125 578.137Z" fill="#9ABCD5"/>
<ellipse cx="537.5" cy="562" rx="78.5" ry="79" fill="#222831"/>
<ellipse cx="537.089" cy="562.355" rx="68.4896" ry="69.0492" fill="url(#paint1_linear_23_52)"/>
<ellipse cx="286.5" cy="458" rx="90.5" ry="91" fill="#222831"/>
<ellipse cx="286.613" cy="458.288" rx="79.9046" ry="80.5574" fill="url(#paint2_linear_23_52)"/>
<g clip-path="url(#clip0_23_52)">
<path d="M321.899 465.871C325.144 469.066 328.57 472.071 331.481 475.588C332.767 477.151 333.984 478.763 334.915 480.577C336.235 483.155 335.04 485.992 332.747 486.146L318.493 486.14C314.816 486.447 311.884 484.955 309.418 482.421C307.444 480.394 305.617 478.238 303.719 476.143C302.941 475.286 302.127 474.481 301.154 473.844C299.208 472.57 297.519 472.96 296.407 475.006C295.275 477.087 295.018 479.392 294.906 481.711C294.754 485.095 293.739 485.984 290.368 486.139C283.162 486.482 276.324 485.383 269.971 481.718C264.371 478.488 260.028 473.927 256.247 468.764C248.888 458.71 243.251 447.663 238.186 436.306C237.045 433.747 237.879 432.374 240.68 432.325C245.33 432.234 249.979 432.24 254.635 432.318C256.524 432.346 257.776 433.439 258.505 435.239C261.021 441.476 264.1 447.409 267.964 452.909C268.993 454.373 270.042 455.838 271.536 456.868C273.189 458.009 274.448 457.631 275.225 455.775C275.719 454.598 275.935 453.33 276.046 452.069C276.414 447.732 276.463 443.402 275.817 439.08C275.42 436.382 273.913 434.636 271.243 434.126C269.881 433.865 270.084 433.354 270.743 432.57C271.889 431.218 272.967 430.376 275.115 430.376H291.224C293.76 430.881 294.323 432.03 294.67 434.602L294.684 452.642C294.656 453.638 295.178 456.594 296.957 457.253C298.381 457.722 299.32 456.574 300.174 455.663C304.031 451.536 306.784 446.659 309.243 441.609C310.335 439.388 311.273 437.082 312.182 434.777C312.856 433.067 313.914 432.226 315.824 432.263L331.328 432.277C331.788 432.277 332.253 432.284 332.698 432.361C335.311 432.81 336.027 433.943 335.22 436.515C333.949 440.55 331.475 443.913 329.056 447.291C326.471 450.898 323.705 454.381 321.141 458.009C318.785 461.323 318.972 462.993 321.899 465.871Z" fill="#222831"/>
</g>
<g clip-path="url(#clip1_23_52)">
<path d="M572.117 539.06C570.964 539.575 569.778 540.01 568.567 540.364C570.001 538.729 571.094 536.805 571.762 534.7C571.911 534.229 571.756 533.712 571.372 533.404C570.987 533.095 570.454 533.058 570.031 533.31C567.459 534.848 564.684 535.954 561.774 536.6C558.844 533.713 554.863 532.069 550.748 532.069C542.062 532.069 534.995 539.194 534.995 547.951C534.995 548.64 535.038 549.326 535.124 550.003C524.345 549.049 514.324 543.707 507.443 535.197C507.198 534.894 506.82 534.731 506.433 534.762C506.046 534.792 505.698 535.012 505.503 535.351C504.107 537.765 503.369 540.526 503.369 543.336C503.369 547.163 504.725 550.794 507.118 553.631C506.391 553.377 505.684 553.059 505.01 552.682C504.648 552.479 504.206 552.482 503.847 552.69C503.487 552.898 503.261 553.28 503.252 553.698C503.25 553.768 503.25 553.838 503.25 553.91C503.25 559.622 506.3 564.764 510.962 567.567C510.561 567.527 510.161 567.468 509.763 567.392C509.353 567.313 508.932 567.458 508.655 567.773C508.378 568.088 508.287 568.527 508.414 568.928C510.14 574.36 514.583 578.355 519.954 579.573C515.499 582.386 510.405 583.859 505.057 583.859C503.941 583.859 502.819 583.793 501.72 583.662C501.175 583.597 500.653 583.922 500.467 584.445C500.281 584.968 500.478 585.552 500.943 585.852C507.813 590.293 515.757 592.64 523.915 592.64C539.953 592.64 549.986 585.015 555.579 578.619C562.552 570.643 566.552 560.086 566.552 549.655C566.552 549.219 566.545 548.779 566.532 548.34C569.283 546.25 571.652 543.721 573.58 540.814C573.872 540.373 573.841 539.789 573.501 539.383C573.163 538.976 572.598 538.844 572.117 539.06Z" fill="#222831"/>
</g>
<g clip-path="url(#clip2_23_52)">
<path d="M466.506 296.483H471.332V316.514C471.332 316.91 471.65 317.23 472.042 317.23H480.225C480.617 317.23 480.935 316.91 480.935 316.514V296.577H486.483C486.844 296.577 487.148 296.304 487.189 295.943L488.032 288.568C488.055 288.366 487.991 288.162 487.856 288.01C487.722 287.858 487.529 287.771 487.326 287.771H480.936V283.148C480.936 281.754 481.68 281.048 483.148 281.048C483.357 281.048 487.326 281.048 487.326 281.048C487.719 281.048 488.036 280.727 488.036 280.332V273.562C488.036 273.167 487.719 272.847 487.326 272.847H481.568C481.527 272.845 481.437 272.841 481.304 272.841C480.305 272.841 476.832 273.039 474.088 275.583C471.049 278.403 471.471 281.779 471.572 282.365V287.77H466.505C466.113 287.77 465.795 288.091 465.795 288.486V295.767C465.795 296.162 466.113 296.483 466.506 296.483Z" fill="#222831"/>
</g>
<defs>
<linearGradient id="paint0_linear_23_52" x1="459.793" y1="286.158" x2="512.734" y2="329.876" gradientUnits="userSpaceOnUse">
<stop stop-color="#FD7013"/>
<stop offset="1" stop-color="#EEF20F"/>
</linearGradient>
<linearGradient id="paint1_linear_23_52" x1="504.801" y1="577.398" x2="561.446" y2="493.732" gradientUnits="userSpaceOnUse">
<stop stop-color="#FD7013"/>
<stop offset="1" stop-color="#EEF20F"/>
</linearGradient>
<linearGradient id="paint2_linear_23_52" x1="248.209" y1="458.288" x2="366.417" y2="436.683" gradientUnits="userSpaceOnUse">
<stop stop-color="#FD7013"/>
<stop offset="1" stop-color="#EEF20F"/>
</linearGradient>
<clipPath id="clip0_23_52">
<rect width="97.8423" height="98.6417" fill="white" transform="translate(237.691 408.967)"/>
</clipPath>
<clipPath id="clip1_23_52">
<rect width="73.3818" height="73.9813" fill="white" transform="translate(500.398 525.364)"/>
</clipPath>
<clipPath id="clip2_23_52">
<rect width="44.0291" height="44.3888" fill="white" transform="translate(454.901 272.841)"/>
</clipPath>
</defs>
</svg>
